<?xml version="1.0" encoding="UTF-8"?>
<svg xmlns="http://www.w3.org/2000/svg" version="1.1" viewBox="0 0 480 480">
  <defs>
    <style>
      .cls-1, .cls-2, .cls-3, .cls-4, .cls-5, .cls-6, .cls-7, .cls-8, .cls-9, .cls-10, .cls-11, .cls-12, .cls-13, .cls-14, .cls-15, .cls-16 {
        stroke-width: 0px;
      }

      .cls-1, .cls-3 {
        fill: #4d4d4d;
      }

      .cls-1, .cls-17, .cls-18 {
        display: none;
      }

      .cls-19, .cls-20, .cls-21, .cls-22, .cls-23, .cls-24, .cls-25, .cls-26, .cls-27, .cls-28, .cls-29, .cls-30, .cls-31, .cls-32, .cls-33, .cls-34, .cls-35, .cls-36, .cls-37, .cls-38, .cls-39, .cls-40, .cls-17, .cls-41, .cls-42, .cls-43, .cls-44 {
        fill: none;
      }

      .cls-19, .cls-21, .cls-23, .cls-26, .cls-28, .cls-35, .cls-38, .cls-40, .cls-41, .cls-42, .cls-44 {
        stroke-linejoin: bevel;
      }

      .cls-19, .cls-26, .cls-41, .cls-44 {
        stroke-width: 24.97px;
      }

      .cls-19, .cls-40 {
        stroke: #c03;
      }

      .cls-20, .cls-22, .cls-24, .cls-45, .cls-25, .cls-27, .cls-29, .cls-46, .cls-30, .cls-31, .cls-32, .cls-33, .cls-34, .cls-36, .cls-37, .cls-39, .cls-17, .cls-43 {
        stroke-miterlimit: 10;
      }

      .cls-20, .cls-25, .cls-32, .cls-33 {
        stroke: #9c3;
      }

      .cls-20, .cls-27, .cls-36, .cls-39, .cls-42, .cls-43 {
        stroke-width: 12px;
      }

      .cls-21, .cls-28, .cls-35, .cls-40 {
        stroke-width: 13.86px;
      }

      .cls-21, .cls-29, .cls-39, .cls-41 {
        stroke: #393;
      }

      .cls-2 {
        fill: #636;
      }

      .cls-22 {
        stroke-width: 6.63px;
      }

      .cls-22, .cls-27 {
        stroke: #633;
      }

      .cls-23, .cls-45, .cls-46, .cls-30, .cls-31, .cls-34, .cls-36, .cls-37, .cls-38, .cls-17, .cls-42 {
        stroke: #fff;
      }

      .cls-23, .cls-32 {
        stroke-width: 6.67px;
      }

      .cls-24 {
        stroke-width: 6.68px;
      }

      .cls-24, .cls-43 {
        stroke: #4d4d4d;
      }

      .cls-45 {
        stroke-width: 24px;
      }

      .cls-45, .cls-46 {
        fill: #333;
      }

      .cls-25, .cls-38 {
        stroke-width: 6.85px;
      }

      .cls-26, .cls-35 {
        stroke: #369;
      }

      .cls-28, .cls-44 {
        stroke: #fc0;
      }

      .cls-29 {
        stroke-width: 6.71px;
      }

      .cls-46 {
        stroke-width: 13.51px;
      }

      .cls-4 {
        fill: #633;
      }

      .cls-30 {
        stroke-width: 6.37px;
      }

      .cls-5 {
        fill: #fc0;
      }

      .cls-6 {
        fill: #369;
      }

      .cls-31 {
        stroke-width: 6.43px;
      }

      .cls-7 {
        fill: #c90;
      }

      .cls-33 {
        stroke-width: 6.66px;
      }

      .cls-34 {
        stroke-width: 11.07px;
      }

      .cls-37 {
        stroke-width: 11.59px;
      }

      .cls-8 {
        fill: #0ac;
      }

      .cls-9 {
        fill: #ff8300;
      }

      .cls-17 {
        stroke-width: 20px;
      }

      .cls-10 {
        fill: #c09;
      }

      .cls-11 {
        fill: #9c3;
      }

      .cls-12 {
        fill: #c03;
      }

      .cls-13 {
        fill: #099;
      }

      .cls-14 {
        fill: #f9c;
      }

      .cls-15 {
        fill: #393;
      }

      .cls-16 {
        fill: #fff;
      }
    </style>
  </defs>
  <g id="Icons_los" data-name="Icons los">
    <rect class="cls-9" x="70.29" y="70.29" width="339.41" height="339.41" transform="translate(-99.41 240) rotate(-45)"/>
    <g id="Dieren" class="cls-18">
      <line class="cls-43" x1="153.91" y1="182.94" x2="153.91" y2="340"/>
      <line class="cls-43" x1="180.64" y1="182.94" x2="180.64" y2="340"/>
      <line class="cls-43" x1="246.07" y1="182.94" x2="246.07" y2="340"/>
      <line class="cls-43" x1="273.29" y1="182.94" x2="273.29" y2="340"/>
      <circle class="cls-16" cx="214.24" cy="194.09" r="54.09"/>
      <circle class="cls-16" cx="214.24" cy="248.17" r="54.09"/>
      <circle class="cls-16" cx="271.27" cy="195.83" r="44.13"/>
      <circle class="cls-16" cx="271.27" cy="240" r="44.13"/>
      <circle class="cls-16" cx="148.23" cy="195.83" r="44.13"/>
      <circle class="cls-16" cx="148.23" cy="239.96" r="44.13"/>
      <g>
        <path class="cls-3" d="M262.11,182.94c.05,16,13.04,28.96,29.06,28.96v-28.96h-29.06Z"/>
        <path class="cls-3" d="M377.89,182.94c-.05,16-13.04,28.96-29.06,28.96v-28.96h29.06Z"/>
        <path class="cls-3" d="M320,269.43c-15.92,0-28.83-12.91-28.83-28.83v-57.66h57.66v57.66c0,15.92-12.91,28.83-28.83,28.83Z"/>
      </g>
    </g>
    <path id="Werelderfgoed" class="cls-17" d="M354,240.62c0-62.96-51.04-114-114-114s-114,51.04-114,114c0,57.03,41.88,104.24,96.55,112.64l.27-51.38-62.97-62.04,80.04-80,79.96,79.92-62.92,61.92-.27,51.7c55.06-8.07,97.34-55.46,97.34-112.76Z"/>
    <polygon id="Kerken" class="cls-1" points="320 289 303.89 225 192 225 192 161 176 97 160 161 160 353 320 353 320 289 320 289"/>
    <g id="Hollandse_Waterlinies" data-name="Hollandse Waterlinies" class="cls-18">
      <path class="cls-16" d="M391.29,210.21v81.83h-124.57v-57.04h-.1c-17.1-6.57-36.14-6.57-53.24,0-.03.01-.07.02-.1.04v57h-124.57v-81.83h302.58ZM164.31,236.39c-7.09-2.72-14.99-2.72-22.09,0-.01,0-.03,0-.04.01v28.57h22.17v-28.58h-.04ZM337.77,236.39c-7.09-2.72-14.99-2.72-22.09,0-.01,0-.03,0-.04.01v28.57h22.17v-28.58h-.04Z"/>
      <path class="cls-16" d="M240,164.04c-26.38,0-49.33,14.6-61.28,36.15h122.55c-11.94-21.55-34.89-36.15-61.28-36.15Z"/>
      <line class="cls-36" x1="122.97" y1="186.74" x2="213.58" y2="186.74"/>
    </g>
    <g id="Beemsterkleuren">
      <path class="cls-26" d="M151.66,234.43c34.22,0,34.22,12.58,68.44,12.58s34.23-12.58,68.45-12.58,34.23,12.58,68.45,12.58"/>
      <path class="cls-44" d="M151.66,209.46c34.22,0,34.22,12.58,68.44,12.58s34.23-12.58,68.45-12.58,34.23,12.58,68.45,12.58"/>
      <path class="cls-41" d="M151.66,184.48c34.22,0,34.22,12.58,68.44,12.58s34.23-12.58,68.45-12.58,34.23,12.58,68.45,12.58"/>
      <path class="cls-19" d="M151.66,160.08c34.22,0,34.22,12.58,68.44,12.58s34.23-12.58,68.45-12.58,34.23,12.58,68.45,12.58"/>
      <line class="cls-37" x1="145.86" y1="147.59" x2="145.86" y2="337.59"/>
    </g>
    <g id="Dorpen" class="cls-18">
      <circle class="cls-5" cx="240" cy="223.28" r="80"/>
      <polygon class="cls-3" points="384.73 261.7 362.86 231.3 309 231.3 292.06 254.85 283.03 219 209.36 219 209.36 176.86 198.82 134.72 188.29 176.86 188.29 269.87 145.41 205.55 95.27 280.76 95.27 303.28 188.29 303.28 195.55 303.28 287.13 303.28 293.64 303.28 384.73 303.28 384.73 261.7 384.73 261.7"/>
    </g>
    <g id="Wegen_dijken_bruggen" data-name="Wegen, dijken, bruggen" class="cls-18">
      <circle class="cls-11" cx="323.47" cy="177.1" r="30"/>
      <line class="cls-20" x1="323.47" y1="162.31" x2="323.47" y2="231.07"/>
      <circle class="cls-11" cx="240" cy="177.1" r="30"/>
      <line class="cls-20" x1="240" y1="164.16" x2="240" y2="232.93"/>
      <circle class="cls-11" cx="153.77" cy="177.1" r="30"/>
      <line class="cls-20" x1="153.77" y1="164.16" x2="153.77" y2="232.93"/>
      <polygon class="cls-11" points="329.79 230.82 107.72 230.82 91.65 307.74 329.79 230.82"/>
      <polygon class="cls-11" points="135.93 307.74 386.36 307.74 374.07 230.82 135.93 307.74"/>
    </g>
    <g id="Boerderijen" class="cls-18">
      <rect class="cls-11" x="120" y="272" width="240" height="48"/>
      <polygon class="cls-9" points="360 261.34 240 96.95 120 261.34 203.94 261.34 203.94 221.37 203.94 221.21 239.94 201.97 275.94 220.28 275.94 261.34 360 261.34"/>
    </g>
    <g id="Waterbeheer" class="cls-18">
      <polygon class="cls-16" points="262.74 163.52 191.58 201.55 191.58 201.86 191.58 280.87 333.9 280.87 333.9 199.71 262.74 163.52"/>
      <circle class="cls-11" cx="377.7" cy="229.41" r="28.77"/>
      <line class="cls-20" x1="377.7" y1="220.44" x2="377.7" y2="280.87"/>
      <path class="cls-42" d="M80,243.16c16.45,0,16.45,6.05,32.89,6.05s16.45-6.05,32.89-6.05,16.45,6.05,32.89,6.05"/>
      <path class="cls-42" d="M80,268.81c16.45,0,16.45,6.05,32.89,6.05s16.45-6.05,32.89-6.05,16.45,6.05,32.89,6.05"/>
    </g>
    <g id="Streekproducten" class="cls-18">
      <path class="cls-39" d="M303.16,363.62c-20.21-37.08-7.33-83.69,29.35-105.03v-.12c-41.03-10.84-83.08,13.01-95.02,53.52-.14.56-.26,1.13-.41,1.69"/>
      <path class="cls-15" d="M338.38,261.97c.26.26.51.53.76.8,17.27,16.44,44.56,16.22,61.56-.66-17.2-17.2-45.06-17.24-62.32-.14Z"/>
      <path class="cls-15" d="M338.37,261.98c.26-.26.53-.51.8-.76,16.44-17.27,16.22-44.56-.66-61.56-17.2,17.2-17.24,45.06-.14,62.32Z"/>
      <path class="cls-39" d="M240.07,201.7c-24.57-45.09-8.91-101.75,35.68-127.7"/>
      <path class="cls-16" d="M312.12,158.61c7.14,12.37,2.9,28.19-9.47,35.33-12.17,7.03-28.22,2.84-34.98-8.87-11.79-20.43-12.95-74.14-12.95-74.14,0,0,46.36,28.57,57.39,47.68Z"/>
      <path class="cls-16" d="M168.19,158.61c-7.14,12.37-2.9,28.19,9.47,35.33,12.17,7.03,28.22,2.84,34.98-8.87,11.79-20.43,12.95-74.14,12.95-74.14,0,0-46.36,28.57-57.39,47.68Z"/>
      <path class="cls-16" d="M266.01,180.91c0,14.28-11.58,25.86-25.86,25.86s-25.85-11.65-25.85-25.17c0-23.59,25.85-70.68,25.85-70.68,0,0,25.86,47.93,25.86,69.99Z"/>
      <circle class="cls-12" cx="237.2" cy="339.8" r="28"/>
      <circle class="cls-12" cx="300.51" cy="339.8" r="28"/>
      <path class="cls-5" d="M100.38,230.86c0,41.08,16.65,78.27,43.57,105.2l105.2-105.2H100.38Z"/>
    </g>
    <g id="Bijzondere_gebouwen" data-name="Bijzondere gebouwen" class="cls-18">
      <rect class="cls-13" x="178.43" y="320" width="123.08" height="36.92"/>
      <polygon class="cls-4" points="240.68 150.69 207.13 163.16 178.46 312.31 301.54 312.31 274.45 162.21 240.68 150.69"/>
      <line class="cls-45" x1="160" y1="280" x2="320" y2="120"/>
      <line class="cls-45" x1="320" y1="280" x2="160" y2="120"/>
    </g>
    <g id="Historische_figuren" data-name="Historische figuren" class="cls-18">
      <path class="cls-4" d="M190,213.05c0-9.62,7.8-17.41,17.41-17.41s17.41,7.8,17.41,17.41h-34.82Z"/>
      <path class="cls-4" d="M254.97,213.05c0-9.62,7.8-17.41,17.41-17.41s17.41,7.8,17.41,17.41h-34.82Z"/>
      <path class="cls-16" d="M214.56,243.23c9.62-2.7,19.6,2.92,22.3,12.53,2.65,9.46-2.97,19.61-12.07,22.16-15.88,4.45-52.48-4.07-52.48-4.07,0,0,27.39-26.46,42.25-30.63Z"/>
      <path class="cls-16" d="M265.91,243.23c-9.62-2.7-19.6,2.92-22.3,12.53-2.65,9.46,2.97,19.61,12.07,22.16,15.88,4.45,52.48-4.07,52.48-4.07,0,0-27.39-26.46-42.25-30.63Z"/>
      <path class="cls-16" d="M275.3,314.13c0-19.56-15.86-35.42-35.42-35.42s-35.41,15.96-35.41,34.48c0,32.31,35.41,96.82,35.41,96.82,0,0,35.42-65.65,35.42-95.87Z"/>
      <rect class="cls-4" x="203.22" y="80" width="69.03" height="89"/>
      <path class="cls-27" d="M301.01,146.88c-34.95,34.95-91.61,34.95-126.56,0"/>
    </g>
    <g id="Bijzondere_tuinen" data-name="Bijzondere tuinen" class="cls-18">
      <path class="cls-11" d="M240.29,317c.01.53.04,1.05.04,1.58,39.16-.18,70.86-31.92,70.97-71.1-38.67.14-70.06,31.05-71.01,69.52Z"/>
      <path class="cls-11" d="M240,318.59c.09,0,.17,0,.25,0,0-.53.03-1.06.04-1.58-.95-38.56-32.48-69.52-71.27-69.52-.11,0-.22,0-.33,0,.11,39.29,31.99,71.11,71.31,71.11Z"/>
      <path class="cls-11" d="M239.92,378.42c.01.53.04,1.05.04,1.58,39.16-.18,70.86-31.92,70.97-71.1-38.67.14-70.06,31.05-71.01,69.52Z"/>
      <path class="cls-11" d="M240,380c.09,0,.17,0,.25,0,0-.53.03-1.06.04-1.58-.95-38.56-32.48-69.52-71.27-69.52-.11,0-.22,0-.33,0,.11,39.29,31.99,71.11,71.31,71.11Z"/>
      <path class="cls-14" d="M261.19,121.2c0-11.71-9.49-21.2-21.2-21.2s-21.19,9.55-21.19,20.63c0,19.33,21.19,57.94,21.19,57.94,0,0,21.2-39.28,21.2-57.37Z"/>
      <path class="cls-14" d="M218.8,235.94c0,11.71,9.49,21.2,21.2,21.2,11.52,0,21.19-9.55,21.19-20.63,0-19.33-21.19-57.94-21.19-57.94,0,0-21.2,39.28-21.2,57.37Z"/>
      <path class="cls-14" d="M200.91,131.53c-10.14-5.85-23.1-2.38-28.96,7.76-5.76,9.98-2.32,23.13,7.27,28.67,16.74,9.67,60.77,10.62,60.77,10.62,0,0-23.42-38-39.09-47.04Z"/>
      <path class="cls-14" d="M279.09,225.61c10.14,5.85,23.1,2.38,28.96-7.76,5.76-9.98,2.32-23.13-7.27-28.67-16.74-9.67-60.77-10.62-60.77-10.62,0,0,23.42,38,39.09,47.04Z"/>
      <path class="cls-14" d="M179.72,188.9c-10.14,5.85-13.61,18.82-7.76,28.96,5.76,9.98,18.87,13.58,28.46,8.04,16.74-9.67,39.58-47.32,39.58-47.32,0,0-44.62,1.28-60.28,10.33Z"/>
      <path class="cls-14" d="M300.28,168.24c10.14-5.85,13.61-18.82,7.76-28.96-5.76-9.98-18.87-13.58-28.46-8.04-16.74,9.67-39.58,47.32-39.58,47.32,0,0,44.62-1.28,60.28-10.33Z"/>
    </g>
    <g id="Visit_Beemster_logo" data-name="Visit Beemster logo" class="cls-18">
      <path class="cls-11" d="M248.15,360h-68.3c-13.39,0-24.28-10.82-24.28-24.12v-191.77c0-13.52,10.59-24.12,24.12-24.12h67.84c37.53,0,69.24,31.28,69.24,68.3,0,15.59-5.73,31.71-15.82,44.78,14.98,13.7,23.5,32.86,23.5,53.15,0,41.37-33.51,73.78-76.29,73.78ZM253.08,163.24l-48.24,3.41,3.4,48.24,48.25-3.41-3.41-48.24Z"/>
      <path class="cls-5" d="M227.6,261.4l-.54-7.53,1.83-.13.1,1.43c.07,1.07.6,2.08,1.49,2.84,1.04.91,2.44,1.36,3.89,1.27,1.16-.09,2.2-.53,2.92-1.25.74-.74,1.09-1.7,1.01-2.78-.18-2.47-2.48-2.93-5.15-3.47-2.94-.59-6.27-1.26-6.55-5.15-.1-1.35.39-2.64,1.36-3.62.99-1,2.43-1.61,4.06-1.73,1.81-.16,3.54.41,4.77,1.47l-.11-1.5,1.8-.13.54,7.43-1.8.13-.18-2.47c-.12-1.66-2.22-3.04-4.52-3.04-.14,0-.28,0-.42.02-2.15.16-3.63,1.54-3.51,3.3.17,2.35,2.42,2.79,5.03,3.29,3.04.59,6.49,1.25,6.79,5.4.1,1.4-.35,2.76-1.28,3.83-1.09,1.27-2.73,2.03-4.59,2.17-2.02.13-4-.57-5.24-1.86l.14,1.95-1.83.13Z"/>
      <path class="cls-5" d="M243.71,260.28l-.12-1.8,3.24-.23-1.13-15.8-3.25.23-.13-1.8,8.53-.61.13,1.8-3.17.23,1.13,15.8,3.18-.23.12,1.8-8.52.61Z"/>
      <path class="cls-5" d="M258.71,259.19l-.13-1.8,3.27-.24-1.14-15.8-4.89.35.43,6.06-1.82.13-.57-7.85,15.54-1.12.57,7.85-1.83.13-.44-6.05-4.89.35,1.14,15.8,3.18-.23.13,1.8-8.54.62Z"/>
      <polygon class="cls-5" points="224.13 259.84 220.96 260.07 219.83 244.26 223 244.04 222.87 242.24 214.93 242.82 214.93 242.82 206.4 243.43 206.53 245.23 209.73 245 205.44 259.87 198.86 245.78 201.91 245.56 201.78 243.76 193.85 244.34 193.97 246.13 196.69 245.94 204.64 263.07 204.72 263.25 206.41 263.12 211.65 244.86 214.47 244.65 214.48 244.66 217.73 244.42 218.86 260.22 215.61 260.46 215.74 262.26 224.27 261.64 224.13 259.84"/>
      <path class="cls-5" d="M198.31,293.36l-.12-1.8,3.22-.23-1.14-15.8-3.23.23-.12-1.8,8.6-.62c2.05-.15,3.66.29,4.76,1.29,1.11,1.02,1.42,2.37,1.49,3.33.13,1.88-.57,3.29-2.08,4.22,2.24.65,3.51,2.17,3.68,4.4.2,2.74-1.36,5.79-6.31,6.15l-8.75.63ZM202.98,283.76l.53,7.42,3.34-.24c1.54-.11,2.75-.59,3.51-1.38.67-.7.99-1.64.91-2.71-.17-2.36-1.97-3.55-5.1-3.32l-3.2.23ZM202.37,275.37l.47,6.59,2.89-.21c2.53-.18,4.07-1.6,3.93-3.61-.05-.73-.48-3.01-3.66-3.01-.17,0-.34,0-.53.02l-3.11.22Z"/>
      <polygon class="cls-5" points="252.58 282.02 250.76 282.16 251.16 287.74 241.85 288.41 241.33 281.19 246.14 280.84 246.44 284.92 248.19 284.79 247.48 274.95 245.73 275.07 246.01 279.04 241.2 279.39 240.71 272.61 250.02 271.94 250.42 277.5 252.25 277.37 251.72 270.01 235.19 271.2 235.3 273 238.61 272.76 239.75 288.56 236.45 288.8 236.57 290.6 253.11 289.41 252.58 282.02"/>
      <polygon class="cls-5" points="232.37 283.48 230.54 283.61 230.95 289.2 221.64 289.87 221.12 282.64 225.92 282.29 226.22 286.37 227.97 286.25 227.26 276.4 225.51 276.52 225.79 280.5 220.99 280.84 220.49 274.07 229.81 273.4 230.21 278.95 232.04 278.82 231.5 271.46 214.97 272.66 215.1 274.46 218.39 274.22 219.53 290.02 216.24 290.26 216.36 292.05 232.9 290.87 232.37 283.48"/>
      <path class="cls-5" d="M257.03,289.12l-.13-1.8,3.25-.23-1.14-15.8-3.24.23-.13-1.8,6.09-.44.08.16,6.85,13.68c.16.29.35.71.53,1.16.07-.33.17-.66.28-1l4.88-14.92,6.17-.44.13,1.8-3.2.22,1.14,15.81,3.19-.23.13,1.8-8.49.62-.14-1.8,3.22-.23-1.09-15.2-5.73,17.49-.68.05-.08-.17-8.01-16.33,1.1,15.2,3.19-.23.13,1.8-8.28.6Z"/>
      <path class="cls-5" d="M222.14,321.54l-.13-1.8,3.26-.24-1.14-15.8-4.89.36.43,6.05-1.82.13-.57-7.85,15.53-1.12.57,7.85-1.83.13-.43-6.06-4.89.36,1.14,15.8,3.17-.23.14,1.8-8.54.62Z"/>
      <path class="cls-5" d="M202.86,322.95l-.54-7.53,1.82-.13.1,1.42c.18,2.42,2.64,4.28,5.38,4.11,2.43-.17,4.08-1.87,3.93-4.03-.18-2.47-2.48-2.93-5.15-3.47-2.94-.59-6.27-1.25-6.55-5.15-.1-1.35.39-2.64,1.36-3.62.99-1,2.43-1.61,4.05-1.73,1.8-.13,3.56.42,4.77,1.48l-.11-1.51,1.8-.13.56,7.73-1.8.13-.2-2.76c-.06-.83-.63-1.64-1.55-2.22-.95-.6-2.18-.91-3.39-.8-1.18.08-2.18.54-2.82,1.28-.5.58-.73,1.27-.68,2.01.17,2.35,2.42,2.79,5.03,3.29,3.04.59,6.49,1.25,6.79,5.4.23,3.16-2.3,5.74-5.87,6-2.06.12-4-.58-5.24-1.87l.13,1.96-1.82.13Z"/>
      <polygon class="cls-5" points="253.42 311.87 251.59 311.99 252 317.58 242.69 318.25 242.16 311.03 246.98 310.68 247.27 314.76 249.02 314.63 248.31 304.78 246.56 304.91 246.85 308.88 242.04 309.23 241.55 302.45 250.86 301.78 251.26 307.34 253.09 307.21 252.55 299.85 236.01 301.04 236.15 302.84 239.45 302.6 240.58 318.41 237.29 318.64 237.42 320.44 253.95 319.25 253.42 311.87"/>
      <path class="cls-5" d="M257.53,318.98l-.12-1.8,3.28-.24-1.14-15.8-3.23.23-.13-1.8,8.74-.63c5.83-.42,6.97,3.06,7.12,5.18.17,2.25-.88,3.93-3.04,4.9.23.14.42.29.56.45.89.93,1.4,2.39,1.51,4.35l.05.66c.04.75.21,1.26.48,1.5.16.14.38.2.66.17.47-.03.74-.2.88-.53.14-.32.28-1.01.17-2.52l-.03-.44h0s-.26-3.65-.26-3.65l1.89-.13.26,3.64h0s.12,1.61.12,1.61c.05,1.08-.17,1.98-.66,2.68-.53.75-1.27,1.16-2.22,1.23h-.26c-.87,0-1.57-.3-2.09-.91-.53-.63-.82-1.54-.91-2.77l-.05-.75c-.11-1.58-.48-2.65-1.07-3.1-.46-.35-1.33-.52-2.56-.53-.01,0-.2.01-.25.02l-2.9.21.47,6.59,3.19-.23.12,1.8-8.57.61ZM261.65,300.99l.54,7.42,3.19-.23c3.12-.23,4.74-1.65,4.57-4.02-.18-2.45-1.91-3.64-4.97-3.41l-3.33.24Z"/>
    </g>
    <g id="Beemster_Vanzelf_logo" data-name="Beemster Vanzelf logo" class="cls-18">
      <g>
        <path class="cls-6" d="M173.8,278.4h7.87c3.92,0,6.3,2.1,6.3,5.92,0,1.94-.92,3.47-2.36,4.2,2.2.86,3.5,2.71,3.5,5.54,0,4.17-2.71,6.62-7.2,6.62h-8.12v-22.29ZM181.51,287.28c2.01,0,3.03-.86,3.03-2.8s-1.02-2.8-3.09-2.8h-4.11v5.6h4.17ZM181.54,297.41c2.77,0,4.04-1.11,4.04-3.41s-1.27-3.44-4.04-3.44h-4.2v6.85h4.2Z"/>
        <path class="cls-6" d="M206.98,293.55h-11.43c.29,2.8,1.85,4.46,4.24,4.46,1.94,0,3.15-.86,4.2-2.77l2.77,1.08c-1.4,3.09-3.6,4.62-7.13,4.62-4.94,0-7.51-4.01-7.51-8.28s2.58-8.28,7.51-8.28,7.36,3.82,7.36,7.77v1.4ZM203.55,290.82c-.38-2.07-1.66-3.5-3.92-3.5-1.91,0-3.41,1.24-3.92,3.5h7.83Z"/>
        <path class="cls-6" d="M224.66,293.55h-11.43c.29,2.8,1.85,4.46,4.23,4.46,1.94,0,3.15-.86,4.2-2.77l2.77,1.08c-1.4,3.09-3.6,4.62-7.13,4.62-4.94,0-7.51-4.01-7.51-8.28s2.58-8.28,7.51-8.28,7.36,3.82,7.36,7.77v1.4ZM221.22,290.82c-.38-2.07-1.66-3.5-3.92-3.5-1.91,0-3.41,1.24-3.92,3.5h7.83Z"/>
        <path class="cls-6" d="M228.35,284.64h3.38v2.8c1.21-2.04,2.8-3.06,4.74-3.06,2.2,0,3.82,1.11,4.46,3.38,1.15-2.07,2.99-3.38,5-3.38,3.06,0,4.71,1.82,4.71,5.03v11.27h-3.34v-10.73c0-1.82-.73-2.64-2.26-2.64-2.17,0-3.85,2.45-3.85,6.88v6.5h-3.34v-10.73c0-1.82-.73-2.64-2.26-2.64-2.26,0-3.85,2.58-3.85,7.13v6.24h-3.38v-16.05Z"/>
        <path class="cls-6" d="M256.6,295.15c.67,1.91,1.85,2.87,3.47,2.87,1.24,0,2.13-.7,2.13-1.94,0-1.11-1.18-1.78-3.38-2.64-2.52-.92-3.88-2.26-3.88-4.65s2.1-4.39,4.9-4.39c2.17,0,3.85.89,4.84,2.58l-2.07,1.88c-.67-1.02-1.59-1.53-2.74-1.53-1.02,0-1.78.6-1.78,1.53s.8,1.53,3.38,2.52c2.61.92,3.92,2.45,3.92,4.52,0,3.09-2.13,5.06-5.32,5.06s-5.51-1.94-6.18-4.36l2.71-1.43Z"/>
        <path class="cls-6" d="M269.27,287.57h-2.58v-2.93h2.58v-4.36l3.38-2.13v6.5h4.27v2.93h-4.27v7.83c0,1.88.73,2.61,2.13,2.61.64,0,1.21-.13,1.69-.41l.8,2.77c-.76.38-1.66.57-2.64.57-3.34,0-5.35-1.88-5.35-5.6v-7.77Z"/>
        <path class="cls-6" d="M293.41,293.55h-11.43c.29,2.8,1.85,4.46,4.24,4.46,1.94,0,3.15-.86,4.2-2.77l2.77,1.08c-1.4,3.09-3.6,4.62-7.13,4.62-4.94,0-7.51-4.01-7.51-8.28s2.58-8.28,7.51-8.28,7.36,3.82,7.36,7.77v1.4ZM289.97,290.82c-.38-2.07-1.66-3.5-3.92-3.5-1.91,0-3.41,1.24-3.92,3.5h7.83Z"/>
        <path class="cls-6" d="M297.1,284.64h3.38v2.68c1.05-1.91,2.8-2.93,4.74-2.93.61,0,1.31.13,2.07.38l-.64,3.12c-.54-.32-1.15-.48-1.85-.48-2.52,0-4.33,2.42-4.33,7.42v5.86h-3.38v-16.05Z"/>
        <path class="cls-6" d="M203.8,308.02h3.85l5.51,17.32,5.54-17.32h3.85l-7.58,22.29h-3.6l-7.58-22.29Z"/>
        <path class="cls-6" d="M224.5,316.3c1.24-1.53,2.96-2.29,5.19-2.29,1.91,0,3.57.8,4.46,1.94v-1.69h3.38v16.05h-3.38v-1.85c-.64,1.11-2.39,2.1-4.46,2.1-2.23,0-3.95-.76-5.19-2.26-1.24-1.53-1.85-3.53-1.85-6.02s.6-4.49,1.85-5.99ZM230.33,316.93c-2.45,0-4.17,2.07-4.17,5.35s1.72,5.35,4.17,5.35,4.14-2.07,4.14-5.35-1.62-5.35-4.14-5.35Z"/>
        <path class="cls-6" d="M242.11,314.26h3.38v2.8c1.18-1.88,3.06-3.06,5.13-3.06,2.96,0,4.94,1.78,4.94,4.97v11.34h-3.34v-10.44c0-1.94-.96-2.93-2.61-2.93-2.23,0-4.11,2.55-4.11,6.78v6.59h-3.38v-16.05Z"/>
        <path class="cls-6" d="M258.86,328.94l7.32-11.75h-6.85v-2.93h11.05v1.4l-7.23,11.72h7.64v2.93h-11.94v-1.37Z"/>
        <path class="cls-6" d="M287.74,323.18h-11.43c.29,2.8,1.85,4.46,4.23,4.46,1.94,0,3.15-.86,4.2-2.77l2.77,1.08c-1.4,3.09-3.6,4.62-7.13,4.62-4.94,0-7.51-4.01-7.51-8.28s2.58-8.28,7.51-8.28,7.36,3.82,7.36,7.77v1.4ZM284.3,320.44c-.38-2.07-1.66-3.5-3.92-3.5-1.91,0-3.41,1.24-3.92,3.5h7.83Z"/>
        <path class="cls-6" d="M291.43,307.76h3.38v22.54h-3.38v-22.54Z"/>
        <path class="cls-6" d="M299.61,317.19h-2.2v-2.93h2.2v-.89c0-3.73,2.01-5.6,5.35-5.6,1.11,0,2.01.19,2.68.57l-.73,2.77c-.6-.29-1.21-.41-1.81-.41-1.43,0-2.13.8-2.13,2.39v1.18h3.53v2.93h-3.53v13.12h-3.34v-13.12Z"/>
        <path class="cls-6" d="M180.14,354.39c.67,1.91,1.85,2.87,3.47,2.87,1.24,0,2.13-.7,2.13-1.94,0-1.11-1.18-1.78-3.38-2.64-2.52-.92-3.88-2.26-3.88-4.65s2.1-4.39,4.9-4.39c2.17,0,3.85.89,4.84,2.58l-2.07,1.88c-.67-1.02-1.59-1.53-2.74-1.53-1.02,0-1.78.6-1.78,1.53s.8,1.53,3.38,2.52c2.61.92,3.92,2.45,3.92,4.52,0,3.09-2.13,5.06-5.32,5.06s-5.51-1.94-6.18-4.36l2.71-1.43Z"/>
        <path class="cls-6" d="M192.15,343.88h3.38v1.85c.64-1.11,2.32-2.1,4.23-2.1,4.68,0,7.26,3.28,7.26,8.28s-2.58,8.28-7.26,8.28c-1.66,0-3.44-.83-4.23-1.97v8.22h-3.38v-22.54ZM199.34,346.56c-2.45,0-4.14,2.07-4.14,5.35s1.69,5.35,4.14,5.35,4.17-2.07,4.17-5.35-1.66-5.35-4.17-5.35Z"/>
        <path class="cls-6" d="M210.71,343.88h3.38v2.68c1.05-1.91,2.8-2.93,4.74-2.93.61,0,1.31.13,2.07.38l-.64,3.12c-.54-.32-1.15-.48-1.85-.48-2.52,0-4.33,2.42-4.33,7.42v5.86h-3.38v-16.05Z"/>
        <path class="cls-6" d="M236.82,352.8h-11.43c.29,2.8,1.85,4.46,4.24,4.46,1.94,0,3.15-.86,4.2-2.77l2.77,1.08c-1.4,3.09-3.6,4.62-7.13,4.62-4.94,0-7.51-4.01-7.51-8.28s2.58-8.28,7.51-8.28,7.36,3.82,7.36,7.77v1.4ZM233.38,350.06c-.38-2.07-1.66-3.5-3.92-3.5-1.91,0-3.41,1.24-3.92,3.5h7.83Z"/>
        <path class="cls-6" d="M240.52,337.39h3.38v13.02l5.67-6.53h4.14l-6.56,7.39,7.04,8.66h-4.14l-6.15-7.83v7.83h-3.38v-22.54Z"/>
        <path class="cls-6" d="M269.75,352.8h-11.43c.29,2.8,1.85,4.46,4.24,4.46,1.94,0,3.15-.86,4.2-2.77l2.77,1.08c-1.4,3.09-3.6,4.62-7.13,4.62-4.94,0-7.51-4.01-7.51-8.28s2.58-8.28,7.51-8.28,7.36,3.82,7.36,7.77v1.4ZM266.31,350.06c-.38-2.07-1.66-3.5-3.92-3.5-1.91,0-3.41,1.24-3.92,3.5h7.83Z"/>
        <path class="cls-6" d="M273.44,343.88h3.38v2.8c1.18-1.88,3.06-3.06,5.13-3.06,2.96,0,4.94,1.78,4.94,4.97v11.34h-3.34v-10.44c0-1.94-.96-2.93-2.61-2.93-2.23,0-4.11,2.55-4.11,6.78v6.59h-3.38v-16.05Z"/>
        <path class="cls-6" d="M292.42,345.92c1.24-1.53,2.96-2.29,5.19-2.29,1.91,0,3.57.8,4.46,1.94v-8.18h3.38v22.54h-3.38v-1.85c-.64,1.11-2.39,2.1-4.46,2.1-2.23,0-3.95-.76-5.19-2.26-1.24-1.53-1.85-3.53-1.85-6.02s.6-4.49,1.85-5.99ZM298.25,346.56c-2.45,0-4.17,2.07-4.17,5.35s1.72,5.35,4.17,5.35,4.14-2.07,4.14-5.35-1.62-5.35-4.14-5.35Z"/>
      </g>
      <g>
        <polygon class="cls-15" points="172.36 173.32 172.36 226.64 199.02 226.64 199.02 253.3 212.35 226.64 225.68 226.64 225.68 173.32 172.36 173.32"/>
        <polygon class="cls-12" points="199.02 120 199.02 173.32 225.68 173.32 225.68 199.98 239.01 173.32 252.34 173.32 252.34 120 199.02 120"/>
        <polygon class="cls-5" points="252.34 146.77 252.34 200.09 279 200.09 279 226.75 292.33 200.09 305.66 200.09 305.66 146.77 252.34 146.77"/>
        <polygon class="cls-6" points="225.68 199.98 225.68 253.3 252.34 253.3 252.34 279.95 265.67 253.3 279 253.3 279 199.98 225.68 199.98"/>
      </g>
    </g>
    <g class="cls-18">
      <g id="BK_logo" data-name="BK logo">
        <path class="cls-6" d="M256.62,415.05l-33.54-20.04c-2.15-1.29-2.91-4.18-1.7-6.46l31.05-58.57c1.21-2.28,3.94-3.09,6.09-1.81l33.54,20.04c2.15,1.29,2.91,4.18,1.7,6.46l-31.05,58.57c-1.21,2.28-3.94,3.09-6.09,1.81Z"/>
        <path class="cls-5" d="M252.91,420.44l-40.53-11.03c-2.6-.71-4.17-3.52-3.5-6.28l17.09-70.79c.67-2.76,3.31-4.42,5.91-3.72l40.53,11.03c2.6.71,4.17,3.52,3.5,6.28l-17.09,70.79c-.67,2.76-3.31,4.42-5.91,3.72Z"/>
        <path class="cls-15" d="M249.97,412.66l-38.48.45c-2.47.03-4.49-2.07-4.52-4.69l-.69-67.21c-.03-2.62,1.95-4.77,4.42-4.8l38.48-.45c2.47-.03,4.49,2.07,4.52,4.69l.69,67.21c.03,2.62-1.95,4.77-4.42,4.8Z"/>
        <path class="cls-12" d="M245.45,412.55l-37.06,11.01c-2.38.71-4.84-.77-5.51-3.29l-17.05-64.73c-.66-2.52.72-5.14,3.1-5.85l37.06-11.01c2.38-.71,4.84.77,5.51,3.29l17.05,64.73c.66,2.52-.72,5.14-3.1,5.85Z"/>
      </g>
      <g>
        <path class="cls-12" d="M32.99,232.49l13.44-13.28c9.23-9.12,17.44-8.75,26.08-.01l2.24,2.27c5.76,5.83,7.58,11.23,5.21,16.77l.16.16c6.38-3.1,12.4-.73,18.32,5.26l4.8,4.86c8.64,8.74,8.67,18-.24,26.8l-14,13.84-56.01-56.66ZM68.18,243.31c3.32-3.28,3.9-6.74-.58-11.27l-3.12-3.16c-4-4.05-7.14-4.47-10.29-1.35l-4.29,4.24,14.8,14.98,3.48-3.44ZM95,267.21c3-2.96,3.25-5.94-.91-10.15l-4.88-4.94c-5.2-5.26-8.5-5.2-12.55-1.2l-3.97,3.92,17.2,17.4,5.1-5.04Z"/>
        <path class="cls-15" d="M79.49,190.83l28.88-18.23,6.08,9.63-18.29,11.54,11.24,17.81,14.53-9.17,6.08,9.63-14.53,9.17,13.06,20.69,18.29-11.54,6.08,9.63-28.88,18.23-42.53-67.38Z"/>
        <path class="cls-5" d="M128.76,162.78l32-11.93,3.98,10.67-20.27,7.56,7.36,19.73,16.11-6.01,3.98,10.67-16.11,6.01,8.55,22.93,20.26-7.56,3.98,10.67-32,11.93-27.85-74.66Z"/>
        <path class="cls-6" d="M185.47,144.09l17.55-1.82,14.22,56.66,2.31-58.37,17.55-1.82,8.2,79.25-11.78,1.22-6.21-60.01-3.07,60.97-10.42,1.08-15.5-59.05,6.21,60.01-10.87,1.12-8.2-79.25Z"/>
        <path class="cls-12" d="M254.02,200.38l.68-4.5,11.7,1.78-.82,5.4c-.85,5.63,1.31,8.03,5.25,8.63,3.94.6,6.83-1.03,7.72-6.89.99-6.53-1.09-10.99-8.12-19.31-8.97-10.69-11.47-17.74-10.1-26.75,1.88-12.38,9.39-18.61,21.43-16.78s16.91,9.94,15,22.54l-.5,3.26-11.7-1.78.62-4.05c.85-5.63-1.07-8.11-5.01-8.7s-6.63,1.18-7.45,6.58c-.87,5.74,1.33,10.22,8.35,18.54,8.97,10.69,11.37,17.61,9.88,27.4-1.95,12.83-9.57,19.04-21.72,17.19-12.15-1.85-17.14-9.97-15.22-22.57Z"/>
        <path class="cls-15" d="M327.48,166.11l-12.25-4.63,4.02-10.65,36.21,13.68-4.02,10.65-12.25-4.63-24.13,63.89-11.71-4.42,24.13-63.9Z"/>
        <path class="cls-5" d="M374.99,174.73l28.78,18.39-6.13,9.59-18.22-11.65-11.34,17.74,14.48,9.26-6.13,9.59-14.48-9.26-13.18,20.62,18.22,11.65-6.13,9.59-28.78-18.39,42.91-67.14Z"/>
        <path class="cls-6" d="M421.9,207.71l13.13,13.11c9.18,9.17,8.86,17.38.18,26.08l-3.46,3.46c-5.79,5.8-11.34,7.65-16.9,5.32l-.16.16c3.06,5.79.33,11.43-6.03,17.79l-9.89,9.91c-2.73,2.74-4.67,4.83-5.87,7.81l-9.02-9.01c.96-1.93,1.53-3.14,6.11-7.73l10.3-10.31c5.23-5.23,5.39-8.45,1.36-12.48l-3.06-3.06-24.13,24.16-8.86-8.85,56.31-56.38ZM409.85,243.93c3.3,3.3,6.76,3.86,11.27-.65l4.34-4.35c4.02-4.03,4.42-7.17,1.28-10.3l-4.03-4.02-16.09,16.11,3.22,3.22Z"/>
      </g>
      <g>
        <path class="cls-6" d="M132.94,317.19l2.04,7.24,11.38,12.28-6.14,5.69-36.22-39.08,6.14-5.69,15.57,16.81-7.87-23.95,6.25-5.79,5.98,21.13,30.35,17.85-6.42,5.95-21.07-12.44Z"/>
        <path class="cls-6" d="M139.98,272.87l7.24-3.55,21.77,35.78-14.73-39.23,8.2-4.02,21.98,35.68-14.94-39.13,6.49-3.18,18.59,50.22-9.36,4.59-19.6-31.17,12.62,34.58-9.98,4.89-28.3-45.46Z"/>
        <path class="cls-6" d="M219.56,289.31l-9.52,1.66.37,10.52-7.65,1.33-.61-53.98,11.17-1.95,17.7,51-8.25,1.44-3.22-10.02ZM217.27,282.37l-8.37-25.81.94,27.11,7.42-1.29Z"/>
        <path class="cls-6" d="M241.53,244.71l12.37.91c8.65.64,12.08,4.93,11.47,13.13l-.24,3.26c-.4,5.47-2.41,8.83-6.24,10.07v.15c4.07,1.6,5.15,5.65,4.7,11.64l-.69,9.34c-.19,2.58-.25,4.48.44,6.52l-8.5-.63c-.36-1.4-.6-2.26-.28-6.58l.71-9.72c.36-4.93-.96-6.63-4.76-6.91l-2.88-.21-1.68,22.77-8.35-.61,3.91-53.14ZM251.24,268.32c3.11.23,5.11-1,5.42-5.25l.3-4.1c.28-3.8-.89-5.56-3.85-5.78l-3.8-.28-1.12,15.18,3.04.22Z"/>
        <path class="cls-6" d="M290.75,260.01l-8.33-2.68,2.33-7.24,24.63,7.93-2.33,7.25-8.33-2.68-14,43.47-7.97-2.57,14-43.47Z"/>
        <path class="cls-6" d="M326.55,266.1l19.59,11.74-3.91,6.53-12.41-7.43-7.24,12.08,9.86,5.91-3.91,6.53-9.86-5.91-8.41,14.04,12.41,7.43-3.91,6.53-19.59-11.74,27.39-45.7Z"/>
        <path class="cls-6" d="M360.88,299.81l-6.3-6.07,5.28-5.48,18.64,17.96-5.28,5.48-6.3-6.07-31.69,32.89-6.03-5.81,31.69-32.89Z"/>
      </g>
    </g>
  </g>
  <g id="Home_desktop_" data-name="Home [desktop]">
    <rect class="cls-6" x="791.44" y="1382.05" width="188.24" height="188.24" transform="translate(-784.44 1058.56) rotate(-45)"/>
    <rect class="cls-6" x="644.01" y="1234.81" width="188.24" height="188.24" transform="translate(-723.51 911.19) rotate(-45)"/>
    <rect class="cls-6" x="1677.24" y="1382.56" width="188.23" height="188.24" transform="translate(-525.36 1684.97) rotate(-45)"/>
    <polygon class="cls-6" points="1180.86 1343.07 1313.96 1476.16 1180.86 1609.27 1047.75 1476.16 1180.86 1343.07"/>
    <rect class="cls-5" x="644.01" y="939.46" width="188.24" height="188.24" transform="translate(-514.66 824.66) rotate(-45)"/>
    <polygon class="cls-6" points="1476.11 1343.07 1609.21 1476.16 1476.11 1609.27 1343.01 1476.16 1476.11 1343.07"/>
    <rect class="cls-6" x="939.12" y="1234.81" width="188.23" height="188.24" transform="translate(-637.06 1119.81) rotate(-45)"/>
    <polygon class="cls-6" points="885.56 1048.11 1018.66 1181.2 885.55 1314.3 752.45 1181.2 885.56 1048.11"/>
    <rect class="cls-6" x="1234.37" y="1234.81" width="188.24" height="188.24" transform="translate(-550.59 1328.59) rotate(-45)"/>
    <rect class="cls-6" x="1086.74" y="1087.09" width="188.24" height="188.23" transform="translate(-489.37 1180.96) rotate(-45)"/>
    <rect class="cls-5" x="939.51" y="939.46" width="188.24" height="188.24" transform="translate(-428.11 1033.61) rotate(-45)"/>
    <polygon class="cls-6" points="1623.86 1195.32 1756.96 1328.41 1623.86 1461.51 1490.76 1328.41 1623.86 1195.32"/>
    <rect class="cls-6" x="1382.12" y="1087.06" width="188.24" height="188.24" transform="translate(-402.84 1389.79) rotate(-45)"/>
    <rect class="cls-5" x="1234.49" y="939.34" width="188.24" height="188.23" transform="translate(-341.62 1242.16) rotate(-45)"/>
    <rect class="cls-5" x="1087.26" y="791.71" width="188.24" height="188.24" transform="translate(-280.36 1094.81) rotate(-45)"/>
    <polygon class="cls-5" points="885.56 752.86 1018.66 885.95 885.56 1019.06 752.45 885.96 885.56 752.86"/>
    <rect class="cls-6" x="2563.15" y="1087.09" width="188.24" height="188.23" transform="translate(-56.94 2224.94) rotate(-45)"/>
    <rect class="cls-5" x="2711.15" y="939.34" width="188.23" height="188.24" transform="translate(90.84 2286.22) rotate(-45)"/>
    <polygon class="cls-5" points="2657.27 752.86 2790.37 885.96 2657.27 1019.06 2524.16 885.96 2657.27 752.86"/>
    <polygon class="cls-6" points="1771.53 1047.65 1904.64 1180.74 1771.54 1313.84 1638.43 1180.74 1771.53 1047.65"/>
    <rect class="cls-5" x="1382.17" y="791.67" width="188.24" height="188.23" transform="translate(-193.95 1303.33) rotate(-45)"/>
    <rect class="cls-5" x="1677.29" y="791.89" width="188.24" height="188.24" transform="translate(-107.68 1512.06) rotate(-45)"/>
    <polygon class="cls-5" points="2066.71 752.47 2199.81 885.56 2066.71 1018.67 1933.6 885.57 2066.71 752.47"/>
    <polygon class="cls-5" points="2214.34 900.48 2347.44 1033.57 2214.34 1166.68 2081.23 1033.57 2214.34 900.48"/>
    <rect class="cls-6" x="1972.49" y="1382.56" width="188.23" height="188.24" transform="translate(-438.88 1893.77) rotate(-45)"/>
    <polygon class="cls-6" points="2361.59 1343.58 2494.69 1476.67 2361.59 1609.77 2228.48 1476.67 2361.59 1343.58"/>
    <rect class="cls-6" x="2415.47" y="1234.71" width="188.24" height="188.24" transform="translate(-204.59 2163.72) rotate(-45)"/>
    <polygon class="cls-6" points="1918.93 1195.73 2052.03 1328.83 1918.93 1461.93 1785.82 1328.83 1918.93 1195.73"/>
    <polygon class="cls-6" points="2214.33 1195.73 2347.44 1328.84 2214.34 1461.93 2081.23 1328.84 2214.33 1195.73"/>
    <rect class="cls-6" x="2267.47" y="1087.09" width="188.24" height="188.23" transform="translate(-143.55 2015.86) rotate(-45)"/>
    <rect class="cls-5" x="2415.47" y="939.34" width="188.23" height="188.24" transform="translate(4.24 2077.15) rotate(-45)"/>
    <polygon class="cls-6" points="2066.61 1048.11 2199.71 1181.2 2066.61 1314.3 1933.5 1181.2 2066.61 1048.11"/>
    <polygon class="cls-5" points="2361.59 752.86 2494.69 885.96 2361.59 1019.06 2228.48 885.96 2361.59 752.86"/>
    <polygon class="cls-6" points="2657.27 1343.58 2790.37 1476.67 2657.26 1609.77 2524.16 1476.67 2657.27 1343.58"/>
    <rect class="cls-6" x="2711.15" y="1234.71" width="188.24" height="188.24" transform="translate(-117.99 2372.79) rotate(-45)"/>
    <rect class="cls-15" x="2711.15" y="643.96" width="188.24" height="188.23" transform="translate(299.76 2199.83) rotate(-45)"/>
    <rect class="cls-15" x="2563.15" y="496.59" width="188.24" height="188.24" transform="translate(360.62 2052.01) rotate(-45)"/>
    <rect class="cls-15" x="2415.47" y="643.96" width="188.24" height="188.23" transform="translate(213.16 1990.75) rotate(-45)"/>
    <polygon class="cls-15" points="1033.63 605.22 1166.73 738.33 1033.63 871.42 900.53 738.32 1033.63 605.22"/>
    <rect class="cls-15" x="791.73" y="496.59" width="188.24" height="188.23" transform="translate(-158.23 799.41) rotate(-45)"/>
    <rect class="cls-15" x="644.01" y="644.2" width="188.24" height="188.24" transform="translate(-305.88 738.17) rotate(-45)"/>
    <rect class="cls-15" x="2711.15" y="348.96" width="188.24" height="188.24" transform="translate(508.34 2113.4) rotate(-45)"/>
    <polygon class="cls-15" points="2657.27 162.36 2790.37 295.45 2657.27 428.56 2524.16 295.46 2657.27 162.36"/>
    <rect class="cls-15" x="2415.47" y="348.96" width="188.24" height="188.24" transform="translate(421.74 1904.32) rotate(-45)"/>
    <polygon class="cls-15" points="2361.59 162.36 2494.69 295.45 2361.59 428.56 2228.48 295.46 2361.59 162.36"/>
    <polygon class="cls-15" points="2066.68 162.36 2199.78 295.45 2066.67 428.56 1933.57 295.45 2066.68 162.36"/>
    <polygon class="cls-15" points="1476.16 162.79 1609.27 295.88 1476.16 428.99 1343.06 295.88 1476.16 162.79"/>
    <rect class="cls-15" x="1086.74" y="201.33" width="188.24" height="188.24" transform="translate(136.96 921.54) rotate(-45)"/>
    <rect class="cls-15" x="939.12" y="349.45" width="188.23" height="188.24" transform="translate(-11.02 860.54) rotate(-45)"/>
    <polygon class="cls-15" points="885.84 162.35 1018.95 295.45 885.85 428.55 752.75 295.45 885.84 162.35"/>
    <polygon class="cls-15" points="738.12 310.47 871.23 443.56 738.12 576.66 605.02 443.56 738.12 310.47"/>
    <rect class="cls-12" x="2414.92" y="53.71" width="188.23" height="188.24" transform="translate(630.37 1817.47) rotate(-45)"/>
    <polygon class="cls-12" points="1328.48 14.72 1461.59 147.81 1328.48 280.91 1195.38 147.81 1328.48 14.72"/>
    <rect class="cls-12" x="2120.22" y="53.71" width="188.24" height="188.24" transform="translate(544.02 1609.05) rotate(-45)"/>
    <rect class="cls-12" x="2267.47" y="-93.89" width="188.24" height="188.23" transform="translate(691.55 1669.98) rotate(-45)"/>
    <polygon class="cls-12" points="1918.98 14.73 2052.09 147.83 1918.98 280.92 1785.88 147.83 1918.98 14.73"/>
    <rect class="cls-12" x="1972.55" y="-93.89" width="188.24" height="188.23" transform="translate(605.16 1461.42) rotate(-45)"/>
    <rect class="cls-12" x="643.84" y="53.7" width="188.23" height="188.24" transform="translate(111.6 565.08) rotate(-45)"/>
    <polygon class="cls-12" points="1771.36 -132.89 1904.46 .2 1771.36 133.31 1638.25 .2 1771.36 -132.89"/>
    <polygon class="cls-12" points="1623.73 14.71 1756.84 147.82 1623.74 280.92 1490.63 147.82 1623.73 14.71"/>
    <rect class="cls-12" x="2710.6" y="53.71" width="188.23" height="188.24" transform="translate(716.97 2026.55) rotate(-45)"/>
    <rect class="cls-12" x="2563.14" y="-93.89" width="188.24" height="188.23" transform="translate(778.15 1879.05) rotate(-45)"/>
    <rect class="cls-12" x="1381.99" y="-93.91" width="188.23" height="188.24" transform="translate(432.21 1043.84) rotate(-45)"/>
    <rect class="cls-12" x="1086.74" y="-93.91" width="188.23" height="188.24" transform="translate(345.73 835.07) rotate(-45)"/>
    <rect class="cls-12" x="939.12" y="53.7" width="188.24" height="188.24" transform="translate(198.11 773.9) rotate(-45)"/>
    <rect class="cls-12" x="791.74" y="-93.91" width="188.23" height="188.24" transform="translate(259.32 626.46) rotate(-45)"/>
    <g id="Dieren-2" data-name="Dieren">
      <rect class="cls-12" x="1823.81" y="643.2" width="188.93" height="188.93" transform="translate(40.24 1572.48) rotate(-45)"/>
      <line class="cls-24" x1="1870.35" y1="705.91" x2="1870.35" y2="793.33"/>
      <line class="cls-24" x1="1885.23" y1="705.91" x2="1885.23" y2="793.33"/>
      <line class="cls-24" x1="1921.65" y1="705.91" x2="1921.65" y2="793.33"/>
      <line class="cls-24" x1="1936.81" y1="705.91" x2="1936.81" y2="793.33"/>
      <circle class="cls-16" cx="1903.94" cy="712.11" r="30.11"/>
      <circle class="cls-16" cx="1903.94" cy="742.22" r="30.11"/>
      <circle class="cls-16" cx="1935.68" cy="713.08" r="24.56"/>
      <circle class="cls-16" cx="1935.68" cy="737.67" r="24.56"/>
      <circle class="cls-16" cx="1867.2" cy="713.08" r="24.56"/>
      <circle class="cls-16" cx="1867.2" cy="737.64" r="24.56"/>
      <path class="cls-3" d="M1978.86,705.91h-48.27c.03,8.91,7.26,16.12,16.17,16.12v15.97c0,8.86,7.18,16.05,16.05,16.05s16.05-7.18,16.05-16.05v-15.97c8.92,0,16.14-7.21,16.17-16.12h-16.17Z"/>
    </g>
    <g>
      <rect class="cls-13" x="2120.22" y="643.53" width="188.24" height="188.24" transform="translate(126.97 1781.82) rotate(-45)"/>
      <g id="Boerderijen-2" data-name="Boerderijen">
        <rect class="cls-11" x="2147.79" y="755.39" width="133.1" height="26.62"/>
        <polygon class="cls-9" points="2280.89 749.48 2214.34 658.31 2147.79 749.48 2194.34 749.48 2194.34 727.31 2194.34 727.23 2214.3 716.56 2234.27 726.71 2234.27 749.48 2280.89 749.48"/>
      </g>
    </g>
    <g>
      <rect class="cls-5" x="1971.88" y="496.89" width="189.66" height="189.66" transform="translate(186.92 1634.69) rotate(-45)"/>
      <polygon id="Kerken-2" data-name="Kerken" class="cls-3" points="2111.41 619.1 2102.41 583.33 2039.89 583.33 2039.89 547.57 2030.94 511.81 2022 547.57 2022 654.86 2111.41 654.86 2111.41 619.1 2111.41 619.1"/>
    </g>
    <g>
      <rect class="cls-10" x="1382.18" y="496.53" width="188.21" height="188.21" transform="translate(14.76 1216.88) rotate(-45)"/>
      <g id="Dorpen-2" data-name="Dorpen">
        <circle class="cls-5" cx="1476.28" cy="581.36" r="44.36"/>
        <polygon class="cls-3" points="1556.54 602.66 1544.41 585.8 1514.54 585.8 1505.15 598.86 1500.14 578.98 1459.29 578.98 1459.29 555.62 1453.45 532.25 1447.61 555.62 1447.61 607.19 1423.83 571.52 1396.03 613.23 1396.03 625.72 1447.61 625.72 1451.64 625.72 1502.42 625.72 1506.03 625.72 1556.54 625.72 1556.54 602.66 1556.54 602.66"/>
      </g>
    </g>
    <g>
      <rect class="cls-11" x="1233.55" y="347.69" width="189.87" height="189.87" transform="translate(76.12 1069.02) rotate(-45)"/>
      <g id="Streekproducten-2" data-name="Streekproducten">
        <path class="cls-29" d="M1363.82,511.77c-11.3-20.74-4.1-46.81,16.42-58.75v-.07c-22.95-6.06-46.48,7.28-53.15,29.94-.08.31-.14.63-.23.94"/>
        <path class="cls-15" d="M1383.52,454.91c.15.15.28.3.43.45,9.66,9.19,24.93,9.07,34.44-.37-9.62-9.62-25.2-9.65-34.86-.08Z"/>
        <path class="cls-15" d="M1383.52,454.91c.15-.15.3-.28.45-.43,9.19-9.66,9.07-24.93-.37-34.44-9.62,9.62-9.65,25.2-.08,34.86Z"/>
        <path class="cls-29" d="M1328.52,421.2c-13.74-25.22-4.98-56.92,19.96-71.44"/>
        <path class="cls-16" d="M1368.83,397.09c4,6.92,1.62,15.77-5.3,19.76-6.81,3.93-15.78,1.59-19.57-4.96-6.6-11.43-7.25-41.47-7.25-41.47,0,0,25.93,15.99,32.11,26.67Z"/>
        <path class="cls-16" d="M1288.32,397.09c-4,6.92-1.62,15.77,5.3,19.76,6.81,3.93,15.78,1.59,19.57-4.96,6.6-11.43,7.25-41.47,7.25-41.47,0,0-25.93,15.99-32.11,26.67Z"/>
        <path class="cls-16" d="M1343.04,409.57c0,7.99-6.48,14.47-14.47,14.47s-14.46-6.52-14.46-14.08c0-13.2,14.46-39.54,14.46-39.54,0,0,14.47,26.81,14.47,39.15Z"/>
        <circle class="cls-12" cx="1326.92" cy="498.45" r="15.66"/>
        <circle class="cls-12" cx="1362.34" cy="498.45" r="15.66"/>
        <path class="cls-5" d="M1250.38,437.51c0,22.98,9.32,43.79,24.38,58.85l58.85-58.85h-83.22Z"/>
      </g>
    </g>
    <g>
      <rect class="cls-7" x="1528.81" y="347.54" width="191.01" height="191.01" transform="translate(162.47 1278.33) rotate(-45)"/>
      <g id="Bijzondere_gebouwen-2" data-name="Bijzondere gebouwen">
        <rect class="cls-13" x="1589.66" y="488.07" width="69.27" height="20.78"/>
        <polygon class="cls-4" points="1624.7 392.78 1605.81 399.8 1589.68 483.74 1658.95 483.74 1643.7 399.26 1624.7 392.78"/>
        <line class="cls-46" x1="1579.29" y1="465.55" x2="1669.34" y2="375.51"/>
        <line class="cls-46" x1="1669.34" y1="465.55" x2="1579.29" y2="375.51"/>
      </g>
    </g>
    <g>
      <rect class="cls-6" x="2267.35" y="496.64" width="188.47" height="188.47" transform="translate(273.88 1842.96) rotate(-45)"/>
      <g id="Hollandse_Waterlinies-2" data-name="Hollandse Waterlinies">
        <path class="cls-16" d="M2446.58,575.42v45.97h-69.99v-32.04h-.06c-9.61-3.69-20.3-3.69-29.91,0-.02,0-.04.01-.06.02v32.02h-69.99v-45.97h170ZM2319.06,590.13c-3.99-1.53-8.42-1.53-12.41,0,0,0-.02,0-.02,0v16.05h12.46v-16.05h0s-.02,0-.02,0ZM2416.52,590.13c-3.99-1.53-8.42-1.53-12.41,0,0,0-.02,0-.02,0v16.05h12.46v-16.05h0s-.02,0-.02,0Z"/>
        <path class="cls-16" d="M2361.58,549.47c-14.82,0-27.72,8.2-34.43,20.31h68.85c-6.71-12.11-19.6-20.31-34.43-20.31Z"/>
        <line class="cls-30" x1="2295.83" y1="562.23" x2="2346.74" y2="562.23"/>
      </g>
    </g>
    <g>
      <rect class="cls-9" x="1086.24" y="496.61" width="188.32" height="188.32" transform="translate(-72.01 1007.7) rotate(-45)"/>
      <path class="cls-35" d="M1131.38,587.68c18.99,0,18.99,6.98,37.98,6.98s18.99-6.98,37.98-6.98,18.99,6.98,37.98,6.98"/>
      <path class="cls-28" d="M1131.38,573.83c18.99,0,18.99,6.98,37.98,6.98s18.99-6.98,37.98-6.98,18.99,6.98,37.98,6.98"/>
      <path class="cls-21" d="M1131.38,559.97c18.99,0,18.99,6.98,37.98,6.98s18.99-6.98,37.98-6.98,18.99,6.98,37.98,6.98"/>
      <path class="cls-40" d="M1131.38,546.43c18.99,0,18.99,6.98,37.98,6.98s18.99-6.98,37.98-6.98,18.99,6.98,37.98,6.98"/>
      <line class="cls-31" x1="1128.16" y1="539.5" x2="1128.16" y2="644.92"/>
    </g>
    <g>
      <rect class="cls-8" x="1529.59" y="643.4" width="188.54" height="188.54" transform="translate(-45.99 1364.3) rotate(-45)"/>
      <g id="Waterbeheer-2" data-name="Waterbeheer">
        <polygon class="cls-16" points="1636.49 695.18 1596.96 716.31 1596.96 716.48 1596.96 760.37 1676.02 760.37 1676.02 715.29 1636.49 695.18"/>
        <circle class="cls-11" cx="1700.35" cy="731.78" r="15.98"/>
        <line class="cls-32" x1="1700.35" y1="726.8" x2="1700.35" y2="760.37"/>
        <path class="cls-23" d="M1534.98,739.42c9.14,0,9.14,3.36,18.27,3.36s9.14-3.36,18.27-3.36,9.14,3.36,18.27,3.36"/>
        <path class="cls-23" d="M1534.98,753.67c9.14,0,9.14,3.36,18.27,3.36s9.14-3.36,18.27-3.36,9.14,3.36,18.27,3.36"/>
      </g>
    </g>
    <g>
      <rect class="cls-4" x="2120.21" y="348.94" width="188.26" height="188.26" transform="translate(335.27 1695.54) rotate(-45)"/>
      <g id="Bijzondere_tuinen-2" data-name="Bijzondere tuinen">
        <path class="cls-11" d="M2214.5,485.78c0,.29.02.58.02.88,21.72-.1,39.3-17.71,39.37-39.44-21.45.08-38.86,17.22-39.39,38.56Z"/>
        <path class="cls-11" d="M2214.34,486.65s.09,0,.14,0c0-.29.01-.59.02-.88-.53-21.39-18.02-38.56-39.53-38.56-.06,0-.12,0-.19,0,.06,21.79,17.74,39.44,39.55,39.44Z"/>
        <path class="cls-11" d="M2214.29,519.84c0,.29.02.58.02.88,21.72-.1,39.3-17.71,39.37-39.44-21.45.08-38.86,17.22-39.39,38.56Z"/>
        <path class="cls-11" d="M2214.34,520.72s.09,0,.14,0c0-.29.01-.59.02-.88-.53-21.39-18.02-38.56-39.53-38.56-.06,0-.12,0-.19,0,.06,21.79,17.74,39.44,39.55,39.44Z"/>
        <path class="cls-14" d="M2226.09,377.17c0-6.49-5.26-11.76-11.76-11.76s-11.75,5.3-11.75,11.44c0,10.72,11.75,32.13,11.75,32.13,0,0,11.76-21.79,11.76-31.82Z"/>
        <path class="cls-14" d="M2202.58,440.81c0,6.49,5.26,11.76,11.76,11.76,6.39,0,11.75-5.3,11.75-11.44,0-10.72-11.75-32.13-11.75-32.13,0,0-11.76,21.79-11.76,31.82Z"/>
        <path class="cls-14" d="M2192.66,382.9c-5.62-3.25-12.81-1.32-16.06,4.3-3.19,5.53-1.29,12.83,4.03,15.9,9.29,5.36,33.71,5.89,33.71,5.89,0,0-12.99-21.08-21.68-26.09Z"/>
        <path class="cls-14" d="M2236.02,435.08c5.62,3.25,12.81,1.32,16.06-4.3,3.19-5.53,1.29-12.83-4.03-15.9-9.29-5.36-33.71-5.89-33.71-5.89,0,0,12.99,21.08,21.68,26.09Z"/>
        <path class="cls-14" d="M2180.9,414.72c-5.62,3.25-7.55,10.44-4.3,16.06,3.19,5.53,10.46,7.53,15.79,4.46,9.29-5.36,21.95-26.25,21.95-26.25,0,0-24.75.71-33.44,5.73Z"/>
        <path class="cls-14" d="M2247.77,403.26c5.62-3.25,7.55-10.44,4.3-16.06-3.19-5.53-10.46-7.53-15.79-4.46-9.29,5.36-21.95,26.25-21.95,26.25,0,0,24.75-.71,33.44-5.73Z"/>
      </g>
    </g>
    <g>
      <rect class="cls-16" x="1529.82" y="939.31" width="188.08" height="188.08" transform="translate(-255.07 1450.9) rotate(-45)"/>
      <g id="Visit_Beemster_logo-2" data-name="Visit Beemster logo">
        <path class="cls-11" d="M1627.72,1090.2h-32.36c-6.34,0-11.5-5.12-11.5-11.42v-90.85c0-6.41,5.02-11.43,11.42-11.43h32.14c17.78,0,32.8,14.82,32.8,32.36,0,7.39-2.71,15.02-7.49,21.21,7.1,6.49,11.13,15.57,11.13,25.18,0,19.6-15.87,34.95-36.14,34.95ZM1630.06,996.99l-22.86,1.62,1.61,22.85,22.86-1.62-1.61-22.85Z"/>
        <path class="cls-5" d="M1617.98,1043.49l-.26-3.57.87-.06.05.68c.04.51.29.98.7,1.35.49.43,1.16.64,1.84.6.55-.04,1.04-.25,1.38-.59.35-.35.51-.81.48-1.32-.08-1.17-1.18-1.39-2.44-1.64-1.39-.28-2.97-.59-3.1-2.44-.05-.64.18-1.25.65-1.72.47-.47,1.15-.76,1.92-.82.86-.07,1.68.19,2.26.7l-.05-.71.85-.06.25,3.52-.85.06-.08-1.17c-.06-.79-1.05-1.44-2.14-1.44-.07,0-.13,0-.2,0-1.02.07-1.72.73-1.66,1.56.08,1.11,1.15,1.32,2.38,1.56,1.44.28,3.07.59,3.21,2.56.05.66-.17,1.31-.6,1.81-.52.6-1.29.96-2.18,1.03-.96.06-1.89-.27-2.48-.88l.07.93-.87.06Z"/>
        <path class="cls-5" d="M1625.62,1042.96l-.06-.85,1.53-.11-.54-7.48-1.54.11-.06-.85,4.04-.29.06.85-1.5.11.54,7.49,1.51-.11.06.85-4.04.29Z"/>
        <path class="cls-5" d="M1632.72,1042.44l-.06-.85,1.55-.11-.54-7.49-2.32.17.2,2.87-.86.06-.27-3.72,7.36-.53.27,3.72-.87.06-.21-2.87-2.32.17.54,7.49,1.51-.11.06.85-4.05.29Z"/>
        <polygon class="cls-5" points="1616.34 1042.75 1614.84 1042.86 1614.3 1035.37 1615.8 1035.27 1615.74 1034.41 1611.98 1034.69 1611.98 1034.69 1607.94 1034.98 1608.01 1035.83 1609.52 1035.72 1607.49 1042.76 1604.37 1036.09 1605.81 1035.98 1605.75 1035.13 1601.99 1035.41 1602.05 1036.26 1603.34 1036.16 1607.11 1044.28 1607.15 1044.36 1607.95 1044.31 1610.43 1035.65 1611.77 1035.56 1611.77 1035.56 1613.31 1035.45 1613.85 1042.93 1612.31 1043.04 1612.37 1043.9 1616.41 1043.6 1616.34 1042.75"/>
        <path class="cls-5" d="M1604.11,1058.63l-.06-.85,1.53-.11-.54-7.49-1.53.11-.06-.85,4.07-.29c.97-.07,1.73.14,2.25.61.52.48.67,1.12.71,1.58.06.89-.27,1.56-.98,2,1.06.31,1.66,1.03,1.74,2.08.09,1.3-.64,2.74-2.99,2.91l-4.15.3ZM1606.32,1054.08l.25,3.51,1.58-.11c.73-.05,1.3-.28,1.66-.65.32-.33.47-.78.43-1.28-.08-1.12-.93-1.68-2.42-1.57l-1.51.11ZM1606.03,1050.11l.22,3.12,1.37-.1c1.2-.09,1.93-.76,1.86-1.71-.03-.34-.23-1.43-1.73-1.43-.08,0-.16,0-.25,0l-1.48.11Z"/>
        <polygon class="cls-5" points="1629.82 1053.26 1628.96 1053.32 1629.15 1055.97 1624.74 1056.29 1624.49 1052.86 1626.77 1052.7 1626.91 1054.63 1627.74 1054.57 1627.4 1049.91 1626.57 1049.96 1626.71 1051.85 1624.43 1052.01 1624.2 1048.8 1628.61 1048.48 1628.8 1051.12 1629.66 1051.05 1629.41 1047.57 1621.58 1048.13 1621.64 1048.98 1623.2 1048.87 1623.74 1056.36 1622.18 1056.47 1622.24 1057.32 1630.07 1056.76 1629.82 1053.26"/>
        <polygon class="cls-5" points="1620.24 1053.95 1619.38 1054.01 1619.57 1056.66 1615.16 1056.98 1614.92 1053.55 1617.19 1053.39 1617.33 1055.32 1618.16 1055.26 1617.82 1050.59 1616.99 1050.65 1617.13 1052.54 1614.85 1052.7 1614.62 1049.49 1619.03 1049.17 1619.22 1051.81 1620.09 1051.74 1619.83 1048.26 1612 1048.82 1612.06 1049.68 1613.62 1049.56 1614.16 1057.05 1612.6 1057.16 1612.66 1058.01 1620.5 1057.45 1620.24 1053.95"/>
        <path class="cls-5" d="M1631.93,1056.62l-.06-.85,1.54-.11-.54-7.49-1.54.11-.06-.85,2.89-.21.04.08,3.24,6.48c.07.14.17.34.25.55.04-.16.08-.32.13-.47l2.31-7.07,2.92-.21.06.85-1.51.11.54,7.49,1.51-.11.06.85-4.02.29-.07-.85,1.52-.11-.52-7.2-2.71,8.29-.32.02-.04-.08-3.8-7.74.52,7.2,1.51-.11.06.85-3.92.28Z"/>
        <path class="cls-5" d="M1615.4,1071.98l-.06-.85,1.55-.11-.54-7.49-2.32.17.2,2.87-.86.06-.27-3.72,7.36-.53.27,3.72-.87.06-.21-2.87-2.32.17.54,7.49,1.5-.11.07.85-4.05.29Z"/>
        <path class="cls-5" d="M1606.27,1072.65l-.26-3.57.86-.06.05.67c.08,1.15,1.25,2.03,2.55,1.95,1.15-.08,1.93-.88,1.86-1.91-.08-1.17-1.18-1.39-2.44-1.64-1.39-.28-2.97-.59-3.11-2.44-.05-.64.18-1.25.65-1.72.47-.47,1.15-.76,1.92-.82.85-.06,1.69.2,2.26.7l-.05-.71.85-.06.26,3.66-.85.06-.09-1.31c-.03-.39-.3-.78-.74-1.05-.45-.28-1.03-.43-1.61-.38-.56.04-1.03.25-1.34.61-.24.27-.35.6-.32.95.08,1.12,1.15,1.32,2.38,1.56,1.44.28,3.07.59,3.22,2.56.11,1.5-1.09,2.72-2.78,2.84-.97.06-1.89-.27-2.48-.89l.06.93-.86.06Z"/>
        <polygon class="cls-5" points="1630.22 1067.4 1629.35 1067.46 1629.54 1070.11 1625.13 1070.42 1624.88 1067 1627.17 1066.84 1627.3 1068.77 1628.13 1068.71 1627.8 1064.04 1626.97 1064.1 1627.1 1065.98 1624.83 1066.15 1624.6 1062.94 1629 1062.62 1629.19 1065.25 1630.06 1065.19 1629.81 1061.7 1621.97 1062.27 1622.04 1063.12 1623.6 1063.01 1624.14 1070.5 1622.57 1070.61 1622.64 1071.46 1630.47 1070.89 1630.22 1067.4"/>
        <path class="cls-5" d="M1632.16,1070.77l-.06-.85,1.55-.11-.54-7.49-1.53.11-.06-.85,4.14-.3c2.76-.2,3.3,1.45,3.37,2.45.08,1.07-.42,1.86-1.44,2.32.11.07.2.14.27.21.42.44.66,1.13.71,2.06l.02.31c.02.35.1.6.23.71.08.07.18.09.31.08.22-.02.35-.09.42-.25.07-.15.13-.48.08-1.19l-.02-.21h0s-.12-1.73-.12-1.73l.9-.06.12,1.72h0s.06.76.06.76c.02.51-.08.94-.31,1.27-.25.35-.6.55-1.05.58h-.12c-.41,0-.74-.14-.99-.43-.25-.3-.39-.73-.43-1.31l-.03-.35c-.05-.75-.23-1.25-.51-1.47-.22-.17-.63-.24-1.21-.25,0,0-.09,0-.12,0l-1.37.1.22,3.12,1.51-.11.06.85-4.06.29ZM1634.12,1062.25l.25,3.51,1.51-.11c1.48-.11,2.25-.78,2.17-1.9-.09-1.16-.9-1.73-2.35-1.62l-1.58.11Z"/>
      </g>
    </g>
    <g>
      <rect class="cls-16" x="1826.08" y="939.33" width="188.24" height="188.24" transform="translate(-168.35 1660.48) rotate(-45)"/>
      <g id="Beemster_Vanzelf_logo-2" data-name="Beemster Vanzelf logo">
        <g>
          <path class="cls-6" d="M1883.49,1054.75h4.36c2.17,0,3.5,1.17,3.5,3.28,0,1.08-.51,1.92-1.31,2.33,1.22.48,1.94,1.5,1.94,3.07,0,2.31-1.5,3.67-3.99,3.67h-4.5v-12.36ZM1887.76,1059.67c1.11,0,1.68-.48,1.68-1.55s-.57-1.55-1.71-1.55h-2.28v3.11h2.31ZM1887.78,1065.29c1.54,0,2.24-.62,2.24-1.89s-.71-1.91-2.24-1.91h-2.33v3.8h2.33Z"/>
          <path class="cls-6" d="M1901.89,1063.15h-6.34c.16,1.55,1.02,2.47,2.35,2.47,1.08,0,1.75-.48,2.33-1.54l1.54.6c-.78,1.71-2,2.56-3.96,2.56-2.74,0-4.17-2.22-4.17-4.59s1.43-4.59,4.17-4.59,4.08,2.12,4.08,4.31v.78ZM1899.98,1061.63c-.21-1.15-.92-1.94-2.17-1.94-1.06,0-1.89.69-2.17,1.94h4.34Z"/>
          <path class="cls-6" d="M1911.69,1063.15h-6.34c.16,1.55,1.02,2.47,2.35,2.47,1.08,0,1.75-.48,2.33-1.54l1.54.6c-.78,1.71-2,2.56-3.96,2.56-2.74,0-4.17-2.22-4.17-4.59s1.43-4.59,4.17-4.59,4.08,2.12,4.08,4.31v.78ZM1909.78,1061.63c-.21-1.15-.92-1.94-2.17-1.94-1.06,0-1.89.69-2.17,1.94h4.34Z"/>
          <path class="cls-6" d="M1913.74,1058.21h1.87v1.55c.67-1.13,1.55-1.7,2.63-1.7,1.22,0,2.12.62,2.47,1.87.64-1.15,1.66-1.87,2.77-1.87,1.7,0,2.61,1.01,2.61,2.79v6.25h-1.85v-5.95c0-1.01-.41-1.47-1.25-1.47-1.2,0-2.14,1.36-2.14,3.81v3.6h-1.85v-5.95c0-1.01-.41-1.47-1.25-1.47-1.25,0-2.14,1.43-2.14,3.96v3.46h-1.87v-8.9Z"/>
          <path class="cls-6" d="M1929.4,1064.04c.37,1.06,1.02,1.59,1.92,1.59.69,0,1.18-.39,1.18-1.08,0-.62-.65-.99-1.87-1.47-1.4-.51-2.15-1.25-2.15-2.58s1.17-2.44,2.72-2.44c1.2,0,2.14.49,2.68,1.43l-1.15,1.04c-.37-.57-.88-.85-1.52-.85-.57,0-.99.34-.99.85s.44.85,1.87,1.4c1.45.51,2.17,1.36,2.17,2.51,0,1.71-1.18,2.81-2.95,2.81s-3.05-1.08-3.43-2.42l1.5-.79Z"/>
          <path class="cls-6" d="M1936.43,1059.83h-1.43v-1.62h1.43v-2.42l1.87-1.18v3.6h2.37v1.62h-2.37v4.34c0,1.04.41,1.45,1.18,1.45.35,0,.67-.07.94-.23l.44,1.54c-.42.21-.92.32-1.47.32-1.85,0-2.97-1.04-2.97-3.11v-4.31Z"/>
          <path class="cls-6" d="M1949.82,1063.15h-6.34c.16,1.55,1.02,2.47,2.35,2.47,1.08,0,1.75-.48,2.33-1.54l1.54.6c-.78,1.71-2,2.56-3.96,2.56-2.74,0-4.17-2.22-4.17-4.59s1.43-4.59,4.17-4.59,4.08,2.12,4.08,4.31v.78ZM1947.91,1061.63c-.21-1.15-.92-1.94-2.17-1.94-1.06,0-1.89.69-2.17,1.94h4.34Z"/>
          <path class="cls-6" d="M1951.86,1058.21h1.87v1.48c.58-1.06,1.55-1.62,2.63-1.62.34,0,.72.07,1.15.21l-.35,1.73c-.3-.18-.64-.26-1.02-.26-1.4,0-2.4,1.34-2.4,4.11v3.25h-1.87v-8.9Z"/>
          <path class="cls-6" d="M1900.12,1071.18h2.14l3.06,9.61,3.07-9.61h2.14l-4.2,12.36h-2l-4.2-12.36Z"/>
          <path class="cls-6" d="M1911.6,1075.77c.69-.85,1.64-1.27,2.88-1.27,1.06,0,1.98.44,2.47,1.08v-.94h1.87v8.9h-1.87v-1.02c-.35.62-1.32,1.17-2.47,1.17-1.24,0-2.19-.42-2.88-1.25-.69-.85-1.02-1.96-1.02-3.34s.34-2.49,1.02-3.32ZM1914.83,1076.12c-1.36,0-2.31,1.15-2.31,2.97s.95,2.97,2.31,2.97,2.3-1.15,2.3-2.97-.9-2.97-2.3-2.97Z"/>
          <path class="cls-6" d="M1921.37,1074.64h1.87v1.55c.65-1.04,1.7-1.7,2.84-1.7,1.64,0,2.74.99,2.74,2.75v6.29h-1.85v-5.79c0-1.08-.53-1.62-1.45-1.62-1.24,0-2.28,1.41-2.28,3.76v3.66h-1.87v-8.9Z"/>
          <path class="cls-6" d="M1930.66,1082.78l4.06-6.52h-3.8v-1.62h6.13v.78l-4.01,6.5h4.24v1.62h-6.62v-.76Z"/>
          <path class="cls-6" d="M1946.67,1079.58h-6.34c.16,1.55,1.02,2.47,2.35,2.47,1.08,0,1.75-.48,2.33-1.54l1.54.6c-.78,1.71-2,2.56-3.96,2.56-2.74,0-4.17-2.22-4.17-4.59s1.43-4.59,4.17-4.59,4.08,2.12,4.08,4.31v.78ZM1944.77,1078.06c-.21-1.15-.92-1.94-2.17-1.94-1.06,0-1.89.69-2.17,1.94h4.34Z"/>
          <path class="cls-6" d="M1948.72,1071.03h1.87v12.5h-1.87v-12.5Z"/>
          <path class="cls-6" d="M1953.26,1076.26h-1.22v-1.62h1.22v-.49c0-2.07,1.11-3.11,2.97-3.11.62,0,1.11.11,1.48.32l-.41,1.54c-.34-.16-.67-.23-1.01-.23-.79,0-1.18.44-1.18,1.32v.65h1.96v1.62h-1.96v7.28h-1.85v-7.28Z"/>
          <path class="cls-6" d="M1887,1096.89c.37,1.06,1.02,1.59,1.92,1.59.69,0,1.18-.39,1.18-1.08,0-.62-.65-.99-1.87-1.47-1.4-.51-2.15-1.25-2.15-2.58s1.17-2.44,2.72-2.44c1.2,0,2.14.49,2.68,1.43l-1.15,1.04c-.37-.57-.88-.85-1.52-.85-.57,0-.99.34-.99.85s.44.85,1.87,1.4c1.45.51,2.17,1.36,2.17,2.51,0,1.71-1.18,2.81-2.95,2.81s-3.06-1.08-3.43-2.42l1.5-.79Z"/>
          <path class="cls-6" d="M1893.66,1091.06h1.87v1.02c.35-.62,1.29-1.17,2.35-1.17,2.6,0,4.03,1.82,4.03,4.59s-1.43,4.59-4.03,4.59c-.92,0-1.91-.46-2.35-1.09v4.56h-1.87v-12.5ZM1897.65,1092.55c-1.36,0-2.3,1.15-2.3,2.97s.94,2.97,2.3,2.97,2.31-1.15,2.31-2.97-.92-2.97-2.31-2.97Z"/>
          <path class="cls-6" d="M1903.95,1091.06h1.87v1.48c.58-1.06,1.55-1.62,2.63-1.62.34,0,.72.07,1.15.21l-.35,1.73c-.3-.18-.64-.26-1.02-.26-1.4,0-2.4,1.34-2.4,4.11v3.25h-1.87v-8.9Z"/>
          <path class="cls-6" d="M1918.43,1096.01h-6.34c.16,1.55,1.02,2.47,2.35,2.47,1.08,0,1.75-.48,2.33-1.54l1.54.6c-.78,1.71-2,2.56-3.96,2.56-2.74,0-4.17-2.22-4.17-4.59s1.43-4.59,4.17-4.59,4.08,2.12,4.08,4.31v.78ZM1916.53,1094.49c-.21-1.15-.92-1.94-2.17-1.94-1.06,0-1.89.69-2.17,1.94h4.34Z"/>
          <path class="cls-6" d="M1920.48,1087.46h1.87v7.22l3.14-3.62h2.3l-3.64,4.1,3.9,4.8h-2.3l-3.41-4.34v4.34h-1.87v-12.5Z"/>
          <path class="cls-6" d="M1936.69,1096.01h-6.34c.16,1.55,1.02,2.47,2.35,2.47,1.08,0,1.75-.48,2.33-1.54l1.54.6c-.78,1.71-2,2.56-3.96,2.56-2.74,0-4.17-2.22-4.17-4.59s1.43-4.59,4.17-4.59,4.08,2.12,4.08,4.31v.78ZM1934.79,1094.49c-.21-1.15-.92-1.94-2.17-1.94-1.06,0-1.89.69-2.17,1.94h4.34Z"/>
          <path class="cls-6" d="M1938.74,1091.06h1.87v1.55c.65-1.04,1.7-1.7,2.84-1.7,1.64,0,2.74.99,2.74,2.75v6.29h-1.85v-5.79c0-1.08-.53-1.62-1.45-1.62-1.24,0-2.28,1.41-2.28,3.76v3.66h-1.87v-8.9Z"/>
          <path class="cls-6" d="M1949.27,1092.19c.69-.85,1.64-1.27,2.88-1.27,1.06,0,1.98.44,2.47,1.08v-4.54h1.87v12.5h-1.87v-1.02c-.35.62-1.32,1.17-2.47,1.17-1.24,0-2.19-.42-2.88-1.25-.69-.85-1.02-1.96-1.02-3.34s.34-2.49,1.02-3.32ZM1952.5,1092.55c-1.36,0-2.31,1.15-2.31,2.97s.95,2.97,2.31,2.97,2.3-1.15,2.3-2.97-.9-2.97-2.3-2.97Z"/>
        </g>
        <g>
          <polygon class="cls-15" points="1882.68 996.47 1882.68 1026.04 1897.47 1026.04 1897.47 1040.83 1904.86 1026.04 1912.25 1026.04 1912.25 996.47 1882.68 996.47"/>
          <polygon class="cls-12" points="1897.47 966.9 1897.47 996.47 1912.25 996.47 1912.25 1011.26 1919.65 996.47 1927.04 996.47 1927.04 966.9 1897.47 966.9"/>
          <polygon class="cls-5" points="1927.04 981.75 1927.04 1011.32 1941.83 1011.32 1941.83 1026.1 1949.22 1011.32 1956.61 1011.32 1956.61 981.75 1927.04 981.75"/>
          <polygon class="cls-6" points="1912.25 1011.26 1912.25 1040.83 1927.04 1040.83 1927.04 1055.61 1934.43 1040.83 1941.83 1040.83 1941.83 1011.26 1912.25 1011.26"/>
        </g>
      </g>
    </g>
    <g>
      <rect class="cls-2" x="1234.49" y="644.2" width="188.23" height="188.23" transform="translate(-132.93 1155.72) rotate(-45)"/>
      <g id="Wegen_dijken_bruggen-2" data-name="Wegen, dijken, bruggen">
        <circle class="cls-11" cx="1374.9" cy="703.44" r="16.64"/>
        <line class="cls-33" x1="1374.9" y1="695.23" x2="1374.9" y2="733.37"/>
        <circle class="cls-11" cx="1328.61" cy="703.44" r="16.64"/>
        <line class="cls-33" x1="1328.61" y1="696.26" x2="1328.61" y2="734.4"/>
        <circle class="cls-11" cx="1280.79" cy="703.44" r="16.64"/>
        <line class="cls-33" x1="1280.79" y1="696.26" x2="1280.79" y2="734.4"/>
        <polygon class="cls-11" points="1378.41 733.23 1255.25 733.23 1246.34 775.89 1378.41 733.23"/>
        <polygon class="cls-11" points="1270.89 775.89 1409.78 775.89 1402.97 733.23 1270.89 775.89"/>
      </g>
    </g>
    <g>
      <rect class="cls-14" x="1825.11" y="349.63" width="187.43" height="187.43" transform="translate(248.52 1486.66) rotate(-45)"/>
      <g id="Historische_figuren-2" data-name="Historische figuren">
        <path class="cls-4" d="M1891.21,428.47c0-5.31,4.3-9.62,9.62-9.62s9.62,4.3,9.62,9.62h-19.23Z"/>
        <path class="cls-4" d="M1927.09,428.47c0-5.31,4.3-9.62,9.62-9.62s9.62,4.3,9.62,9.62h-19.23Z"/>
        <path class="cls-16" d="M1904.77,445.13c5.31-1.49,10.82,1.61,12.31,6.92,1.46,5.23-1.64,10.83-6.67,12.24-8.77,2.46-28.98-2.25-28.98-2.25,0,0,15.13-14.61,23.33-16.91Z"/>
        <path class="cls-16" d="M1933.13,445.13c-5.31-1.49-10.82,1.61-12.31,6.92s1.64,10.83,6.67,12.24c8.77,2.46,28.98-2.25,28.98-2.25,0,0-15.13-14.61-23.33-16.91Z"/>
        <path class="cls-16" d="M1938.31,484.28c0-10.8-8.76-19.56-19.56-19.56s-19.56,8.81-19.56,19.04c0,17.84,19.56,53.46,19.56,53.46,0,0,19.56-36.25,19.56-52.94Z"/>
        <rect class="cls-4" x="1898.51" y="354.99" width="38.12" height="49.15"/>
        <path class="cls-22" d="M1952.51,391.92c-19.3,19.3-50.59,19.3-69.89,0"/>
      </g>
    </g>
    <g>
      <rect class="cls-15" x="1677.97" y="496.27" width="187.93" height="187.93" transform="translate(101.63 1425.82) rotate(-45)"/>
      <path id="Werelderfgoed-2" data-name="Werelderfgoed" class="cls-34" d="M1835.05,590.58c0-34.86-28.26-63.12-63.12-63.12s-63.12,28.26-63.12,63.12c0,31.57,23.19,57.72,53.46,62.37l.15-28.45-34.87-34.35,44.32-44.3,44.27,44.25-34.84,34.28-.15,28.62c30.49-4.47,53.9-30.71,53.9-62.43Z"/>
    </g>
    <g>
      <rect class="cls-16" x="1677.34" y="201.4" width="188.54" height="188.54" transform="translate(309.82 1339.32) rotate(-45)"/>
      <g id="BK_logo-2" data-name="BK logo">
        <path class="cls-6" d="M1780.84,392.91l-18.63-11.13c-1.19-.71-1.62-2.32-.95-3.59l17.25-32.54c.67-1.27,2.19-1.72,3.38-1l18.63,11.13c1.19.71,1.62,2.32.95,3.59l-17.25,32.54c-.67,1.27-2.19,1.72-3.38,1Z"/>
        <path class="cls-5" d="M1778.78,395.9l-22.52-6.13c-1.44-.39-2.31-1.95-1.94-3.49l9.49-39.33c.37-1.53,1.84-2.46,3.28-2.06l22.52,6.13c1.44.39,2.31,1.95,1.94,3.49l-9.49,39.33c-.37,1.53-1.84,2.46-3.28,2.06Z"/>
        <path class="cls-15" d="M1777.15,391.58l-21.38.25c-1.37.02-2.49-1.15-2.51-2.61l-.38-37.34c-.01-1.46,1.08-2.65,2.46-2.66l21.38-.25c1.37-.02,2.49,1.15,2.51,2.61l.38,37.34c.01,1.46-1.08,2.65-2.46,2.66Z"/>
        <path class="cls-12" d="M1774.64,391.52l-20.59,6.11c-1.32.39-2.69-.43-3.06-1.83l-9.47-35.96c-.37-1.4.4-2.86,1.72-3.25l20.59-6.11c1.32-.39,2.69.43,3.06,1.83l9.47,35.96c.37,1.4-.4,2.86-1.72,3.25Z"/>
      </g>
      <g>
        <path class="cls-12" d="M1656.62,291.49l7.46-7.38c5.13-5.07,9.69-4.86,14.49,0l1.24,1.26c3.2,3.24,4.21,6.24,2.9,9.32l.09.09c3.54-1.72,6.89-.41,10.18,2.92l2.67,2.7c4.8,4.86,4.82,10-.13,14.89l-7.78,7.69-31.11-31.48ZM1676.16,297.51c1.84-1.82,2.17-3.74-.32-6.26l-1.73-1.75c-2.22-2.25-3.96-2.48-5.72-.75l-2.38,2.36,8.22,8.32,1.93-1.91ZM1691.07,310.78c1.66-1.64,1.81-3.3-.5-5.64l-2.71-2.74c-2.89-2.92-4.72-2.89-6.97-.67l-2.2,2.18,9.56,9.67,2.83-2.8Z"/>
        <path class="cls-15" d="M1682.45,268.35l16.04-10.13,3.38,5.35-10.16,6.41,6.24,9.89,8.07-5.1,3.38,5.35-8.07,5.1,7.26,11.5,10.16-6.41,3.38,5.35-16.04,10.13-23.63-37.43Z"/>
        <path class="cls-5" d="M1709.82,252.77l17.77-6.63,2.21,5.92-11.26,4.2,4.09,10.96,8.95-3.34,2.21,5.92-8.95,3.34,4.75,12.74,11.26-4.2,2.21,5.92-17.77,6.63-15.47-41.47Z"/>
        <path class="cls-6" d="M1741.32,242.39l9.75-1.01,7.9,31.47,1.28-32.43,9.75-1.01,4.56,44.03-6.54.68-3.45-33.33-1.71,33.87-5.79.6-8.61-32.8,3.45,33.33-6.04.62-4.56-44.03Z"/>
        <path class="cls-12" d="M1779.4,273.66l.38-2.5,6.5.99-.46,3c-.47,3.13.73,4.46,2.92,4.79,2.19.33,3.8-.57,4.29-3.83.55-3.63-.61-6.1-4.51-10.73-4.98-5.94-6.37-9.86-5.61-14.86,1.04-6.88,5.22-10.34,11.9-9.32,6.69,1.02,9.39,5.52,8.33,12.52l-.28,1.81-6.5-.99.34-2.25c.47-3.13-.6-4.5-2.78-4.84s-3.68.66-4.14,3.66c-.48,3.19.74,5.68,4.64,10.3,4.98,5.94,6.32,9.78,5.49,15.22-1.08,7.13-5.32,10.58-12.07,9.55-6.75-1.03-9.52-5.54-8.46-12.54Z"/>
        <path class="cls-15" d="M1820.21,254.62l-6.8-2.57,2.23-5.92,20.11,7.6-2.23,5.92-6.8-2.57-13.41,35.49-6.51-2.46,13.41-35.49Z"/>
        <path class="cls-5" d="M1846.6,259.41l15.98,10.21-3.41,5.33-10.12-6.47-6.3,9.86,8.05,5.14-3.41,5.33-8.05-5.14-7.32,11.46,10.12,6.47-3.4,5.33-15.98-10.21,23.83-37.3Z"/>
        <path class="cls-6" d="M1872.66,277.73l7.29,7.28c5.1,5.09,4.92,9.66.1,14.49l-1.92,1.92c-3.22,3.22-6.3,4.25-9.39,2.96l-.09.09c1.7,3.22.18,6.35-3.35,9.88l-5.5,5.5c-1.52,1.52-2.59,2.68-3.26,4.34l-5.01-5c.54-1.07.85-1.74,3.4-4.29l5.72-5.73c2.9-2.91,2.99-4.7.76-6.93l-1.7-1.7-13.41,13.42-4.92-4.92,31.28-31.32ZM1865.96,297.85c1.83,1.83,3.76,2.14,6.26-.36l2.41-2.42c2.23-2.24,2.46-3.98.71-5.72l-2.24-2.23-8.94,8.95,1.79,1.79Z"/>
      </g>
      <g>
        <path class="cls-6" d="M1712.14,338.55l1.13,4.02,6.32,6.82-3.41,3.16-20.12-21.71,3.41-3.16,8.65,9.34-4.37-13.3,3.47-3.22,3.32,11.74,16.86,9.92-3.57,3.31-11.71-6.91Z"/>
        <path class="cls-6" d="M1716.05,313.93l4.02-1.97,12.09,19.87-8.18-21.79,4.56-2.23,12.21,19.82-8.3-21.74,3.61-1.77,10.33,27.9-5.2,2.55-10.89-17.31,7.01,19.21-5.54,2.72-15.72-25.25Z"/>
        <path class="cls-6" d="M1760.26,323.06l-5.29.92.2,5.84-4.25.74-.34-29.98,6.21-1.08,9.83,28.33-4.58.8-1.79-5.57ZM1758.99,319.21l-4.65-14.34.52,15.06,4.12-.72Z"/>
        <path class="cls-6" d="M1772.46,298.28l6.87.51c4.81.35,6.71,2.74,6.37,7.29l-.13,1.81c-.22,3.04-1.34,4.9-3.46,5.6v.08c2.26.89,2.86,3.14,2.61,6.47l-.38,5.19c-.11,1.43-.14,2.49.24,3.62l-4.72-.35c-.2-.78-.33-1.25-.16-3.66l.4-5.4c.2-2.74-.53-3.69-2.64-3.84l-1.6-.12-.93,12.65-4.64-.34,2.17-29.52ZM1777.85,311.4c1.73.13,2.84-.55,3.01-2.92l.17-2.28c.16-2.11-.49-3.09-2.14-3.21l-2.11-.16-.62,8.43,1.69.12Z"/>
        <path class="cls-6" d="M1799.8,306.78l-4.63-1.49,1.3-4.02,13.68,4.41-1.3,4.02-4.63-1.49-7.78,24.15-4.43-1.43,7.78-24.15Z"/>
        <path class="cls-6" d="M1819.69,310.17l10.88,6.52-2.17,3.63-6.89-4.13-4.02,6.71,5.48,3.28-2.17,3.63-5.48-3.28-4.67,7.8,6.89,4.13-2.17,3.63-10.88-6.52,15.21-25.39Z"/>
        <path class="cls-6" d="M1838.76,328.89l-3.5-3.37,2.93-3.04,10.35,9.97-2.93,3.04-3.5-3.37-17.6,18.27-3.35-3.23,17.6-18.27Z"/>
      </g>
    </g>
    <g id="Menu">
      <line class="cls-36" x1="2327.41" y1="269.85" x2="2395.76" y2="269.85"/>
      <line class="cls-36" x1="2327.41" y1="291.77" x2="2395.76" y2="291.77"/>
      <line class="cls-36" x1="2327.41" y1="313.69" x2="2395.76" y2="313.69"/>
    </g>
  </g>
  <g id="Mobile_staand_" data-name="Mobile [staand]">
    <rect class="cls-6" x="3782.07" y="1527.25" width="188.23" height="188.24" transform="translate(-11.23 3215.63) rotate(-45)"/>
    <polygon class="cls-6" points="3285.69 1487.76 3418.79 1620.86 3285.69 1753.96 3152.58 1620.86 3285.69 1487.76"/>
    <polygon class="cls-6" points="3580.94 1487.76 3714.04 1620.86 3580.94 1753.96 3447.84 1620.86 3580.94 1487.76"/>
    <rect class="cls-6" x="3339.2" y="1379.5" width="188.24" height="188.24" transform="translate(-36.43 2859.29) rotate(-45)"/>
    <rect class="cls-5" x="3191.57" y="1231.78" width="188.24" height="188.23" transform="translate(24.8 2711.68) rotate(-45)"/>
    <rect class="cls-6" x="3634.47" y="1379.28" width="188.24" height="188.24" transform="translate(50.21 3068.01) rotate(-45)"/>
    <rect class="cls-5" x="3339.32" y="1084.03" width="188.24" height="188.23" transform="translate(172.55 2772.88) rotate(-45)"/>
    <rect class="cls-5" x="3192.09" y="936.4" width="188.24" height="188.24" transform="translate(233.82 2625.53) rotate(-45)"/>
    <rect class="cls-15" x="3339.71" y="789.07" width="188.24" height="188.23" transform="translate(381.23 2686.76) rotate(-45)"/>
    <polygon class="cls-15" points="4466.45 602.26 4599.55 735.35 4466.45 868.45 4333.34 735.35 4466.45 602.26"/>
    <polygon class="cls-5" points="4319.17 1045.32 4452.27 1178.42 4319.17 1311.52 4186.06 1178.42 4319.17 1045.32"/>
    <rect class="cls-6" x="4077.32" y="1527.25" width="188.23" height="188.24" transform="translate(75.27 3424.46) rotate(-45)"/>
    <polygon class="cls-6" points="4466.42 1488.27 4599.52 1621.36 4466.41 1754.47 4333.31 1621.36 4466.42 1488.27"/>
    <polygon class="cls-6" points="4319.16 1340.43 4452.27 1473.53 4319.16 1606.62 4186.06 1473.53 4319.16 1340.43"/>
    <rect class="cls-5" x="4372.3" y="1231.78" width="188.24" height="188.23" transform="translate(370.63 3546.58) rotate(-45)"/>
    <polygon class="cls-6" points="4026.27 1337.97 4159.37 1471.06 4026.27 1604.17 3893.17 1471.06 4026.27 1337.97"/>
    <rect class="cls-6" x="3782.07" y="1826.64" width="188.23" height="188.24" transform="translate(-222.92 3303.31) rotate(-45)"/>
    <polygon class="cls-6" points="3285.69 1787.15 3418.79 1920.25 3285.69 2053.35 3152.58 1920.25 3285.69 1787.15"/>
    <polygon class="cls-6" points="3580.94 1787.16 3714.04 1920.25 3580.94 2053.35 3447.84 1920.25 3580.94 1787.16"/>
    <rect class="cls-6" x="3339.2" y="1678.9" width="188.24" height="188.24" transform="translate(-248.13 2946.98) rotate(-45)"/>
    <rect class="cls-6" x="3634.47" y="1678.67" width="188.24" height="188.24" transform="translate(-161.49 3155.7) rotate(-45)"/>
    <rect class="cls-6" x="4077.32" y="1826.64" width="188.23" height="188.24" transform="translate(-136.43 3512.15) rotate(-45)"/>
    <polygon class="cls-6" points="4466.42 1787.66 4599.52 1920.75 4466.41 2053.86 4333.31 1920.75 4466.42 1787.66"/>
    <polygon class="cls-6" points="4319.16 1639.82 4452.27 1772.92 4319.16 1906.01 4186.06 1772.92 4319.16 1639.82"/>
    <polygon class="cls-6" points="4026.27 1637.36 4159.37 1770.45 4026.27 1903.56 3893.17 1770.45 4026.27 1637.36"/>
    <rect class="cls-6" x="3339.2" y="1978.29" width="188.24" height="188.24" transform="translate(-459.83 3034.67) rotate(-45)"/>
    <rect class="cls-6" x="3634.47" y="1978.06" width="188.24" height="188.24" transform="translate(-373.19 3243.39) rotate(-45)"/>
    <polygon class="cls-6" points="4319.16 1939.21 4452.27 2072.31 4319.16 2205.4 4186.06 2072.32 4319.16 1939.21"/>
    <polygon class="cls-6" points="4026.27 1936.75 4159.37 2069.84 4026.27 2202.95 3893.17 2069.84 4026.27 1936.75"/>
    <polygon class="cls-5" points="4466.42 897.55 4599.52 1030.66 4466.42 1163.75 4333.31 1030.66 4466.42 897.55"/>
    <rect class="cls-15" x="4227.31" y="788.65" width="188.24" height="188.23" transform="translate(641.53 3314.31) rotate(-45)"/>
    <polygon class="cls-15" points="4466.42 307.06 4599.52 440.15 4466.42 573.25 4333.31 440.15 4466.42 307.06"/>
    <polygon class="cls-15" points="4171.51 307.06 4304.61 440.15 4171.5 573.25 4038.4 440.15 4171.51 307.06"/>
    <polygon class="cls-15" points="4320.03 455.58 4453.13 588.67 4320.03 721.77 4186.92 588.67 4320.03 455.58"/>
    <polygon class="cls-15" points="3580.99 307.48 3714.1 440.58 3580.99 573.68 3447.89 440.58 3580.99 307.48"/>
    <rect class="cls-15" x="3191.57" y="346.03" width="188.24" height="188.24" transform="translate(651.15 2452.28) rotate(-45)"/>
    <rect class="cls-15" x="3338.29" y="492.74" width="188.24" height="188.24" transform="translate(590.38 2599) rotate(-45)"/>
    <rect class="cls-15" x="3190.66" y="640.86" width="188.23" height="188.24" transform="translate(442.4 2537.99) rotate(-45)"/>
    <polygon class="cls-12" points="3433.31 159.42 3566.42 292.51 3433.31 425.61 3300.21 292.51 3433.31 159.42"/>
    <rect class="cls-12" x="4225.05" y="198.4" width="188.24" height="188.24" transform="translate(1058.18 3139.75) rotate(-45)"/>
    <rect class="cls-12" x="4372.29" y="50.8" width="188.24" height="188.23" transform="translate(1205.74 3200.71) rotate(-45)"/>
    <polygon class="cls-12" points="4023.81 159.42 4156.92 292.52 4023.81 425.61 3890.71 292.52 4023.81 159.42"/>
    <rect class="cls-12" x="4077.38" y="50.8" width="188.24" height="188.23" transform="translate(1119.33 2992.14) rotate(-45)"/>
    <polygon class="cls-12" points="3876.19 11.8 4009.29 144.9 3876.19 278 3743.08 144.89 3876.19 11.8"/>
    <polygon class="cls-12" points="3728.56 159.41 3861.66 292.52 3728.57 425.61 3595.46 292.51 3728.56 159.41"/>
    <polygon class="cls-12" points="3433.31 -133.86 3566.42 -.77 3433.31 132.33 3300.21 -.77 3433.31 -133.86"/>
    <rect class="cls-12" x="4225.05" y="-94.87" width="188.24" height="188.24" transform="translate(1265.55 3053.85) rotate(-45)"/>
    <polygon class="cls-12" points="4023.81 -133.85 4156.92 -.75 4023.81 132.34 3890.71 -.75 4023.81 -133.85"/>
    <polygon class="cls-12" points="3728.56 -133.87 3861.66 -.76 3728.57 132.34 3595.46 -.76 3728.56 -133.87"/>
    <rect class="cls-12" x="3486.82" y="50.79" width="188.23" height="188.24" transform="translate(946.4 2574.58) rotate(-45)"/>
    <rect class="cls-12" x="3191.57" y="50.79" width="188.23" height="188.24" transform="translate(859.92 2365.8) rotate(-45)"/>
    <g id="Dieren-3" data-name="Dieren">
      <rect class="cls-12" x="3928.64" y="787.9" width="188.93" height="188.93" transform="translate(554.42 3103.2) rotate(-45)"/>
      <line class="cls-24" x1="3975.18" y1="850.6" x2="3975.18" y2="938.03"/>
      <line class="cls-24" x1="3990.06" y1="850.6" x2="3990.06" y2="938.03"/>
      <line class="cls-24" x1="4026.48" y1="850.6" x2="4026.48" y2="938.03"/>
      <line class="cls-24" x1="4041.64" y1="850.6" x2="4041.64" y2="938.03"/>
      <circle class="cls-16" cx="4008.77" cy="856.8" r="30.11"/>
      <circle class="cls-16" cx="4008.77" cy="886.91" r="30.11"/>
      <circle class="cls-16" cx="4040.51" cy="857.78" r="24.56"/>
      <circle class="cls-16" cx="4040.51" cy="882.36" r="24.56"/>
      <circle class="cls-16" cx="3972.03" cy="857.78" r="24.56"/>
      <circle class="cls-16" cx="3972.03" cy="882.34" r="24.56"/>
      <path class="cls-3" d="M4083.68,850.6h-48.27c.03,8.91,7.26,16.12,16.17,16.12v15.97c0,8.86,7.18,16.05,16.05,16.05s16.05-7.18,16.05-16.05v-15.97c8.92,0,16.15-7.21,16.17-16.12h-16.17Z"/>
    </g>
    <g>
      <rect class="cls-13" x="3782.32" y="1229.8" width="188.24" height="188.24" transform="translate(199.23 3128.82) rotate(-45)"/>
      <g id="Boerderijen-3" data-name="Boerderijen">
        <rect class="cls-11" x="3809.89" y="1341.67" width="133.1" height="26.62"/>
        <polygon class="cls-9" points="3942.99 1335.76 3876.44 1244.58 3809.89 1335.76 3856.44 1335.76 3856.44 1313.59 3856.44 1313.5 3876.41 1302.83 3896.37 1312.98 3896.37 1335.76 3942.99 1335.76"/>
      </g>
    </g>
    <g>
      <rect class="cls-5" x="4076.71" y="641.58" width="189.66" height="189.66" transform="translate(701.09 3165.41) rotate(-45)"/>
      <polygon id="Kerken-3" data-name="Kerken" class="cls-3" points="4216.24 763.79 4207.24 728.03 4144.71 728.03 4144.71 692.27 4135.77 656.5 4126.83 692.27 4126.83 799.56 4216.24 799.56 4216.24 763.79 4216.24 763.79"/>
    </g>
    <g>
      <rect class="cls-10" x="3487.01" y="641.22" width="188.21" height="188.21" transform="translate(528.93 2747.6) rotate(-45)"/>
      <g id="Dorpen-3" data-name="Dorpen">
        <circle class="cls-5" cx="3581.11" cy="726.05" r="44.36"/>
        <polygon class="cls-3" points="3661.37 747.36 3649.24 730.5 3619.37 730.5 3609.98 743.56 3604.97 723.68 3564.12 723.68 3564.12 700.31 3558.28 676.95 3552.44 700.31 3552.44 751.89 3528.66 716.22 3500.86 757.93 3500.86 770.41 3552.44 770.41 3556.47 770.41 3607.25 770.41 3610.86 770.41 3661.37 770.41 3661.37 747.36 3661.37 747.36"/>
      </g>
    </g>
    <g>
      <rect class="cls-11" x="3485.1" y="935.59" width="189.87" height="189.87" transform="translate(319.88 2833.3) rotate(-45)"/>
      <g id="Streekproducten-3" data-name="Streekproducten">
        <path class="cls-29" d="M3615.37,1099.67c-11.3-20.74-4.1-46.81,16.42-58.75v-.07c-22.95-6.06-46.48,7.28-53.15,29.94-.08.31-.14.63-.23.94"/>
        <path class="cls-15" d="M3635.07,1042.81c.15.15.28.3.43.45,9.66,9.19,24.93,9.07,34.44-.37-9.62-9.62-25.2-9.65-34.86-.08Z"/>
        <path class="cls-15" d="M3635.06,1042.81c.15-.15.3-.28.45-.43,9.19-9.66,9.07-24.93-.37-34.44-9.62,9.62-9.65,25.2-.08,34.86Z"/>
        <path class="cls-29" d="M3580.07,1009.1c-13.74-25.22-4.98-56.92,19.96-71.44"/>
        <path class="cls-16" d="M3620.38,984.99c4,6.92,1.62,15.77-5.3,19.76-6.81,3.93-15.78,1.59-19.57-4.96-6.6-11.43-7.25-41.47-7.25-41.47,0,0,25.93,15.99,32.11,26.67Z"/>
        <path class="cls-16" d="M3539.86,984.99c-4,6.92-1.62,15.77,5.3,19.76,6.81,3.93,15.78,1.59,19.57-4.96,6.6-11.43,7.25-41.47,7.25-41.47,0,0-25.93,15.99-32.11,26.67Z"/>
        <path class="cls-16" d="M3594.58,997.47c0,7.99-6.48,14.47-14.47,14.47s-14.46-6.52-14.46-14.08c0-13.2,14.46-39.54,14.46-39.54,0,0,14.47,26.81,14.47,39.15Z"/>
        <circle class="cls-12" cx="3578.47" cy="1086.35" r="15.66"/>
        <circle class="cls-12" cx="3613.88" cy="1086.35" r="15.66"/>
        <path class="cls-5" d="M3501.93,1025.41c0,22.98,9.32,43.79,24.38,58.85l58.85-58.85h-83.22Z"/>
      </g>
    </g>
    <g>
      <rect class="cls-7" x="3633.64" y="492.23" width="191.01" height="191.01" transform="translate(676.65 2809.05) rotate(-45)"/>
      <g id="Bijzondere_gebouwen-3" data-name="Bijzondere gebouwen">
        <rect class="cls-13" x="3694.49" y="632.76" width="69.27" height="20.78"/>
        <polygon class="cls-4" points="3729.53 537.48 3710.64 544.5 3694.51 628.43 3763.77 628.43 3748.53 543.96 3729.53 537.48"/>
        <line class="cls-46" x1="3684.12" y1="610.25" x2="3774.16" y2="520.2"/>
        <line class="cls-46" x1="3774.16" y1="610.25" x2="3684.12" y2="520.2"/>
      </g>
    </g>
    <g>
      <rect class="cls-6" x="3928.87" y="1081.73" width="188.47" height="188.47" transform="translate(346.81 3189.2) rotate(-45)"/>
      <g id="Hollandse_Waterlinies-3" data-name="Hollandse Waterlinies">
        <path class="cls-16" d="M4108.11,1160.51v45.97h-69.99v-32.04h-.06c-9.61-3.69-20.3-3.69-29.91,0-.02,0-.04.01-.06.02v32.02h-69.99v-45.97h170ZM3980.58,1175.21c-3.99-1.53-8.42-1.53-12.41,0,0,0-.02,0-.02,0v16.05h12.46v-16.05h0s-.02,0-.02,0ZM4078.04,1175.21c-3.99-1.53-8.42-1.53-12.41,0,0,0-.02,0-.02,0v16.05h12.46v-16.05h0s-.02,0-.02,0Z"/>
        <path class="cls-16" d="M4023.11,1134.56c-14.82,0-27.72,8.2-34.43,20.31h68.85c-6.71-12.11-19.6-20.31-34.43-20.31Z"/>
        <line class="cls-30" x1="3957.36" y1="1147.32" x2="4008.27" y2="1147.32"/>
      </g>
    </g>
    <g>
      <rect class="cls-9" x="3782.03" y="937.6" width="188.32" height="188.32" transform="translate(405.74 3043.07) rotate(-45)"/>
      <path class="cls-35" d="M3827.17,1028.67c18.99,0,18.99,6.98,37.98,6.98s18.99-6.98,37.98-6.98,18.99,6.98,37.98,6.98"/>
      <path class="cls-28" d="M3827.17,1014.82c18.99,0,18.99,6.98,37.98,6.98s18.99-6.98,37.98-6.98,18.99,6.98,37.98,6.98"/>
      <path class="cls-21" d="M3827.17,1000.96c18.99,0,18.99,6.98,37.98,6.98s18.99-6.98,37.98-6.98,18.99,6.98,37.98,6.98"/>
      <path class="cls-40" d="M3827.17,987.42c18.99,0,18.99,6.98,37.98,6.98s18.99-6.98,37.98-6.98,18.99,6.98,37.98,6.98"/>
      <line class="cls-31" x1="3823.95" y1="980.49" x2="3823.95" y2="1085.91"/>
    </g>
    <g>
      <rect class="cls-8" x="3632.31" y="785.41" width="193.67" height="193.67" transform="translate(468.4 2895.3) rotate(-45)"/>
      <g id="Waterbeheer-3" data-name="Waterbeheer">
        <polygon class="cls-16" points="3742.12 838.6 3701.51 860.3 3701.51 860.48 3701.51 905.56 3782.72 905.56 3782.72 859.25 3742.12 838.6"/>
        <circle class="cls-11" cx="3807.71" cy="876.2" r="16.41"/>
        <line class="cls-25" x1="3807.71" y1="871.08" x2="3807.71" y2="905.56"/>
        <path class="cls-38" d="M3637.85,884.05c9.38,0,9.38,3.45,18.77,3.45s9.38-3.45,18.77-3.45,9.38,3.45,18.77,3.45"/>
        <path class="cls-38" d="M3637.85,898.68c9.38,0,9.38,3.45,18.77,3.45s9.38-3.45,18.77-3.45,9.38,3.45,18.77,3.45"/>
      </g>
    </g>
    <g>
      <rect class="cls-4" x="4076.62" y="935.48" width="188.26" height="188.26" transform="translate(493.54 3250.73) rotate(-45)"/>
      <g id="Bijzondere_tuinen-3" data-name="Bijzondere tuinen">
        <path class="cls-11" d="M4170.91,1072.32c0,.29.02.58.02.88,21.72-.1,39.3-17.71,39.37-39.44-21.45.08-38.86,17.22-39.39,38.56Z"/>
        <path class="cls-11" d="M4170.75,1073.2s.09,0,.14,0c0-.29.01-.59.02-.88-.53-21.39-18.02-38.56-39.53-38.56-.06,0-.12,0-.19,0,.06,21.79,17.74,39.44,39.55,39.44Z"/>
        <path class="cls-11" d="M4170.71,1106.38c0,.29.02.58.02.88,21.72-.1,39.3-17.71,39.37-39.44-21.45.08-38.86,17.22-39.39,38.56Z"/>
        <path class="cls-11" d="M4170.75,1107.26s.09,0,.14,0c0-.29.01-.59.02-.88-.53-21.39-18.02-38.56-39.53-38.56-.06,0-.12,0-.19,0,.06,21.79,17.74,39.44,39.55,39.44Z"/>
        <path class="cls-14" d="M4182.51,963.72c0-6.49-5.26-11.76-11.76-11.76s-11.75,5.3-11.75,11.44c0,10.72,11.75,32.13,11.75,32.13,0,0,11.76-21.79,11.76-31.82Z"/>
        <path class="cls-14" d="M4158.99,1027.36c0,6.49,5.26,11.76,11.76,11.76,6.39,0,11.75-5.3,11.75-11.44,0-10.72-11.75-32.13-11.75-32.13,0,0-11.76,21.79-11.76,31.82Z"/>
        <path class="cls-14" d="M4149.07,969.45c-5.62-3.25-12.81-1.32-16.06,4.3-3.19,5.53-1.29,12.83,4.03,15.9,9.29,5.36,33.71,5.89,33.71,5.89,0,0-12.99-21.08-21.68-26.09Z"/>
        <path class="cls-14" d="M4192.43,1021.63c5.62,3.25,12.81,1.32,16.06-4.3,3.19-5.53,1.29-12.83-4.03-15.9-9.29-5.36-33.71-5.89-33.71-5.89,0,0,12.99,21.08,21.68,26.09Z"/>
        <path class="cls-14" d="M4137.31,1001.27c-5.62,3.25-7.55,10.44-4.3,16.06,3.19,5.53,10.46,7.53,15.79,4.46,9.29-5.36,21.95-26.25,21.95-26.25,0,0-24.75.71-33.44,5.73Z"/>
        <path class="cls-14" d="M4204.19,989.81c5.62-3.25,7.55-10.44,4.3-16.06-3.19-5.53-10.46-7.53-15.79-4.46-9.29,5.36-21.95,26.25-21.95,26.25,0,0,24.75-.71,33.44-5.73Z"/>
      </g>
    </g>
    <g>
      <rect class="cls-16" x="3487.36" y="1228.45" width="188.08" height="188.08" transform="translate(113.83 2919.78) rotate(-45)"/>
      <g id="Visit_Beemster_logo-3" data-name="Visit Beemster logo">
        <path class="cls-11" d="M3585.26,1379.34h-32.36c-6.34,0-11.5-5.12-11.5-11.42v-90.85c0-6.41,5.02-11.43,11.42-11.43h32.14c17.78,0,32.8,14.82,32.8,32.36,0,7.39-2.71,15.02-7.49,21.21,7.1,6.49,11.13,15.57,11.13,25.18,0,19.6-15.87,34.95-36.14,34.95ZM3587.6,1286.13l-22.86,1.62,1.61,22.85,22.86-1.62-1.61-22.85Z"/>
        <path class="cls-5" d="M3575.53,1332.63l-.26-3.57.87-.06.05.68c.04.51.29.98.7,1.35.49.43,1.16.64,1.84.6.55-.04,1.04-.25,1.38-.59.35-.35.51-.81.48-1.32-.08-1.17-1.18-1.39-2.44-1.64-1.39-.28-2.97-.59-3.1-2.44-.05-.64.18-1.25.65-1.72.47-.47,1.15-.76,1.92-.82.86-.07,1.68.19,2.26.7l-.05-.71.85-.06.25,3.52-.85.06-.08-1.17c-.06-.79-1.05-1.44-2.14-1.44-.07,0-.13,0-.2,0-1.02.07-1.72.73-1.66,1.56.08,1.11,1.15,1.32,2.38,1.56,1.44.28,3.07.59,3.21,2.56.05.66-.17,1.31-.6,1.81-.52.6-1.29.96-2.18,1.03-.96.06-1.89-.27-2.48-.88l.07.93-.87.06Z"/>
        <path class="cls-5" d="M3583.16,1332.09l-.06-.85,1.53-.11-.54-7.48-1.54.11-.06-.85,4.04-.29.06.85-1.5.11.54,7.49,1.51-.11.06.85-4.04.29Z"/>
        <path class="cls-5" d="M3590.27,1331.58l-.06-.85,1.55-.11-.54-7.49-2.32.17.2,2.87-.86.06-.27-3.72,7.36-.53.27,3.72-.87.06-.21-2.87-2.32.17.54,7.49,1.51-.11.06.85-4.05.29Z"/>
        <polygon class="cls-5" points="3573.89 1331.89 3572.38 1332 3571.85 1324.51 3573.35 1324.4 3573.29 1323.55 3569.53 1323.82 3569.53 1323.82 3565.49 1324.11 3565.55 1324.97 3567.06 1324.86 3565.03 1331.9 3561.91 1325.23 3563.36 1325.12 3563.29 1324.27 3559.54 1324.54 3559.59 1325.39 3560.89 1325.3 3564.65 1333.42 3564.69 1333.5 3565.49 1333.44 3567.97 1324.79 3569.31 1324.69 3569.31 1324.69 3570.85 1324.58 3571.39 1332.07 3569.85 1332.18 3569.91 1333.03 3573.95 1332.74 3573.89 1331.89"/>
        <path class="cls-5" d="M3561.65,1347.76l-.06-.85,1.53-.11-.54-7.49-1.53.11-.06-.85,4.07-.29c.97-.07,1.73.14,2.25.61.52.48.67,1.12.71,1.58.06.89-.27,1.56-.98,2,1.06.31,1.66,1.03,1.74,2.08.09,1.3-.64,2.74-2.99,2.91l-4.15.3ZM3563.86,1343.22l.25,3.51,1.58-.11c.73-.05,1.3-.28,1.66-.65.32-.33.47-.78.43-1.28-.08-1.12-.93-1.68-2.42-1.57l-1.51.11ZM3563.58,1339.24l.22,3.12,1.37-.1c1.2-.09,1.93-.76,1.86-1.71-.03-.34-.23-1.43-1.73-1.43-.08,0-.16,0-.25,0l-1.48.11Z"/>
        <polygon class="cls-5" points="3587.36 1342.4 3586.5 1342.46 3586.69 1345.1 3582.28 1345.42 3582.03 1342 3584.31 1341.83 3584.45 1343.77 3585.28 1343.71 3584.94 1339.04 3584.12 1339.1 3584.25 1340.98 3581.97 1341.15 3581.74 1337.94 3586.15 1337.62 3586.34 1340.25 3587.21 1340.19 3586.95 1336.7 3579.12 1337.27 3579.18 1338.12 3580.75 1338.01 3581.28 1345.5 3579.72 1345.61 3579.78 1346.46 3587.62 1345.89 3587.36 1342.4"/>
        <polygon class="cls-5" points="3577.79 1343.09 3576.92 1343.15 3577.11 1345.8 3572.7 1346.11 3572.46 1342.69 3574.73 1342.52 3574.87 1344.46 3575.7 1344.4 3575.37 1339.73 3574.54 1339.79 3574.67 1341.67 3572.4 1341.84 3572.16 1338.63 3576.57 1338.31 3576.76 1340.94 3577.63 1340.88 3577.38 1337.39 3569.54 1337.96 3569.6 1338.81 3571.17 1338.7 3571.71 1346.18 3570.15 1346.3 3570.2 1347.15 3578.04 1346.59 3577.79 1343.09"/>
        <path class="cls-5" d="M3589.47,1345.76l-.06-.85,1.54-.11-.54-7.49-1.54.11-.06-.85,2.89-.21.04.08,3.24,6.48c.07.14.17.34.25.55.04-.16.08-.32.13-.47l2.31-7.07,2.92-.21.06.85-1.51.11.54,7.49,1.51-.11.06.85-4.02.29-.07-.85,1.52-.11-.52-7.2-2.71,8.29-.32.02-.04-.08-3.8-7.74.52,7.2,1.51-.11.06.85-3.92.28Z"/>
        <path class="cls-5" d="M3572.94,1361.12l-.06-.85,1.55-.11-.54-7.49-2.32.17.2,2.87-.86.06-.27-3.72,7.36-.53.27,3.72-.87.06-.21-2.87-2.32.17.54,7.49,1.5-.11.07.85-4.05.29Z"/>
        <path class="cls-5" d="M3563.81,1361.78l-.26-3.57.86-.06.05.67c.08,1.15,1.25,2.03,2.55,1.95,1.15-.08,1.93-.88,1.86-1.91-.08-1.17-1.18-1.39-2.44-1.64-1.39-.28-2.97-.59-3.11-2.44-.05-.64.18-1.25.65-1.72.47-.47,1.15-.76,1.92-.82.85-.06,1.69.2,2.26.7l-.05-.71.85-.06.26,3.66-.85.06-.09-1.31c-.03-.39-.3-.78-.74-1.05-.45-.28-1.03-.43-1.61-.38-.56.04-1.03.25-1.34.61-.24.27-.35.6-.32.95.08,1.12,1.15,1.32,2.38,1.56,1.44.28,3.07.59,3.22,2.56.11,1.5-1.09,2.72-2.78,2.84-.97.06-1.89-.27-2.48-.89l.06.93-.86.06Z"/>
        <polygon class="cls-5" points="3587.76 1356.53 3586.89 1356.59 3587.09 1359.24 3582.68 1359.56 3582.43 1356.14 3584.71 1355.97 3584.85 1357.91 3585.68 1357.84 3585.34 1353.18 3584.51 1353.24 3584.65 1355.12 3582.37 1355.28 3582.14 1352.07 3586.55 1351.76 3586.74 1354.39 3587.6 1354.33 3587.35 1350.84 3579.51 1351.41 3579.58 1352.26 3581.14 1352.15 3581.68 1359.63 3580.12 1359.74 3580.18 1360.6 3588.01 1360.03 3587.76 1356.53"/>
        <path class="cls-5" d="M3589.71,1359.9l-.06-.85,1.55-.11-.54-7.49-1.53.11-.06-.85,4.14-.3c2.76-.2,3.3,1.45,3.37,2.45.08,1.07-.42,1.86-1.44,2.32.11.07.2.14.27.21.42.44.66,1.13.71,2.06l.02.31c.02.35.1.6.23.71.08.07.18.09.31.08.22-.02.35-.09.42-.25.07-.15.13-.48.08-1.19l-.02-.21h0s-.12-1.73-.12-1.73l.9-.06.12,1.72h0s.06.76.06.76c.02.51-.08.94-.31,1.27-.25.35-.6.55-1.05.58h-.12c-.41,0-.74-.14-.99-.43-.25-.3-.39-.73-.43-1.31l-.03-.35c-.05-.75-.23-1.25-.51-1.47-.22-.17-.63-.24-1.21-.25,0,0-.09,0-.12,0l-1.37.1.22,3.12,1.51-.11.06.85-4.06.29ZM3591.66,1351.38l.25,3.51,1.51-.11c1.48-.11,2.25-.78,2.17-1.9-.09-1.16-.9-1.73-2.35-1.62l-1.58.11Z"/>
      </g>
    </g>
    <g>
      <rect class="cls-16" x="4079.93" y="1231.38" width="188.24" height="188.24" transform="translate(285.28 3339.73) rotate(-45)"/>
      <g id="Beemster_Vanzelf_logo-3" data-name="Beemster Vanzelf logo">
        <g>
          <path class="cls-6" d="M4137.34,1346.79h4.36c2.17,0,3.5,1.17,3.5,3.28,0,1.08-.51,1.92-1.31,2.33,1.22.48,1.94,1.5,1.94,3.07,0,2.31-1.5,3.67-3.99,3.67h-4.5v-12.36ZM4141.61,1351.72c1.11,0,1.68-.48,1.68-1.55s-.57-1.55-1.71-1.55h-2.28v3.11h2.31ZM4141.63,1357.33c1.54,0,2.24-.62,2.24-1.89s-.71-1.91-2.24-1.91h-2.33v3.8h2.33Z"/>
          <path class="cls-6" d="M4155.74,1355.2h-6.34c.16,1.55,1.02,2.47,2.35,2.47,1.08,0,1.75-.48,2.33-1.54l1.54.6c-.78,1.71-2,2.56-3.96,2.56-2.74,0-4.17-2.22-4.17-4.59s1.43-4.59,4.17-4.59,4.08,2.12,4.08,4.31v.78ZM4153.83,1353.68c-.21-1.15-.92-1.94-2.17-1.94-1.06,0-1.89.69-2.17,1.94h4.34Z"/>
          <path class="cls-6" d="M4165.54,1355.2h-6.34c.16,1.55,1.02,2.47,2.35,2.47,1.08,0,1.75-.48,2.33-1.54l1.54.6c-.78,1.71-2,2.56-3.96,2.56-2.74,0-4.17-2.22-4.17-4.59s1.43-4.59,4.17-4.59,4.08,2.12,4.08,4.31v.78ZM4163.63,1353.68c-.21-1.15-.92-1.94-2.17-1.94-1.06,0-1.89.69-2.17,1.94h4.34Z"/>
          <path class="cls-6" d="M4167.59,1350.25h1.87v1.55c.67-1.13,1.55-1.7,2.63-1.7,1.22,0,2.12.62,2.47,1.87.64-1.15,1.66-1.87,2.77-1.87,1.7,0,2.61,1.01,2.61,2.79v6.25h-1.85v-5.95c0-1.01-.41-1.47-1.25-1.47-1.2,0-2.14,1.36-2.14,3.81v3.6h-1.85v-5.95c0-1.01-.41-1.47-1.25-1.47-1.25,0-2.14,1.43-2.14,3.96v3.46h-1.87v-8.9Z"/>
          <path class="cls-6" d="M4183.26,1356.08c.37,1.06,1.02,1.59,1.92,1.59.69,0,1.18-.39,1.18-1.08,0-.62-.65-.99-1.87-1.47-1.4-.51-2.15-1.25-2.15-2.58s1.17-2.44,2.72-2.44c1.2,0,2.14.49,2.68,1.43l-1.15,1.04c-.37-.57-.88-.85-1.52-.85-.57,0-.99.34-.99.85s.44.85,1.87,1.4c1.45.51,2.17,1.36,2.17,2.51,0,1.71-1.18,2.81-2.95,2.81s-3.05-1.08-3.43-2.42l1.5-.79Z"/>
          <path class="cls-6" d="M4190.28,1351.88h-1.43v-1.62h1.43v-2.42l1.87-1.18v3.6h2.37v1.62h-2.37v4.34c0,1.04.41,1.45,1.18,1.45.35,0,.67-.07.94-.23l.44,1.54c-.42.21-.92.32-1.47.32-1.85,0-2.97-1.04-2.97-3.11v-4.31Z"/>
          <path class="cls-6" d="M4203.67,1355.2h-6.34c.16,1.55,1.02,2.47,2.35,2.47,1.08,0,1.75-.48,2.33-1.54l1.54.6c-.78,1.71-2,2.56-3.96,2.56-2.74,0-4.17-2.22-4.17-4.59s1.43-4.59,4.17-4.59,4.08,2.12,4.08,4.31v.78ZM4201.76,1353.68c-.21-1.15-.92-1.94-2.17-1.94-1.06,0-1.89.69-2.17,1.94h4.34Z"/>
          <path class="cls-6" d="M4205.72,1350.25h1.87v1.48c.58-1.06,1.55-1.62,2.63-1.62.34,0,.72.07,1.15.21l-.35,1.73c-.3-.18-.64-.26-1.02-.26-1.4,0-2.4,1.34-2.4,4.11v3.25h-1.87v-8.9Z"/>
          <path class="cls-6" d="M4153.97,1363.22h2.14l3.06,9.61,3.07-9.61h2.14l-4.2,12.36h-2l-4.2-12.36Z"/>
          <path class="cls-6" d="M4165.45,1367.81c.69-.85,1.64-1.27,2.88-1.27,1.06,0,1.98.44,2.47,1.08v-.94h1.87v8.9h-1.87v-1.02c-.35.62-1.32,1.17-2.47,1.17-1.24,0-2.19-.42-2.88-1.25-.69-.85-1.02-1.96-1.02-3.34s.34-2.49,1.02-3.32ZM4168.69,1368.16c-1.36,0-2.31,1.15-2.31,2.97s.95,2.97,2.31,2.97,2.3-1.15,2.3-2.97-.9-2.97-2.3-2.97Z"/>
          <path class="cls-6" d="M4175.22,1366.68h1.87v1.55c.65-1.04,1.7-1.7,2.84-1.7,1.64,0,2.74.99,2.74,2.75v6.29h-1.85v-5.79c0-1.08-.53-1.62-1.45-1.62-1.24,0-2.28,1.41-2.28,3.76v3.66h-1.87v-8.9Z"/>
          <path class="cls-6" d="M4184.51,1374.82l4.06-6.52h-3.8v-1.62h6.13v.78l-4.01,6.5h4.24v1.62h-6.62v-.76Z"/>
          <path class="cls-6" d="M4200.53,1371.63h-6.34c.16,1.55,1.02,2.47,2.35,2.47,1.08,0,1.75-.48,2.33-1.54l1.54.6c-.78,1.71-2,2.56-3.96,2.56-2.74,0-4.17-2.22-4.17-4.59s1.43-4.59,4.17-4.59,4.08,2.12,4.08,4.31v.78ZM4198.62,1370.11c-.21-1.15-.92-1.94-2.17-1.94-1.06,0-1.89.69-2.17,1.94h4.34Z"/>
          <path class="cls-6" d="M4202.58,1363.08h1.87v12.5h-1.87v-12.5Z"/>
          <path class="cls-6" d="M4207.11,1368.31h-1.22v-1.62h1.22v-.49c0-2.07,1.11-3.11,2.97-3.11.62,0,1.11.11,1.48.32l-.41,1.54c-.34-.16-.67-.23-1.01-.23-.79,0-1.18.44-1.18,1.32v.65h1.96v1.62h-1.96v7.28h-1.85v-7.28Z"/>
          <path class="cls-6" d="M4140.85,1388.94c.37,1.06,1.02,1.59,1.92,1.59.69,0,1.18-.39,1.18-1.08,0-.62-.65-.99-1.87-1.47-1.4-.51-2.15-1.25-2.15-2.58s1.17-2.44,2.72-2.44c1.2,0,2.14.49,2.68,1.43l-1.15,1.04c-.37-.57-.88-.85-1.52-.85-.57,0-.99.34-.99.85s.44.85,1.87,1.4c1.45.51,2.17,1.36,2.17,2.51,0,1.71-1.18,2.81-2.95,2.81s-3.06-1.08-3.43-2.42l1.5-.79Z"/>
          <path class="cls-6" d="M4147.51,1383.11h1.87v1.02c.35-.62,1.29-1.17,2.35-1.17,2.6,0,4.03,1.82,4.03,4.59s-1.43,4.59-4.03,4.59c-.92,0-1.91-.46-2.35-1.09v4.56h-1.87v-12.5ZM4151.5,1384.59c-1.36,0-2.3,1.15-2.3,2.97s.94,2.97,2.3,2.97,2.31-1.15,2.31-2.97-.92-2.97-2.31-2.97Z"/>
          <path class="cls-6" d="M4157.81,1383.11h1.87v1.48c.58-1.06,1.55-1.62,2.63-1.62.34,0,.72.07,1.15.21l-.35,1.73c-.3-.18-.64-.26-1.02-.26-1.4,0-2.4,1.34-2.4,4.11v3.25h-1.87v-8.9Z"/>
          <path class="cls-6" d="M4172.29,1388.05h-6.34c.16,1.55,1.02,2.47,2.35,2.47,1.08,0,1.75-.48,2.33-1.54l1.54.6c-.78,1.71-2,2.56-3.96,2.56-2.74,0-4.17-2.22-4.17-4.59s1.43-4.59,4.17-4.59,4.08,2.12,4.08,4.31v.78ZM4170.38,1386.53c-.21-1.15-.92-1.94-2.17-1.94-1.06,0-1.89.69-2.17,1.94h4.34Z"/>
          <path class="cls-6" d="M4174.34,1379.51h1.87v7.22l3.14-3.62h2.3l-3.64,4.1,3.9,4.8h-2.3l-3.41-4.34v4.34h-1.87v-12.5Z"/>
          <path class="cls-6" d="M4190.55,1388.05h-6.34c.16,1.55,1.02,2.47,2.35,2.47,1.08,0,1.75-.48,2.33-1.54l1.54.6c-.78,1.71-2,2.56-3.96,2.56-2.74,0-4.17-2.22-4.17-4.59s1.43-4.59,4.17-4.59,4.08,2.12,4.08,4.31v.78ZM4188.64,1386.53c-.21-1.15-.92-1.94-2.17-1.94-1.06,0-1.89.69-2.17,1.94h4.34Z"/>
          <path class="cls-6" d="M4192.6,1383.11h1.87v1.55c.65-1.04,1.7-1.7,2.84-1.7,1.64,0,2.74.99,2.74,2.75v6.29h-1.85v-5.79c0-1.08-.53-1.62-1.45-1.62-1.24,0-2.28,1.41-2.28,3.76v3.66h-1.87v-8.9Z"/>
          <path class="cls-6" d="M4203.12,1384.24c.69-.85,1.64-1.27,2.88-1.27,1.06,0,1.98.44,2.47,1.08v-4.54h1.87v12.5h-1.87v-1.02c-.35.62-1.32,1.17-2.47,1.17-1.24,0-2.19-.42-2.88-1.25-.69-.85-1.02-1.96-1.02-3.34s.34-2.49,1.02-3.32ZM4206.35,1384.59c-1.36,0-2.31,1.15-2.31,2.97s.95,2.97,2.31,2.97,2.3-1.15,2.3-2.97-.9-2.97-2.3-2.97Z"/>
        </g>
        <g>
          <polygon class="cls-15" points="4136.54 1288.51 4136.54 1318.08 4151.32 1318.08 4151.32 1332.87 4158.72 1318.08 4166.11 1318.08 4166.11 1288.51 4136.54 1288.51"/>
          <polygon class="cls-12" points="4151.32 1258.94 4151.32 1288.51 4166.11 1288.51 4166.11 1303.3 4173.5 1288.51 4180.89 1288.51 4180.89 1258.94 4151.32 1258.94"/>
          <polygon class="cls-5" points="4180.89 1273.79 4180.89 1303.36 4195.68 1303.36 4195.68 1318.15 4203.07 1303.36 4210.46 1303.36 4210.46 1273.79 4180.89 1273.79"/>
          <polygon class="cls-6" points="4166.11 1303.3 4166.11 1332.87 4180.89 1332.87 4180.89 1347.66 4188.29 1332.87 4195.68 1332.87 4195.68 1303.3 4166.11 1303.3"/>
        </g>
      </g>
    </g>
    <g>
      <rect class="cls-2" x="3634.26" y="1084.03" width="188.23" height="188.23" transform="translate(258.94 2981.43) rotate(-45)"/>
      <g id="Wegen_dijken_bruggen-3" data-name="Wegen, dijken, bruggen">
        <circle class="cls-11" cx="3774.66" cy="1143.27" r="16.64"/>
        <line class="cls-33" x1="3774.66" y1="1135.06" x2="3774.66" y2="1173.2"/>
        <circle class="cls-11" cx="3728.37" cy="1143.27" r="16.64"/>
        <line class="cls-33" x1="3728.37" y1="1136.09" x2="3728.37" y2="1174.23"/>
        <circle class="cls-11" cx="3680.55" cy="1143.27" r="16.64"/>
        <line class="cls-33" x1="3680.55" y1="1136.09" x2="3680.55" y2="1174.23"/>
        <polygon class="cls-11" points="3778.17 1173.06 3655.01 1173.06 3646.1 1215.72 3778.17 1173.06"/>
        <polygon class="cls-11" points="3670.65 1215.72 3809.54 1215.72 3802.73 1173.06 3670.65 1215.72"/>
      </g>
    </g>
    <g>
      <rect class="cls-14" x="3929.54" y="494.42" width="187.43" height="187.43" transform="translate(762.51 3017.13) rotate(-45)"/>
      <g id="Historische_figuren-3" data-name="Historische figuren">
        <path class="cls-4" d="M3995.64,573.25c0-5.31,4.3-9.62,9.62-9.62s9.62,4.3,9.62,9.62h-19.23Z"/>
        <path class="cls-4" d="M4031.52,573.25c0-5.31,4.3-9.62,9.62-9.62s9.62,4.3,9.62,9.62h-19.23Z"/>
        <path class="cls-16" d="M4009.21,589.91c5.31-1.49,10.82,1.61,12.31,6.92,1.46,5.23-1.64,10.83-6.67,12.24-8.77,2.46-28.98-2.25-28.98-2.25,0,0,15.13-14.61,23.33-16.91Z"/>
        <path class="cls-16" d="M4037.57,589.91c-5.31-1.49-10.82,1.61-12.31,6.92s1.64,10.83,6.67,12.24c8.77,2.46,28.98-2.25,28.98-2.25,0,0-15.13-14.61-23.33-16.91Z"/>
        <path class="cls-16" d="M4042.75,629.07c0-10.8-8.76-19.56-19.56-19.56s-19.56,8.81-19.56,19.04c0,17.84,19.56,53.46,19.56,53.46,0,0,19.56-36.25,19.56-52.94Z"/>
        <rect class="cls-4" x="4002.94" y="499.77" width="38.12" height="49.15"/>
        <path class="cls-22" d="M4056.95,536.71c-19.3,19.3-50.59,19.3-69.89,0"/>
      </g>
    </g>
    <rect class="cls-15" x="3784.1" y="639.36" width="187.93" height="187.93" transform="translate(617.32 2956.99) rotate(-45)"/>
    <path id="Werelderfgoed-3" data-name="Werelderfgoed" class="cls-34" d="M3941.19,733.66c0-34.86-28.26-63.12-63.12-63.12s-63.12,28.26-63.12,63.12c0,31.57,23.19,57.72,53.46,62.37l.15-28.45-34.87-34.35,44.32-44.3,44.27,44.25-34.84,34.28-.15,28.62c30.49-4.47,53.9-30.71,53.9-62.43Z"/>
    <g>
      <rect class="cls-16" x="3783.79" y="345.88" width="188.54" height="188.54" transform="translate(824.62 2871.12) rotate(-45)"/>
      <g id="BK_logo-3" data-name="BK logo">
        <path class="cls-6" d="M3887.3,537.4l-18.63-11.13c-1.19-.71-1.62-2.32-.95-3.59l17.25-32.54c.67-1.27,2.19-1.72,3.38-1l18.63,11.13c1.19.71,1.62,2.32.95,3.59l-17.25,32.54c-.67,1.27-2.19,1.72-3.38,1Z"/>
        <path class="cls-5" d="M3885.24,540.39l-22.52-6.13c-1.44-.39-2.31-1.95-1.94-3.49l9.49-39.33c.37-1.53,1.84-2.46,3.28-2.06l22.52,6.13c1.44.39,2.31,1.95,1.94,3.49l-9.49,39.33c-.37,1.53-1.84,2.46-3.28,2.06Z"/>
        <path class="cls-15" d="M3883.6,536.07l-21.38.25c-1.37.02-2.49-1.15-2.51-2.61l-.38-37.34c-.01-1.46,1.08-2.65,2.46-2.66l21.38-.25c1.37-.02,2.49,1.15,2.51,2.61l.38,37.34c.01,1.46-1.08,2.65-2.46,2.66Z"/>
        <path class="cls-12" d="M3881.09,536.01l-20.59,6.11c-1.32.39-2.69-.43-3.06-1.83l-9.47-35.96c-.37-1.4.4-2.86,1.72-3.25l20.59-6.11c1.32-.39,2.69.43,3.06,1.83l9.47,35.96c.37,1.4-.4,2.86-1.72,3.25Z"/>
      </g>
      <g>
        <path class="cls-12" d="M3763.07,435.98l7.46-7.38c5.13-5.07,9.69-4.86,14.49,0l1.24,1.26c3.2,3.24,4.21,6.24,2.9,9.32l.09.09c3.54-1.72,6.89-.41,10.18,2.92l2.67,2.7c4.8,4.86,4.82,10-.13,14.89l-7.78,7.69-31.11-31.48ZM3782.62,442c1.84-1.82,2.17-3.74-.32-6.26l-1.73-1.75c-2.22-2.25-3.96-2.48-5.72-.75l-2.38,2.36,8.22,8.32,1.93-1.91ZM3797.52,455.27c1.66-1.64,1.81-3.3-.5-5.64l-2.71-2.74c-2.89-2.92-4.72-2.89-6.97-.67l-2.2,2.18,9.56,9.67,2.83-2.8Z"/>
        <path class="cls-15" d="M3788.9,412.84l16.04-10.13,3.38,5.35-10.16,6.41,6.24,9.89,8.07-5.1,3.38,5.35-8.07,5.1,7.26,11.5,10.16-6.41,3.38,5.35-16.04,10.13-23.63-37.43Z"/>
        <path class="cls-5" d="M3816.27,397.26l17.77-6.63,2.21,5.92-11.26,4.2,4.09,10.96,8.95-3.34,2.21,5.92-8.95,3.34,4.75,12.74,11.26-4.2,2.21,5.92-17.77,6.63-15.47-41.47Z"/>
        <path class="cls-6" d="M3847.77,386.88l9.75-1.01,7.9,31.47,1.28-32.43,9.75-1.01,4.56,44.03-6.54.68-3.45-33.33-1.71,33.87-5.79.6-8.61-32.8,3.45,33.33-6.04.62-4.56-44.03Z"/>
        <path class="cls-12" d="M3885.85,418.15l.38-2.5,6.5.99-.46,3c-.47,3.13.73,4.46,2.92,4.79,2.19.33,3.8-.57,4.29-3.83.55-3.63-.61-6.1-4.51-10.73-4.98-5.94-6.37-9.86-5.61-14.86,1.04-6.88,5.22-10.34,11.9-9.32s9.39,5.52,8.33,12.52l-.28,1.81-6.5-.99.34-2.25c.47-3.13-.6-4.5-2.78-4.84s-3.68.66-4.14,3.66c-.48,3.19.74,5.68,4.64,10.3,4.98,5.94,6.32,9.78,5.49,15.22-1.08,7.13-5.32,10.58-12.07,9.55-6.75-1.03-9.52-5.54-8.46-12.54Z"/>
        <path class="cls-15" d="M3926.66,399.11l-6.8-2.57,2.23-5.92,20.11,7.6-2.23,5.92-6.8-2.57-13.41,35.49-6.51-2.46,13.41-35.49Z"/>
        <path class="cls-5" d="M3953.05,403.9l15.98,10.21-3.41,5.33-10.12-6.47-6.3,9.86,8.05,5.14-3.41,5.33-8.05-5.14-7.32,11.46,10.12,6.47-3.4,5.33-15.98-10.21,23.83-37.3Z"/>
        <path class="cls-6" d="M3979.11,422.21l7.29,7.28c5.1,5.09,4.92,9.66.1,14.49l-1.92,1.92c-3.22,3.22-6.3,4.25-9.39,2.96l-.09.09c1.7,3.22.18,6.35-3.35,9.88l-5.5,5.5c-1.52,1.52-2.59,2.68-3.26,4.34l-5.01-5c.54-1.07.85-1.74,3.4-4.29l5.72-5.73c2.9-2.91,2.99-4.7.76-6.93l-1.7-1.7-13.41,13.42-4.92-4.92,31.28-31.32ZM3972.41,442.34c1.83,1.83,3.76,2.14,6.26-.36l2.41-2.42c2.23-2.24,2.46-3.98.71-5.72l-2.24-2.23-8.94,8.95,1.79,1.79Z"/>
      </g>
      <g>
        <path class="cls-6" d="M3818.6,483.03l1.13,4.02,6.32,6.82-3.41,3.16-20.12-21.71,3.41-3.16,8.65,9.34-4.37-13.3,3.47-3.22,3.32,11.74,16.86,9.92-3.57,3.31-11.71-6.91Z"/>
        <path class="cls-6" d="M3822.5,458.41l4.02-1.97,12.09,19.87-8.18-21.79,4.56-2.23,12.21,19.82-8.3-21.74,3.61-1.77,10.33,27.9-5.2,2.55-10.89-17.31,7.01,19.21-5.54,2.72-15.72-25.25Z"/>
        <path class="cls-6" d="M3866.71,467.55l-5.29.92.2,5.84-4.25.74-.34-29.98,6.21-1.08,9.83,28.33-4.58.8-1.79-5.57ZM3865.44,463.69l-4.65-14.34.52,15.06,4.12-.72Z"/>
        <path class="cls-6" d="M3878.91,442.77l6.87.51c4.81.35,6.71,2.74,6.37,7.29l-.13,1.81c-.22,3.04-1.34,4.9-3.46,5.6v.08c2.26.89,2.86,3.14,2.61,6.47l-.38,5.19c-.11,1.43-.14,2.49.24,3.62l-4.72-.35c-.2-.78-.33-1.25-.16-3.66l.4-5.4c.2-2.74-.53-3.69-2.64-3.84l-1.6-.12-.93,12.65-4.64-.34,2.17-29.52ZM3884.31,455.89c1.73.13,2.84-.55,3.01-2.92l.17-2.28c.16-2.11-.49-3.09-2.14-3.21l-2.11-.16-.62,8.43,1.69.12Z"/>
        <path class="cls-6" d="M3906.26,451.27l-4.63-1.49,1.3-4.02,13.68,4.41-1.3,4.02-4.63-1.49-7.78,24.15-4.43-1.43,7.78-24.15Z"/>
        <path class="cls-6" d="M3926.14,454.65l10.88,6.52-2.17,3.63-6.89-4.13-4.02,6.71,5.48,3.28-2.17,3.63-5.48-3.28-4.67,7.8,6.89,4.13-2.17,3.63-10.88-6.52,15.21-25.39Z"/>
        <path class="cls-6" d="M3945.21,473.38l-3.5-3.37,2.93-3.04,10.35,9.97-2.93,3.04-3.5-3.37-17.6,18.27-3.35-3.23,17.6-18.27Z"/>
      </g>
    </g>
    <g id="Menu-2" data-name="Menu">
      <line class="cls-36" x1="4134.78" y1="414.54" x2="4203.12" y2="414.54"/>
      <line class="cls-36" x1="4134.78" y1="436.46" x2="4203.12" y2="436.46"/>
      <line class="cls-36" x1="4134.78" y1="458.39" x2="4203.12" y2="458.39"/>
    </g>
  </g>
</svg>