<?xml version="1.0" encoding="utf-8"?>
<!-- Generator: Adobe Illustrator 28.2.0, SVG Export Plug-In . SVG Version: 6.00 Build 0)  -->
<svg version="1.1" xmlns="http://www.w3.org/2000/svg" xmlns:xlink="http://www.w3.org/1999/xlink" x="0px" y="0px"
	 viewBox="0 0 960 960" style="enable-background:new 0 0 960 960;" xml:space="preserve">
<style type="text/css">
	.st0{fill:#455D9A;}
	.st1{fill:#FFCC33;}
	.st2{fill:#339933;}
	.st3{fill:#CC112F;}
</style>
<g id="Laag_2">
</g>
<g id="Laag_1">
	<path class="st0" d="M524.01,764.11l-75.06-44.86c-4.81-2.88-6.52-9.35-3.81-14.46l69.5-131.1c2.71-5.11,8.81-6.92,13.62-4.05
		l75.06,44.86c4.81,2.88,6.52,9.35,3.81,14.46l-69.5,131.1C534.92,765.17,528.82,766.98,524.01,764.11z"/>
	<path class="st1" d="M517.45,774.42l-90.72-24.69c-5.82-1.58-9.33-7.87-7.84-14.05l38.25-158.46c1.49-6.18,7.42-9.9,13.24-8.32
		l90.72,24.69c5.82,1.58,9.33,7.87,7.84,14.05L530.69,766.1C529.2,772.28,523.27,776.01,517.45,774.42z"/>
	<path class="st2" d="M510.87,757l-86.13,1c-5.52,0.06-10.05-4.64-10.11-10.5l-1.55-150.43c-0.06-5.87,4.37-10.67,9.89-10.74
		l86.13-1c5.52-0.06,10.05,4.64,10.11,10.5l1.55,150.43C520.82,752.13,516.39,756.94,510.87,757z"/>
	<path class="st3" d="M500.76,755.72l-82.95,24.63c-5.32,1.58-10.84-1.72-12.33-7.37L367.32,628.1c-1.49-5.65,1.62-11.51,6.94-13.09
		l82.95-24.63c5.32-1.58,10.84,1.72,12.33,7.37l38.17,144.88C509.19,748.28,506.08,754.14,500.76,755.72z"/>
	<g>
		<path class="st3" d="M45,375.14l30.46-28.78c22.02-20.81,42.42-18.78,61.66,1.58c9.7,10.26,15.56,25.09,9.39,38.45
			c14.81-5.22,28.75-2.73,43.3,12.66c18.61,19.7,23.92,42.89,0.58,64.94l-32.44,30.66L45,375.14z M111.83,404.74l7.45-7.04
			c7.78-7.35,8.74-18.28-0.65-28.21c-10.48-11.09-20.26-12.82-29.36-4.21l-7.78,7.35L111.83,404.74z M162.51,458.38l8.61-8.14
			c10.92-10.32,8.96-20.37-2.47-32.45c-11.57-12.25-22-13.99-34.25-2.42l-6.62,6.26L162.51,458.38z"/>
		<path class="st2" d="M233.3,426.64l-84.42-141.11l64.89-38.82l12.63,21.11l-40.65,24.32l21.75,36.35l31.27-18.71l12.63,21.11
			l-31.27,18.71l24.79,41.43l43.39-25.96l12.63,21.11L233.3,426.64z"/>
		<path class="st1" d="M310.36,382.33l-53.94-155.32l71.43-24.8l8.07,23.23l-44.75,15.54l13.89,40.01l34.42-11.95l8.07,23.24
			l-34.42,11.95l15.84,45.61l47.76-16.58l8.07,23.24L310.36,382.33z"/>
		<path class="st0" d="M491.74,179.25l14.39,163.77l-24.49,2.15L470.4,217.24l-0.45,0.04l-14.16,130.16l-13.61,1.2l-36.65-125.7
			l-0.46,0.04l11.25,127.93l-24.5,2.15L377.42,189.3l36.97-3.25l28.38,93.96l0.45-0.04l11.55-97.47L491.74,179.25z"/>
		<path class="st3" d="M588.9,231.45c1.06-14.12-5.73-19.34-12.04-20.32c-9-1.41-14.86,3.67-16.45,13.79
			c-4.33,27.67,50.29,49.82,43.39,93.91c-4.19,26.77-24.51,38.8-50.61,34.72c-25.87-4.05-37.49-27.07-34.81-51.54l27.14,0.33
			c-1.44,16.6,3.81,25.72,12.82,27.13c9.67,1.51,17.01-2.64,18.52-12.32c5.03-32.17-50.32-49.59-43.04-96.16
			c4.05-25.87,22.09-38.03,49.54-33.74c22.72,3.56,33.65,22.09,32.53,45.42L588.9,231.45z"/>
		<path class="st2" d="M670.1,235.99l-25.68-9.32l8.39-23.12l77.9,28.27l-8.39,23.11l-25.68-9.32l-47.69,131.41l-26.54-9.63
			L670.1,235.99z"/>
		<path class="st1" d="M679.07,388.91l84.5-141.02l64.85,38.86l-12.64,21.09l-40.63-24.34l-21.77,36.33l31.25,18.73l-12.64,21.09
			l-31.25-18.73l-24.82,41.41l43.36,25.99l-12.63,21.09L679.07,388.91z"/>
		<path class="st0" d="M775.31,454.85l-20.51-19.41l113.03-119.43l28.78,27.24c22.99,21.76,25.5,42.63,1.39,68.11
			c-18.16,19.19-32.96,19.92-42.88,16.49l-33.82,70.52l-20.84-19.72l32.25-63.23c-2.96-2.17-7.42-6.08-11.06-9.52L775.31,454.85z
			 M837.62,389.01l7.28,6.89c11.08,10.49,19.13,10.27,32.59-3.96c13.47-14.23,13.25-22.28,2.16-32.76l-7.28-6.89L837.62,389.01z"/>
	</g>
	<g>
		<path class="st0" d="M269.97,599.83l-73.22-72.15l12.39-12.58l27.08,26.68l0.2-0.2l-14.08-39.86l12.39-12.58l13.89,40.47
			l61.03,29.96l-12.59,12.78l-44.17-23.33l-0.2,0.2l3.72,12.46l25.96,25.58L269.97,599.83z"/>
		<path class="st0" d="M299.89,444.7l12.82-6.82l41.3,52.19l0.25-0.13l-22.07-62.41l14.58-7.75l32.29,99.21l-13.07,6.95
			l-43.19-53.92l-0.25,0.13l21.32,65.55l-13.07,6.95l-65.46-81.57l14.58-7.75l40.29,52.73l0.25-0.13L299.89,444.7z"/>
		<path class="st0" d="M418.72,506.88l-16.73,3.4l-1.89-104.44l21.47-4.36l38.99,96.91l-16.73,3.4l-7.6-21.69l-18.96,3.85
			L418.72,506.88z M416.71,468.38l13.94-2.83l-15.61-41.84l-0.28,0.06L416.71,468.38z"/>
		<path class="st0" d="M496.64,498.68l-17.61-1.13l6.57-102.54l24.71,1.58c19.74,1.26,29.29,10.29,27.88,32.16
			c-1.06,16.47-7.87,22.74-14.01,25.06l11.93,47.4l-17.89-1.15l-9.78-43.27c-2.28,0.14-5.99,0.04-9.11-0.16L496.64,498.68z
			 M500.27,442.15l6.25,0.4c9.51,0.61,13.3-2.71,14.08-14.93c0.78-12.21-2.54-15.99-12.06-16.6l-6.25-0.4L500.27,442.15z"/>
		<path class="st0" d="M594.71,427l-16.22-5.33l4.8-14.59l49.19,16.17l-4.8,14.6l-16.22-5.33l-27.28,82.97l-16.75-5.51L594.71,427z"
			/>
		<path class="st0" d="M617.46,529.2l54.47-87.08l40.04,25.05l-8.15,13.03l-25.09-15.69l-14.03,22.43l19.3,12.07l-8.14,13.03
			l-19.3-12.07l-16,25.57l26.77,16.75l-8.14,13.02L617.46,529.2z"/>
		<path class="st0" d="M746.01,516.51l-11.92-12.23l11-10.72l36.15,37.09l-11,10.73l-11.92-12.23l-62.57,60.98l-12.32-12.63
			L746.01,516.51z"/>
	</g>
</g>
</svg>
