<?xml version="1.0" encoding="UTF-8"?>
<svg xmlns="http://www.w3.org/2000/svg" version="1.1" viewBox="0 0 480 480">
  <defs>
    <style>
      .cls-1, .cls-2, .cls-3 {
        display: none;
      }

      .cls-1, .cls-4, .cls-5, .cls-6, .cls-7, .cls-8, .cls-9, .cls-10, .cls-11, .cls-12, .cls-13, .cls-14, .cls-15, .cls-16, .cls-17, .cls-18, .cls-19, .cls-20, .cls-21 {
        stroke-width: 0px;
      }

      .cls-1, .cls-6 {
        fill: #4d4d4d;
      }

      .cls-2, .cls-22, .cls-23, .cls-24, .cls-25, .cls-26, .cls-27, .cls-28, .cls-29, .cls-30, .cls-31, .cls-32, .cls-33, .cls-34, .cls-35, .cls-36, .cls-37, .cls-38, .cls-39, .cls-40, .cls-41, .cls-42, .cls-43, .cls-44, .cls-45, .cls-46, .cls-47 {
        fill: none;
      }

      .cls-2, .cls-23, .cls-25, .cls-27, .cls-48, .cls-28, .cls-30, .cls-32, .cls-49, .cls-33, .cls-34, .cls-35, .cls-36, .cls-37, .cls-39, .cls-40, .cls-42, .cls-46 {
        stroke-miterlimit: 10;
      }

      .cls-2, .cls-23, .cls-30, .cls-39, .cls-42, .cls-45, .cls-46 {
        stroke-width: 12px;
      }

      .cls-2, .cls-26, .cls-48, .cls-49, .cls-33, .cls-34, .cls-35, .cls-39, .cls-40, .cls-41, .cls-45 {
        stroke: #fff;
      }

      .cls-22, .cls-24, .cls-26, .cls-29, .cls-31, .cls-38, .cls-41, .cls-43, .cls-44, .cls-45, .cls-47 {
        stroke-linejoin: bevel;
      }

      .cls-22, .cls-29, .cls-44, .cls-47 {
        stroke-width: 24.97px;
      }

      .cls-22, .cls-43 {
        stroke: #c03;
      }

      .cls-23, .cls-28, .cls-36, .cls-37 {
        stroke: #9c3;
      }

      .cls-4 {
        fill: #f90;
      }

      .cls-24, .cls-31, .cls-38, .cls-43 {
        stroke-width: 13.86px;
      }

      .cls-24, .cls-32, .cls-42, .cls-44 {
        stroke: #393;
      }

      .cls-5 {
        fill: #636;
      }

      .cls-25 {
        stroke-width: 6.63px;
      }

      .cls-25, .cls-30 {
        stroke: #633;
      }

      .cls-26, .cls-36 {
        stroke-width: 6.67px;
      }

      .cls-27 {
        stroke-width: 6.68px;
      }

      .cls-27, .cls-46 {
        stroke: #4d4d4d;
      }

      .cls-48 {
        stroke-width: 24px;
      }

      .cls-48, .cls-49 {
        fill: #333;
      }

      .cls-7 {
        fill: #c06;
      }

      .cls-28, .cls-41 {
        stroke-width: 6.85px;
      }

      .cls-8 {
        fill: #455d9a;
      }

      .cls-29, .cls-38 {
        stroke: #369;
      }

      .cls-31, .cls-47 {
        stroke: #fc0;
      }

      .cls-32 {
        stroke-width: 6.71px;
      }

      .cls-49 {
        stroke-width: 13.51px;
      }

      .cls-9 {
        fill: #633;
      }

      .cls-33 {
        stroke-width: 6.37px;
      }

      .cls-10 {
        fill: #fc0;
      }

      .cls-11 {
        fill: #369;
      }

      .cls-34 {
        stroke-width: 6.43px;
      }

      .cls-35 {
        stroke-width: 6.7px;
      }

      .cls-12 {
        fill: #c90;
      }

      .cls-37 {
        stroke-width: 6.66px;
      }

      .cls-40 {
        stroke-width: 11.59px;
      }

      .cls-13 {
        fill: #096;
      }

      .cls-14 {
        fill: #fc3;
      }

      .cls-15 {
        fill: #9c3;
      }

      .cls-16 {
        fill: #09c;
      }

      .cls-17 {
        fill: #c03;
      }

      .cls-18 {
        fill: #cc112f;
      }

      .cls-19 {
        fill: #f9c;
      }

      .cls-20 {
        fill: #393;
      }

      .cls-21 {
        fill: #fff;
      }
    </style>
  </defs>
  <g id="Icons_los" data-name="Icons los">
    <rect class="cls-7" x="70.29" y="70.29" width="339.41" height="339.41" transform="translate(-99.41 240) rotate(-45)"/>
    <g id="Dieren" class="cls-3">
      <line class="cls-46" x1="153.91" y1="182.94" x2="153.91" y2="340"/>
      <line class="cls-46" x1="180.64" y1="182.94" x2="180.64" y2="340"/>
      <line class="cls-46" x1="246.07" y1="182.94" x2="246.07" y2="340"/>
      <line class="cls-46" x1="273.29" y1="182.94" x2="273.29" y2="340"/>
      <circle class="cls-21" cx="214.24" cy="194.09" r="54.09"/>
      <circle class="cls-21" cx="214.24" cy="248.17" r="54.09"/>
      <circle class="cls-21" cx="271.27" cy="195.83" r="44.13"/>
      <circle class="cls-21" cx="271.27" cy="240" r="44.13"/>
      <circle class="cls-21" cx="148.23" cy="195.83" r="44.13"/>
      <circle class="cls-21" cx="148.23" cy="239.96" r="44.13"/>
      <g>
        <path class="cls-6" d="M262.11,182.94c.05,16,13.04,28.96,29.06,28.96v-28.96h-29.06Z"/>
        <path class="cls-6" d="M377.89,182.94c-.05,16-13.04,28.96-29.06,28.96v-28.96h29.06Z"/>
        <path class="cls-6" d="M320,269.43c-15.92,0-28.83-12.91-28.83-28.83v-57.66h57.66v57.66c0,15.92-12.91,28.83-28.83,28.83Z"/>
      </g>
    </g>
    <path id="Werelderfgoed" class="cls-2" d="M354,240.62c0-62.96-51.04-114-114-114s-114,51.04-114,114c0,57.03,41.88,104.24,96.55,112.64v-51.51l-62.28-62.28,79.57-79.57,79.24,79.24-62.42,62.42v51.82c55.06-8.07,97.34-55.46,97.34-112.76Z"/>
    <polygon id="Kerken" class="cls-1" points="320 289 303.89 225 192 225 192 161 176 97 160 161 160 353 320 353 320 289 320 289"/>
    <g id="Hollandse_Waterlinies" data-name="Hollandse Waterlinies" class="cls-3">
      <path class="cls-21" d="M391.29,210.21v81.83h-124.57v-57.04h-.1c-17.1-6.57-36.14-6.57-53.24,0-.03.01-.07.02-.1.04v57h-124.57v-81.83h302.58ZM164.31,236.39c-7.09-2.72-14.99-2.72-22.09,0-.01,0-.03,0-.04.01v28.57h22.17v-28.58h-.04ZM337.77,236.39c-7.09-2.72-14.99-2.72-22.09,0-.01,0-.03,0-.04.01v28.57h22.17v-28.58h-.04Z"/>
      <path class="cls-21" d="M240,164.04c-26.38,0-49.33,14.6-61.28,36.15h122.55c-11.94-21.55-34.89-36.15-61.28-36.15Z"/>
      <line class="cls-39" x1="122.97" y1="186.74" x2="213.58" y2="186.74"/>
    </g>
    <g id="Beemsterkleuren" class="cls-3">
      <path class="cls-29" d="M151.66,234.43c34.22,0,34.22,12.58,68.44,12.58s34.23-12.58,68.45-12.58,34.23,12.58,68.45,12.58"/>
      <path class="cls-47" d="M151.66,209.46c34.22,0,34.22,12.58,68.44,12.58s34.23-12.58,68.45-12.58,34.23,12.58,68.45,12.58"/>
      <path class="cls-44" d="M151.66,184.48c34.22,0,34.22,12.58,68.44,12.58s34.23-12.58,68.45-12.58,34.23,12.58,68.45,12.58"/>
      <path class="cls-22" d="M151.66,160.08c34.22,0,34.22,12.58,68.44,12.58s34.23-12.58,68.45-12.58,34.23,12.58,68.45,12.58"/>
      <line class="cls-40" x1="145.86" y1="147.59" x2="145.86" y2="337.59"/>
    </g>
    <g id="Dorpen">
      <circle class="cls-10" cx="240" cy="223.28" r="80"/>
      <polygon class="cls-6" points="384.73 261.7 362.86 231.3 309 231.3 292.06 254.85 283.03 219 209.36 219 209.36 176.86 198.82 134.72 188.29 176.86 188.29 269.87 145.41 205.55 95.27 280.76 95.27 303.28 188.29 303.28 195.55 303.28 287.13 303.28 293.64 303.28 384.73 303.28 384.73 261.7 384.73 261.7"/>
    </g>
    <g id="Wegen_dijken_bruggen" data-name="Wegen, dijken, bruggen" class="cls-3">
      <circle class="cls-15" cx="323.47" cy="177.1" r="30"/>
      <line class="cls-23" x1="323.47" y1="162.31" x2="323.47" y2="231.07"/>
      <circle class="cls-15" cx="240" cy="177.1" r="30"/>
      <line class="cls-23" x1="240" y1="164.16" x2="240" y2="232.93"/>
      <circle class="cls-15" cx="153.77" cy="177.1" r="30"/>
      <line class="cls-23" x1="153.77" y1="164.16" x2="153.77" y2="232.93"/>
      <polygon class="cls-15" points="329.79 230.82 107.72 230.82 91.65 307.74 329.79 230.82"/>
      <polygon class="cls-15" points="135.93 307.74 386.36 307.74 374.07 230.82 135.93 307.74"/>
    </g>
    <g id="Boerderijen" class="cls-3">
      <rect class="cls-15" x="120" y="272" width="240" height="48"/>
      <polygon class="cls-4" points="360 261.34 240 96.95 120 261.34 203.94 261.34 203.94 221.37 203.94 221.21 239.94 201.97 275.94 220.28 275.94 261.34 360 261.34"/>
    </g>
    <g id="Waterbeheer" class="cls-3">
      <polygon class="cls-21" points="262.74 163.52 191.58 201.55 191.58 201.86 191.58 280.87 333.9 280.87 333.9 199.71 262.74 163.52"/>
      <circle class="cls-15" cx="377.7" cy="229.41" r="28.77"/>
      <line class="cls-23" x1="377.7" y1="220.44" x2="377.7" y2="280.87"/>
      <path class="cls-45" d="M80,243.16c16.45,0,16.45,6.05,32.89,6.05s16.45-6.05,32.89-6.05,16.45,6.05,32.89,6.05"/>
      <path class="cls-45" d="M80,268.81c16.45,0,16.45,6.05,32.89,6.05s16.45-6.05,32.89-6.05,16.45,6.05,32.89,6.05"/>
    </g>
    <g id="Streekproducten" class="cls-3">
      <path class="cls-42" d="M303.16,363.62c-20.21-37.08-7.33-83.69,29.35-105.03v-.12c-41.03-10.84-83.08,13.01-95.02,53.52-.14.56-.26,1.13-.41,1.69"/>
      <path class="cls-20" d="M338.38,261.97c.26.26.51.53.76.8,17.27,16.44,44.56,16.22,61.56-.66-17.2-17.2-45.06-17.24-62.32-.14Z"/>
      <path class="cls-20" d="M338.37,261.98c.26-.26.53-.51.8-.76,16.44-17.27,16.22-44.56-.66-61.56-17.2,17.2-17.24,45.06-.14,62.32Z"/>
      <path class="cls-42" d="M240.07,201.7c-24.57-45.09-8.91-101.75,35.68-127.7"/>
      <path class="cls-21" d="M312.12,158.61c7.14,12.37,2.9,28.19-9.47,35.33-12.17,7.03-28.22,2.84-34.98-8.87-11.79-20.43-12.95-74.14-12.95-74.14,0,0,46.36,28.57,57.39,47.68Z"/>
      <path class="cls-21" d="M168.19,158.61c-7.14,12.37-2.9,28.19,9.47,35.33,12.17,7.03,28.22,2.84,34.98-8.87,11.79-20.43,12.95-74.14,12.95-74.14,0,0-46.36,28.57-57.39,47.68Z"/>
      <path class="cls-21" d="M266.01,180.91c0,14.28-11.58,25.86-25.86,25.86s-25.85-11.65-25.85-25.17c0-23.59,25.85-70.68,25.85-70.68,0,0,25.86,47.93,25.86,69.99Z"/>
      <circle class="cls-17" cx="237.2" cy="339.8" r="28"/>
      <circle class="cls-17" cx="300.51" cy="339.8" r="28"/>
      <path class="cls-10" d="M100.38,230.86c0,41.08,16.65,78.27,43.57,105.2l105.2-105.2H100.38Z"/>
    </g>
    <g id="Bijzondere_gebouwen" data-name="Bijzondere gebouwen" class="cls-3">
      <rect class="cls-13" x="178.43" y="320" width="123.08" height="36.92"/>
      <polygon class="cls-9" points="240.68 150.69 207.13 163.16 178.46 312.31 301.54 312.31 274.45 162.21 240.68 150.69"/>
      <line class="cls-48" x1="160" y1="280" x2="320" y2="120"/>
      <line class="cls-48" x1="320" y1="280" x2="160" y2="120"/>
    </g>
    <g id="Historische_figuren" data-name="Historische figuren" class="cls-3">
      <path class="cls-9" d="M190,213.05c0-9.62,7.8-17.41,17.41-17.41s17.41,7.8,17.41,17.41h-34.82Z"/>
      <path class="cls-9" d="M254.97,213.05c0-9.62,7.8-17.41,17.41-17.41s17.41,7.8,17.41,17.41h-34.82Z"/>
      <path class="cls-21" d="M214.56,243.23c9.62-2.7,19.6,2.92,22.3,12.53,2.65,9.46-2.97,19.61-12.07,22.16-15.88,4.45-52.48-4.07-52.48-4.07,0,0,27.39-26.46,42.25-30.63Z"/>
      <path class="cls-21" d="M265.91,243.23c-9.62-2.7-19.6,2.92-22.3,12.53-2.65,9.46,2.97,19.61,12.07,22.16,15.88,4.45,52.48-4.07,52.48-4.07,0,0-27.39-26.46-42.25-30.63Z"/>
      <path class="cls-21" d="M275.3,314.13c0-19.56-15.86-35.42-35.42-35.42s-35.41,15.96-35.41,34.48c0,32.31,35.41,96.82,35.41,96.82,0,0,35.42-65.65,35.42-95.87Z"/>
      <rect class="cls-9" x="203.22" y="80" width="69.03" height="89"/>
      <path class="cls-30" d="M301.01,146.88c-34.95,34.95-91.61,34.95-126.56,0"/>
    </g>
    <g id="Bijzondere_tuinen" data-name="Bijzondere tuinen" class="cls-3">
      <path class="cls-15" d="M240.29,317c.01.53.04,1.05.04,1.58,39.16-.18,70.86-31.92,70.97-71.1-38.67.14-70.06,31.05-71.01,69.52Z"/>
      <path class="cls-15" d="M240,318.59c.09,0,.17,0,.25,0,0-.53.03-1.06.04-1.58-.95-38.56-32.48-69.52-71.27-69.52-.11,0-.22,0-.33,0,.11,39.29,31.99,71.11,71.31,71.11Z"/>
      <path class="cls-15" d="M239.92,378.42c.01.53.04,1.05.04,1.58,39.16-.18,70.86-31.92,70.97-71.1-38.67.14-70.06,31.05-71.01,69.52Z"/>
      <path class="cls-15" d="M240,380c.09,0,.17,0,.25,0,0-.53.03-1.06.04-1.58-.95-38.56-32.48-69.52-71.27-69.52-.11,0-.22,0-.33,0,.11,39.29,31.99,71.11,71.31,71.11Z"/>
      <path class="cls-19" d="M261.19,121.2c0-11.71-9.49-21.2-21.2-21.2s-21.19,9.55-21.19,20.63c0,19.33,21.19,57.94,21.19,57.94,0,0,21.2-39.28,21.2-57.37Z"/>
      <path class="cls-19" d="M218.8,235.94c0,11.71,9.49,21.2,21.2,21.2,11.52,0,21.19-9.55,21.19-20.63,0-19.33-21.19-57.94-21.19-57.94,0,0-21.2,39.28-21.2,57.37Z"/>
      <path class="cls-19" d="M200.91,131.53c-10.14-5.85-23.1-2.38-28.96,7.76-5.76,9.98-2.32,23.13,7.27,28.67,16.74,9.67,60.77,10.62,60.77,10.62,0,0-23.42-38-39.09-47.04Z"/>
      <path class="cls-19" d="M279.09,225.61c10.14,5.85,23.1,2.38,28.96-7.76,5.76-9.98,2.32-23.13-7.27-28.67-16.74-9.67-60.77-10.62-60.77-10.62,0,0,23.42,38,39.09,47.04Z"/>
      <path class="cls-19" d="M179.72,188.9c-10.14,5.85-13.61,18.82-7.76,28.96,5.76,9.98,18.87,13.58,28.46,8.04,16.74-9.67,39.58-47.32,39.58-47.32,0,0-44.62,1.28-60.28,10.33Z"/>
      <path class="cls-19" d="M300.28,168.24c10.14-5.85,13.61-18.82,7.76-28.96-5.76-9.98-18.87-13.58-28.46-8.04-16.74,9.67-39.58,47.32-39.58,47.32,0,0,44.62-1.28,60.28-10.33Z"/>
    </g>
    <g id="Visit_Beemster_logo" data-name="Visit Beemster logo" class="cls-3">
      <path class="cls-15" d="M248.15,360h-68.3c-13.39,0-24.28-10.82-24.28-24.12v-191.77c0-13.52,10.59-24.12,24.12-24.12h67.84c37.53,0,69.24,31.28,69.24,68.3,0,15.59-5.73,31.71-15.82,44.78,14.98,13.7,23.5,32.86,23.5,53.15,0,41.37-33.51,73.78-76.29,73.78ZM253.08,163.24l-48.24,3.41,3.4,48.24,48.25-3.41-3.41-48.24Z"/>
      <path class="cls-10" d="M227.6,261.4l-.54-7.53,1.83-.13.1,1.43c.07,1.07.6,2.08,1.49,2.84,1.04.91,2.44,1.36,3.89,1.27,1.16-.09,2.2-.53,2.92-1.25.74-.74,1.09-1.7,1.01-2.78-.18-2.47-2.48-2.93-5.15-3.47-2.94-.59-6.27-1.26-6.55-5.15-.1-1.35.39-2.64,1.36-3.62.99-1,2.43-1.61,4.06-1.73,1.81-.16,3.54.41,4.77,1.47l-.11-1.5,1.8-.13.54,7.43-1.8.13-.18-2.47c-.12-1.66-2.22-3.04-4.52-3.04-.14,0-.28,0-.42.02-2.15.16-3.63,1.54-3.51,3.3.17,2.35,2.42,2.79,5.03,3.29,3.04.59,6.49,1.25,6.79,5.4.1,1.4-.35,2.76-1.28,3.83-1.09,1.27-2.73,2.03-4.59,2.17-2.02.13-4-.57-5.24-1.86l.14,1.95-1.83.13Z"/>
      <path class="cls-10" d="M243.71,260.28l-.12-1.8,3.24-.23-1.13-15.8-3.25.23-.13-1.8,8.53-.61.13,1.8-3.17.23,1.13,15.8,3.18-.23.12,1.8-8.52.61Z"/>
      <path class="cls-10" d="M258.71,259.19l-.13-1.8,3.27-.24-1.14-15.8-4.89.35.43,6.06-1.82.13-.57-7.85,15.54-1.12.57,7.85-1.83.13-.44-6.05-4.89.35,1.14,15.8,3.18-.23.13,1.8-8.54.62Z"/>
      <polygon class="cls-10" points="224.13 259.84 220.96 260.07 219.83 244.26 223 244.04 222.87 242.24 214.93 242.82 214.93 242.82 206.4 243.43 206.53 245.23 209.73 245 205.44 259.87 198.86 245.78 201.91 245.56 201.78 243.76 193.85 244.34 193.97 246.13 196.69 245.94 204.64 263.07 204.72 263.25 206.41 263.12 211.65 244.86 214.47 244.65 214.48 244.66 217.73 244.42 218.86 260.22 215.61 260.46 215.74 262.26 224.27 261.64 224.13 259.84"/>
      <path class="cls-10" d="M198.31,293.36l-.12-1.8,3.22-.23-1.14-15.8-3.23.23-.12-1.8,8.6-.62c2.05-.15,3.66.29,4.76,1.29,1.11,1.02,1.42,2.37,1.49,3.33.13,1.88-.57,3.29-2.08,4.22,2.24.65,3.51,2.17,3.68,4.4.2,2.74-1.36,5.79-6.31,6.15l-8.75.63ZM202.98,283.76l.53,7.42,3.34-.24c1.54-.11,2.75-.59,3.51-1.38.67-.7.99-1.64.91-2.71-.17-2.36-1.97-3.55-5.1-3.32l-3.2.23ZM202.37,275.37l.47,6.59,2.89-.21c2.53-.18,4.07-1.6,3.93-3.61-.05-.73-.48-3.01-3.66-3.01-.17,0-.34,0-.53.02l-3.11.22Z"/>
      <polygon class="cls-10" points="252.58 282.02 250.76 282.16 251.16 287.74 241.85 288.41 241.33 281.19 246.14 280.84 246.44 284.92 248.19 284.79 247.48 274.95 245.73 275.07 246.01 279.04 241.2 279.39 240.71 272.61 250.02 271.94 250.42 277.5 252.25 277.37 251.72 270.01 235.19 271.2 235.3 273 238.61 272.76 239.75 288.56 236.45 288.8 236.57 290.6 253.11 289.41 252.58 282.02"/>
      <polygon class="cls-10" points="232.37 283.48 230.54 283.61 230.95 289.2 221.64 289.87 221.12 282.64 225.92 282.29 226.22 286.37 227.97 286.25 227.26 276.4 225.51 276.52 225.79 280.5 220.99 280.84 220.49 274.07 229.81 273.4 230.21 278.95 232.04 278.82 231.5 271.46 214.97 272.66 215.1 274.46 218.39 274.22 219.53 290.02 216.24 290.26 216.36 292.05 232.9 290.87 232.37 283.48"/>
      <path class="cls-10" d="M257.03,289.12l-.13-1.8,3.25-.23-1.14-15.8-3.24.23-.13-1.8,6.09-.44.08.16,6.85,13.68c.16.29.35.71.53,1.16.07-.33.17-.66.28-1l4.88-14.92,6.17-.44.13,1.8-3.2.22,1.14,15.81,3.19-.23.13,1.8-8.49.62-.14-1.8,3.22-.23-1.09-15.2-5.73,17.49-.68.05-.08-.17-8.01-16.33,1.1,15.2,3.19-.23.13,1.8-8.28.6Z"/>
      <path class="cls-10" d="M222.14,321.54l-.13-1.8,3.26-.24-1.14-15.8-4.89.36.43,6.05-1.82.13-.57-7.85,15.53-1.12.57,7.85-1.83.13-.43-6.06-4.89.36,1.14,15.8,3.17-.23.14,1.8-8.54.62Z"/>
      <path class="cls-10" d="M202.86,322.95l-.54-7.53,1.82-.13.1,1.42c.18,2.42,2.64,4.28,5.38,4.11,2.43-.17,4.08-1.87,3.93-4.03-.18-2.47-2.48-2.93-5.15-3.47-2.94-.59-6.27-1.25-6.55-5.15-.1-1.35.39-2.64,1.36-3.62.99-1,2.43-1.61,4.05-1.73,1.8-.13,3.56.42,4.77,1.48l-.11-1.51,1.8-.13.56,7.73-1.8.13-.2-2.76c-.06-.83-.63-1.64-1.55-2.22-.95-.6-2.18-.91-3.39-.8-1.18.08-2.18.54-2.82,1.28-.5.58-.73,1.27-.68,2.01.17,2.35,2.42,2.79,5.03,3.29,3.04.59,6.49,1.25,6.79,5.4.23,3.16-2.3,5.74-5.87,6-2.06.12-4-.58-5.24-1.87l.13,1.96-1.82.13Z"/>
      <polygon class="cls-10" points="253.42 311.87 251.59 311.99 252 317.58 242.69 318.25 242.16 311.03 246.98 310.68 247.27 314.76 249.02 314.63 248.31 304.78 246.56 304.91 246.85 308.88 242.04 309.23 241.55 302.45 250.86 301.78 251.26 307.34 253.09 307.21 252.55 299.85 236.01 301.04 236.15 302.84 239.45 302.6 240.58 318.41 237.29 318.64 237.42 320.44 253.95 319.25 253.42 311.87"/>
      <path class="cls-10" d="M257.53,318.98l-.12-1.8,3.28-.24-1.14-15.8-3.23.23-.13-1.8,8.74-.63c5.83-.42,6.97,3.06,7.12,5.18.17,2.25-.88,3.93-3.04,4.9.23.14.42.29.56.45.89.93,1.4,2.39,1.51,4.35l.05.66c.04.75.21,1.26.48,1.5.16.14.38.2.66.17.47-.03.74-.2.88-.53.14-.32.28-1.01.17-2.52l-.03-.44h0s-.26-3.65-.26-3.65l1.89-.13.26,3.64h0s.12,1.61.12,1.61c.05,1.08-.17,1.98-.66,2.68-.53.75-1.27,1.16-2.22,1.23h-.26c-.87,0-1.57-.3-2.09-.91-.53-.63-.82-1.54-.91-2.77l-.05-.75c-.11-1.58-.48-2.65-1.07-3.1-.46-.35-1.33-.52-2.56-.53-.01,0-.2.01-.25.02l-2.9.21.47,6.59,3.19-.23.12,1.8-8.57.61ZM261.65,300.99l.54,7.42,3.19-.23c3.12-.23,4.74-1.65,4.57-4.02-.18-2.45-1.91-3.64-4.97-3.41l-3.33.24Z"/>
    </g>
    <g id="Beemster_Vanzelf_logo" data-name="Beemster Vanzelf logo" class="cls-3">
      <g>
        <path class="cls-11" d="M173.8,278.4h7.87c3.92,0,6.3,2.1,6.3,5.92,0,1.94-.92,3.47-2.36,4.2,2.2.86,3.5,2.71,3.5,5.54,0,4.17-2.71,6.62-7.2,6.62h-8.12v-22.29ZM181.51,287.28c2.01,0,3.03-.86,3.03-2.8s-1.02-2.8-3.09-2.8h-4.11v5.6h4.17ZM181.54,297.41c2.77,0,4.04-1.11,4.04-3.41s-1.27-3.44-4.04-3.44h-4.2v6.85h4.2Z"/>
        <path class="cls-11" d="M206.98,293.55h-11.43c.29,2.8,1.85,4.46,4.24,4.46,1.94,0,3.15-.86,4.2-2.77l2.77,1.08c-1.4,3.09-3.6,4.62-7.13,4.62-4.94,0-7.51-4.01-7.51-8.28s2.58-8.28,7.51-8.28,7.36,3.82,7.36,7.77v1.4ZM203.55,290.82c-.38-2.07-1.66-3.5-3.92-3.5-1.91,0-3.41,1.24-3.92,3.5h7.83Z"/>
        <path class="cls-11" d="M224.66,293.55h-11.43c.29,2.8,1.85,4.46,4.23,4.46,1.94,0,3.15-.86,4.2-2.77l2.77,1.08c-1.4,3.09-3.6,4.62-7.13,4.62-4.94,0-7.51-4.01-7.51-8.28s2.58-8.28,7.51-8.28,7.36,3.82,7.36,7.77v1.4ZM221.22,290.82c-.38-2.07-1.66-3.5-3.92-3.5-1.91,0-3.41,1.24-3.92,3.5h7.83Z"/>
        <path class="cls-11" d="M228.35,284.64h3.38v2.8c1.21-2.04,2.8-3.06,4.74-3.06,2.2,0,3.82,1.11,4.46,3.38,1.15-2.07,2.99-3.38,5-3.38,3.06,0,4.71,1.82,4.71,5.03v11.27h-3.34v-10.73c0-1.82-.73-2.64-2.26-2.64-2.17,0-3.85,2.45-3.85,6.88v6.5h-3.34v-10.73c0-1.82-.73-2.64-2.26-2.64-2.26,0-3.85,2.58-3.85,7.13v6.24h-3.38v-16.05Z"/>
        <path class="cls-11" d="M256.6,295.15c.67,1.91,1.85,2.87,3.47,2.87,1.24,0,2.13-.7,2.13-1.94,0-1.11-1.18-1.78-3.38-2.64-2.52-.92-3.88-2.26-3.88-4.65s2.1-4.39,4.9-4.39c2.17,0,3.85.89,4.84,2.58l-2.07,1.88c-.67-1.02-1.59-1.53-2.74-1.53-1.02,0-1.78.6-1.78,1.53s.8,1.53,3.38,2.52c2.61.92,3.92,2.45,3.92,4.52,0,3.09-2.13,5.06-5.32,5.06s-5.51-1.94-6.18-4.36l2.71-1.43Z"/>
        <path class="cls-11" d="M269.27,287.57h-2.58v-2.93h2.58v-4.36l3.38-2.13v6.5h4.27v2.93h-4.27v7.83c0,1.88.73,2.61,2.13,2.61.64,0,1.21-.13,1.69-.41l.8,2.77c-.76.38-1.66.57-2.64.57-3.34,0-5.35-1.88-5.35-5.6v-7.77Z"/>
        <path class="cls-11" d="M293.41,293.55h-11.43c.29,2.8,1.85,4.46,4.24,4.46,1.94,0,3.15-.86,4.2-2.77l2.77,1.08c-1.4,3.09-3.6,4.62-7.13,4.62-4.94,0-7.51-4.01-7.51-8.28s2.58-8.28,7.51-8.28,7.36,3.82,7.36,7.77v1.4ZM289.97,290.82c-.38-2.07-1.66-3.5-3.92-3.5-1.91,0-3.41,1.24-3.92,3.5h7.83Z"/>
        <path class="cls-11" d="M297.1,284.64h3.38v2.68c1.05-1.91,2.8-2.93,4.74-2.93.61,0,1.31.13,2.07.38l-.64,3.12c-.54-.32-1.15-.48-1.85-.48-2.52,0-4.33,2.42-4.33,7.42v5.86h-3.38v-16.05Z"/>
        <path class="cls-11" d="M203.8,308.02h3.85l5.51,17.32,5.54-17.32h3.85l-7.58,22.29h-3.6l-7.58-22.29Z"/>
        <path class="cls-11" d="M224.5,316.3c1.24-1.53,2.96-2.29,5.19-2.29,1.91,0,3.57.8,4.46,1.94v-1.69h3.38v16.05h-3.38v-1.85c-.64,1.11-2.39,2.1-4.46,2.1-2.23,0-3.95-.76-5.19-2.26-1.24-1.53-1.85-3.53-1.85-6.02s.6-4.49,1.85-5.99ZM230.33,316.93c-2.45,0-4.17,2.07-4.17,5.35s1.72,5.35,4.17,5.35,4.14-2.07,4.14-5.35-1.62-5.35-4.14-5.35Z"/>
        <path class="cls-11" d="M242.11,314.26h3.38v2.8c1.18-1.88,3.06-3.06,5.13-3.06,2.96,0,4.94,1.78,4.94,4.97v11.34h-3.34v-10.44c0-1.94-.96-2.93-2.61-2.93-2.23,0-4.11,2.55-4.11,6.78v6.59h-3.38v-16.05Z"/>
        <path class="cls-11" d="M258.86,328.94l7.32-11.75h-6.85v-2.93h11.05v1.4l-7.23,11.72h7.64v2.93h-11.94v-1.37Z"/>
        <path class="cls-11" d="M287.74,323.18h-11.43c.29,2.8,1.85,4.46,4.23,4.46,1.94,0,3.15-.86,4.2-2.77l2.77,1.08c-1.4,3.09-3.6,4.62-7.13,4.62-4.94,0-7.51-4.01-7.51-8.28s2.58-8.28,7.51-8.28,7.36,3.82,7.36,7.77v1.4ZM284.3,320.44c-.38-2.07-1.66-3.5-3.92-3.5-1.91,0-3.41,1.24-3.92,3.5h7.83Z"/>
        <path class="cls-11" d="M291.43,307.76h3.38v22.54h-3.38v-22.54Z"/>
        <path class="cls-11" d="M299.61,317.19h-2.2v-2.93h2.2v-.89c0-3.73,2.01-5.6,5.35-5.6,1.11,0,2.01.19,2.68.57l-.73,2.77c-.6-.29-1.21-.41-1.81-.41-1.43,0-2.13.8-2.13,2.39v1.18h3.53v2.93h-3.53v13.12h-3.34v-13.12Z"/>
        <path class="cls-11" d="M180.14,354.39c.67,1.91,1.85,2.87,3.47,2.87,1.24,0,2.13-.7,2.13-1.94,0-1.11-1.18-1.78-3.38-2.64-2.52-.92-3.88-2.26-3.88-4.65s2.1-4.39,4.9-4.39c2.17,0,3.85.89,4.84,2.58l-2.07,1.88c-.67-1.02-1.59-1.53-2.74-1.53-1.02,0-1.78.6-1.78,1.53s.8,1.53,3.38,2.52c2.61.92,3.92,2.45,3.92,4.52,0,3.09-2.13,5.06-5.32,5.06s-5.51-1.94-6.18-4.36l2.71-1.43Z"/>
        <path class="cls-11" d="M192.15,343.88h3.38v1.85c.64-1.11,2.32-2.1,4.23-2.1,4.68,0,7.26,3.28,7.26,8.28s-2.58,8.28-7.26,8.28c-1.66,0-3.44-.83-4.23-1.97v8.22h-3.38v-22.54ZM199.34,346.56c-2.45,0-4.14,2.07-4.14,5.35s1.69,5.35,4.14,5.35,4.17-2.07,4.17-5.35-1.66-5.35-4.17-5.35Z"/>
        <path class="cls-11" d="M210.71,343.88h3.38v2.68c1.05-1.91,2.8-2.93,4.74-2.93.61,0,1.31.13,2.07.38l-.64,3.12c-.54-.32-1.15-.48-1.85-.48-2.52,0-4.33,2.42-4.33,7.42v5.86h-3.38v-16.05Z"/>
        <path class="cls-11" d="M236.82,352.8h-11.43c.29,2.8,1.85,4.46,4.24,4.46,1.94,0,3.15-.86,4.2-2.77l2.77,1.08c-1.4,3.09-3.6,4.62-7.13,4.62-4.94,0-7.51-4.01-7.51-8.28s2.58-8.28,7.51-8.28,7.36,3.82,7.36,7.77v1.4ZM233.38,350.06c-.38-2.07-1.66-3.5-3.92-3.5-1.91,0-3.41,1.24-3.92,3.5h7.83Z"/>
        <path class="cls-11" d="M240.52,337.39h3.38v13.02l5.67-6.53h4.14l-6.56,7.39,7.04,8.66h-4.14l-6.15-7.83v7.83h-3.38v-22.54Z"/>
        <path class="cls-11" d="M269.75,352.8h-11.43c.29,2.8,1.85,4.46,4.24,4.46,1.94,0,3.15-.86,4.2-2.77l2.77,1.08c-1.4,3.09-3.6,4.62-7.13,4.62-4.94,0-7.51-4.01-7.51-8.28s2.58-8.28,7.51-8.28,7.36,3.82,7.36,7.77v1.4ZM266.31,350.06c-.38-2.07-1.66-3.5-3.92-3.5-1.91,0-3.41,1.24-3.92,3.5h7.83Z"/>
        <path class="cls-11" d="M273.44,343.88h3.38v2.8c1.18-1.88,3.06-3.06,5.13-3.06,2.96,0,4.94,1.78,4.94,4.97v11.34h-3.34v-10.44c0-1.94-.96-2.93-2.61-2.93-2.23,0-4.11,2.55-4.11,6.78v6.59h-3.38v-16.05Z"/>
        <path class="cls-11" d="M292.42,345.92c1.24-1.53,2.96-2.29,5.19-2.29,1.91,0,3.57.8,4.46,1.94v-8.18h3.38v22.54h-3.38v-1.85c-.64,1.11-2.39,2.1-4.46,2.1-2.23,0-3.95-.76-5.19-2.26-1.24-1.53-1.85-3.53-1.85-6.02s.6-4.49,1.85-5.99ZM298.25,346.56c-2.45,0-4.17,2.07-4.17,5.35s1.72,5.35,4.17,5.35,4.14-2.07,4.14-5.35-1.62-5.35-4.14-5.35Z"/>
      </g>
      <g>
        <polygon class="cls-20" points="172.36 173.32 172.36 226.64 199.02 226.64 199.02 253.3 212.35 226.64 225.68 226.64 225.68 173.32 172.36 173.32"/>
        <polygon class="cls-17" points="199.02 120 199.02 173.32 225.68 173.32 225.68 199.98 239.01 173.32 252.34 173.32 252.34 120 199.02 120"/>
        <polygon class="cls-10" points="252.34 146.77 252.34 200.09 279 200.09 279 226.75 292.33 200.09 305.66 200.09 305.66 146.77 252.34 146.77"/>
        <polygon class="cls-11" points="225.68 199.98 225.68 253.3 252.34 253.3 252.34 279.95 265.67 253.3 279 253.3 279 199.98 225.68 199.98"/>
      </g>
    </g>
    <g class="cls-3">
      <g id="BK_logo" data-name="BK logo">
        <path class="cls-11" d="M260.53,415.83l-33.54-20.04c-2.15-1.29-2.91-4.18-1.7-6.46l31.05-58.57c1.21-2.28,3.94-3.09,6.09-1.81l33.54,20.04c2.15,1.29,2.91,4.18,1.7,6.46l-31.05,58.57c-1.21,2.28-3.94,3.09-6.09,1.81Z"/>
        <path class="cls-10" d="M257.6,420.44l-40.53-11.03c-2.6-.71-4.17-3.52-3.5-6.28l17.09-70.79c.67-2.76,3.31-4.42,5.91-3.72l40.53,11.03c2.6.71,4.17,3.52,3.5,6.28l-17.09,70.79c-.67,2.76-3.31,4.42-5.91,3.72Z"/>
        <path class="cls-20" d="M254.66,412.66l-38.48.45c-2.47.03-4.49-2.07-4.52-4.69l-.69-67.21c-.03-2.62,1.95-4.77,4.42-4.8l38.48-.45c2.47-.03,4.49,2.07,4.52,4.69l.69,67.21c.03,2.62-1.95,4.77-4.42,4.8Z"/>
        <path class="cls-17" d="M250.15,412.09l-37.06,11.01c-2.38.71-4.84-.77-5.51-3.29l-17.05-64.73c-.66-2.52.72-5.14,3.1-5.85l37.06-11.01c2.38-.71,4.84.77,5.51,3.29l17.05,64.73c.66,2.52-.72,5.14-3.1,5.85Z"/>
      </g>
      <g>
        <path class="cls-18" d="M32.99,232.49l13.44-13.28c9.23-9.12,17.44-8.75,26.08-.01l2.24,2.27c5.76,5.83,7.58,11.23,5.21,16.77l.16.16c6.38-3.1,12.4-.73,18.32,5.26l4.8,4.86c8.64,8.74,8.67,18-.24,26.8l-14,13.84-56.01-56.66ZM68.18,243.31c3.32-3.28,3.9-6.74-.58-11.27l-3.12-3.16c-4-4.05-7.14-4.47-10.29-1.35l-4.29,4.24,14.8,14.98,3.48-3.44ZM95,267.21c3-2.96,3.25-5.94-.91-10.15l-4.88-4.94c-5.2-5.26-8.5-5.2-12.55-1.2l-3.97,3.92,17.2,17.4,5.1-5.04Z"/>
        <path class="cls-20" d="M79.49,190.83l28.88-18.23,6.08,9.63-18.29,11.54,11.24,17.81,14.53-9.17,6.08,9.63-14.53,9.17,13.06,20.69,18.29-11.54,6.08,9.63-28.88,18.23-42.53-67.38Z"/>
        <path class="cls-14" d="M128.76,162.78l32-11.93,3.98,10.67-20.27,7.56,7.36,19.73,16.11-6.01,3.98,10.67-16.11,6.01,8.55,22.93,20.26-7.56,3.98,10.67-32,11.93-27.85-74.66Z"/>
        <path class="cls-8" d="M185.47,144.09l17.55-1.82,14.22,56.66,2.31-58.37,17.55-1.82,8.2,79.25-11.78,1.22-6.21-60.01-3.07,60.97-10.42,1.08-15.5-59.05,6.21,60.01-10.87,1.12-8.2-79.25Z"/>
        <path class="cls-18" d="M254.02,200.38l.68-4.5,11.7,1.78-.82,5.4c-.85,5.63,1.31,8.03,5.25,8.63s6.83-1.03,7.72-6.89c.99-6.53-1.09-10.99-8.12-19.31-8.97-10.69-11.47-17.74-10.1-26.75,1.88-12.38,9.39-18.61,21.43-16.78s16.91,9.94,15,22.54l-.5,3.26-11.7-1.78.62-4.05c.85-5.63-1.07-8.11-5.01-8.7s-6.63,1.18-7.45,6.58c-.87,5.74,1.33,10.22,8.35,18.54,8.97,10.69,11.37,17.61,9.88,27.4-1.95,12.83-9.57,19.04-21.72,17.19s-17.14-9.97-15.22-22.57Z"/>
        <path class="cls-20" d="M327.48,166.11l-12.25-4.63,4.02-10.65,36.21,13.68-4.02,10.65-12.25-4.63-24.13,63.89-11.71-4.42,24.13-63.9Z"/>
        <path class="cls-14" d="M374.99,174.73l28.78,18.39-6.13,9.59-18.22-11.65-11.34,17.74,14.48,9.26-6.13,9.59-14.48-9.26-13.18,20.62,18.22,11.65-6.13,9.59-28.78-18.39,42.91-67.14Z"/>
        <path class="cls-8" d="M421.9,207.71l13.13,13.11c9.18,9.17,8.86,17.38.18,26.08l-3.46,3.46c-5.79,5.8-11.34,7.65-16.9,5.32l-.16.16c3.06,5.79.33,11.43-6.03,17.79l-9.89,9.91c-2.73,2.74-4.67,4.83-5.87,7.81l-9.02-9.01c.96-1.93,1.53-3.14,6.11-7.73l10.3-10.31c5.23-5.23,5.39-8.45,1.36-12.48l-3.06-3.06-24.13,24.16-8.86-8.85,56.31-56.38ZM409.85,243.93c3.3,3.3,6.76,3.86,11.27-.65l4.34-4.35c4.02-4.03,4.42-7.17,1.28-10.3l-4.03-4.02-16.09,16.11,3.22,3.22Z"/>
      </g>
      <g>
        <path class="cls-20" d="M132.94,317.19l2.04,7.24,11.38,12.28-6.14,5.69-36.22-39.08,6.14-5.69,15.57,16.81-7.87-23.95,6.25-5.79,5.98,21.13,30.35,17.85-6.42,5.95-21.07-12.44Z"/>
        <path class="cls-8" d="M139.98,272.87l7.24-3.55,21.77,35.78-14.73-39.23,8.2-4.02,21.98,35.68-14.94-39.13,6.49-3.18,18.59,50.22-9.36,4.59-19.6-31.17,12.62,34.58-9.98,4.89-28.3-45.46Z"/>
        <path class="cls-14" d="M219.56,289.31l-9.52,1.66.37,10.52-7.65,1.33-.61-53.98,11.17-1.95,17.7,51-8.25,1.44-3.22-10.02ZM217.27,282.37l-8.37-25.81.94,27.11,7.42-1.29Z"/>
        <path class="cls-18" d="M241.53,244.71l12.37.91c8.65.64,12.08,4.93,11.47,13.13l-.24,3.26c-.4,5.47-2.41,8.83-6.24,10.07v.15c4.07,1.6,5.15,5.65,4.7,11.64l-.69,9.34c-.19,2.58-.25,4.48.44,6.52l-8.5-.63c-.36-1.4-.6-2.26-.28-6.58l.71-9.72c.36-4.93-.96-6.63-4.76-6.91l-2.88-.21-1.68,22.77-8.35-.61,3.91-53.14ZM251.24,268.32c3.11.23,5.11-1,5.42-5.25l.3-4.1c.28-3.8-.89-5.56-3.85-5.78l-3.8-.28-1.12,15.18,3.04.22Z"/>
        <path class="cls-8" d="M290.75,260.01l-8.33-2.68,2.33-7.24,24.63,7.93-2.33,7.25-8.33-2.68-14,43.47-7.97-2.57,14-43.47Z"/>
        <path class="cls-20" d="M326.55,266.1l19.59,11.74-3.91,6.53-12.41-7.43-7.24,12.08,9.86,5.91-3.91,6.53-9.86-5.91-8.41,14.04,12.41,7.43-3.91,6.53-19.59-11.74,27.39-45.7Z"/>
        <path class="cls-18" d="M360.88,299.81l-6.3-6.07,5.28-5.48,18.64,17.96-5.28,5.48-6.3-6.07-31.69,32.89-6.03-5.81,31.69-32.89Z"/>
      </g>
    </g>
  </g>
  <g id="Home_desktop_" data-name="Home [desktop]">
    <rect class="cls-11" x="791.44" y="1382.05" width="188.24" height="188.24" transform="translate(-784.44 1058.56) rotate(-45)"/>
    <rect class="cls-11" x="644.01" y="1234.81" width="188.24" height="188.24" transform="translate(-723.51 911.19) rotate(-45)"/>
    <rect class="cls-11" x="1677.24" y="1382.56" width="188.23" height="188.24" transform="translate(-525.36 1684.97) rotate(-45)"/>
    <polygon class="cls-11" points="1180.86 1343.07 1313.96 1476.16 1180.86 1609.27 1047.75 1476.16 1180.86 1343.07"/>
    <rect class="cls-11" x="644.01" y="939.46" width="188.24" height="188.24" transform="translate(-514.66 824.66) rotate(-45)"/>
    <polygon class="cls-11" points="1476.11 1343.07 1609.21 1476.16 1476.11 1609.27 1343.01 1476.16 1476.11 1343.07"/>
    <rect class="cls-11" x="939.12" y="1234.81" width="188.23" height="188.24" transform="translate(-637.06 1119.81) rotate(-45)"/>
    <polygon class="cls-11" points="885.56 1048.11 1018.66 1181.2 885.55 1314.3 752.45 1181.2 885.56 1048.11"/>
    <rect class="cls-11" x="1234.37" y="1234.81" width="188.24" height="188.24" transform="translate(-550.59 1328.59) rotate(-45)"/>
    <rect class="cls-11" x="1086.74" y="1087.09" width="188.24" height="188.23" transform="translate(-489.37 1180.96) rotate(-45)"/>
    <rect class="cls-11" x="939.51" y="939.46" width="188.24" height="188.24" transform="translate(-428.11 1033.61) rotate(-45)"/>
    <polygon class="cls-11" points="1623.86 1195.32 1756.96 1328.41 1623.86 1461.51 1490.76 1328.41 1623.86 1195.32"/>
    <rect class="cls-11" x="1382.12" y="1087.06" width="188.24" height="188.24" transform="translate(-402.84 1389.79) rotate(-45)"/>
    <rect class="cls-11" x="1234.49" y="939.34" width="188.24" height="188.23" transform="translate(-341.62 1242.16) rotate(-45)"/>
    <rect class="cls-11" x="1087.26" y="791.71" width="188.24" height="188.24" transform="translate(-280.36 1094.81) rotate(-45)"/>
    <polygon class="cls-11" points="885.56 752.86 1018.66 885.95 885.56 1019.06 752.45 885.96 885.56 752.86"/>
    <rect class="cls-11" x="2563.15" y="1087.09" width="188.24" height="188.23" transform="translate(-56.94 2224.94) rotate(-45)"/>
    <rect class="cls-11" x="2711.15" y="939.34" width="188.23" height="188.24" transform="translate(90.84 2286.22) rotate(-45)"/>
    <polygon class="cls-11" points="2657.27 752.86 2790.37 885.96 2657.27 1019.06 2524.16 885.96 2657.27 752.86"/>
    <polygon class="cls-11" points="1771.53 1047.65 1904.64 1180.74 1771.54 1313.84 1638.43 1180.74 1771.53 1047.65"/>
    <rect class="cls-11" x="1382.17" y="791.67" width="188.24" height="188.23" transform="translate(-193.95 1303.33) rotate(-45)"/>
    <rect class="cls-11" x="1677.29" y="791.89" width="188.24" height="188.24" transform="translate(-107.68 1512.06) rotate(-45)"/>
    <polygon class="cls-11" points="2066.71 752.47 2199.81 885.56 2066.71 1018.67 1933.6 885.57 2066.71 752.47"/>
    <polygon class="cls-11" points="2214.34 900.48 2347.44 1033.57 2214.34 1166.68 2081.23 1033.57 2214.34 900.48"/>
    <rect class="cls-11" x="1972.49" y="1382.56" width="188.23" height="188.24" transform="translate(-438.88 1893.77) rotate(-45)"/>
    <polygon class="cls-11" points="2361.59 1343.58 2494.69 1476.67 2361.59 1609.77 2228.48 1476.67 2361.59 1343.58"/>
    <rect class="cls-11" x="2415.47" y="1234.71" width="188.24" height="188.24" transform="translate(-204.59 2163.72) rotate(-45)"/>
    <polygon class="cls-11" points="1918.93 1195.73 2052.03 1328.83 1918.93 1461.93 1785.82 1328.83 1918.93 1195.73"/>
    <polygon class="cls-11" points="2214.33 1195.73 2347.44 1328.84 2214.34 1461.93 2081.23 1328.84 2214.33 1195.73"/>
    <rect class="cls-11" x="2267.47" y="1087.09" width="188.24" height="188.23" transform="translate(-143.55 2015.86) rotate(-45)"/>
    <rect class="cls-11" x="2415.47" y="939.34" width="188.23" height="188.24" transform="translate(4.24 2077.15) rotate(-45)"/>
    <polygon class="cls-11" points="2066.61 1048.11 2199.71 1181.2 2066.61 1314.3 1933.5 1181.2 2066.61 1048.11"/>
    <polygon class="cls-11" points="2361.59 752.86 2494.69 885.96 2361.59 1019.06 2228.48 885.96 2361.59 752.86"/>
    <polygon class="cls-11" points="2657.27 1343.58 2790.37 1476.67 2657.26 1609.77 2524.16 1476.67 2657.27 1343.58"/>
    <rect class="cls-11" x="2711.15" y="1234.71" width="188.24" height="188.24" transform="translate(-117.99 2372.79) rotate(-45)"/>
    <rect class="cls-10" x="2711.15" y="643.96" width="188.24" height="188.23" transform="translate(299.76 2199.83) rotate(-45)"/>
    <rect class="cls-10" x="2563.15" y="496.59" width="188.24" height="188.24" transform="translate(360.62 2052.01) rotate(-45)"/>
    <rect class="cls-10" x="2415.47" y="643.96" width="188.24" height="188.23" transform="translate(213.16 1990.75) rotate(-45)"/>
    <polygon class="cls-10" points="1033.63 605.22 1166.73 738.33 1033.63 871.42 900.53 738.32 1033.63 605.22"/>
    <rect class="cls-10" x="791.73" y="496.59" width="188.24" height="188.23" transform="translate(-158.23 799.41) rotate(-45)"/>
    <rect class="cls-10" x="644.01" y="644.2" width="188.24" height="188.24" transform="translate(-305.88 738.17) rotate(-45)"/>
    <rect class="cls-20" x="2711.15" y="348.96" width="188.24" height="188.24" transform="translate(508.34 2113.4) rotate(-45)"/>
    <polygon class="cls-20" points="2657.27 162.36 2790.37 295.45 2657.27 428.56 2524.16 295.46 2657.27 162.36"/>
    <rect class="cls-20" x="2415.47" y="348.96" width="188.24" height="188.24" transform="translate(421.74 1904.32) rotate(-45)"/>
    <polygon class="cls-20" points="2361.59 162.36 2494.69 295.45 2361.59 428.56 2228.48 295.46 2361.59 162.36"/>
    <polygon class="cls-20" points="2066.68 162.36 2199.78 295.45 2066.67 428.56 1933.57 295.45 2066.68 162.36"/>
    <polygon class="cls-20" points="1476.16 162.79 1609.27 295.88 1476.16 428.99 1343.06 295.88 1476.16 162.79"/>
    <rect class="cls-20" x="1086.74" y="201.33" width="188.24" height="188.24" transform="translate(136.96 921.54) rotate(-45)"/>
    <rect class="cls-20" x="939.12" y="349.45" width="188.23" height="188.24" transform="translate(-11.02 860.54) rotate(-45)"/>
    <polygon class="cls-20" points="885.84 162.35 1018.95 295.45 885.85 428.55 752.75 295.45 885.84 162.35"/>
    <polygon class="cls-20" points="738.12 310.47 871.23 443.56 738.12 576.66 605.02 443.56 738.12 310.47"/>
    <rect class="cls-17" x="2414.92" y="53.71" width="188.23" height="188.24" transform="translate(630.37 1817.47) rotate(-45)"/>
    <polygon class="cls-17" points="1328.48 14.72 1461.59 147.81 1328.48 280.91 1195.38 147.81 1328.48 14.72"/>
    <rect class="cls-17" x="2120.22" y="53.71" width="188.24" height="188.24" transform="translate(544.02 1609.05) rotate(-45)"/>
    <rect class="cls-17" x="2267.47" y="-93.89" width="188.24" height="188.23" transform="translate(691.55 1669.98) rotate(-45)"/>
    <polygon class="cls-17" points="1918.98 14.73 2052.09 147.83 1918.98 280.92 1785.88 147.83 1918.98 14.73"/>
    <rect class="cls-17" x="1972.55" y="-93.89" width="188.24" height="188.23" transform="translate(605.16 1461.42) rotate(-45)"/>
    <rect class="cls-17" x="643.84" y="53.7" width="188.23" height="188.24" transform="translate(111.6 565.08) rotate(-45)"/>
    <polygon class="cls-17" points="1771.36 -132.89 1904.46 .2 1771.36 133.31 1638.25 .2 1771.36 -132.89"/>
    <polygon class="cls-17" points="1623.73 14.71 1756.84 147.82 1623.74 280.92 1490.63 147.82 1623.73 14.71"/>
    <rect class="cls-17" x="2710.6" y="53.71" width="188.23" height="188.24" transform="translate(716.97 2026.55) rotate(-45)"/>
    <rect class="cls-17" x="2563.14" y="-93.89" width="188.24" height="188.23" transform="translate(778.15 1879.05) rotate(-45)"/>
    <rect class="cls-17" x="1381.99" y="-93.91" width="188.23" height="188.24" transform="translate(432.21 1043.84) rotate(-45)"/>
    <rect class="cls-17" x="1086.74" y="-93.91" width="188.23" height="188.24" transform="translate(345.73 835.07) rotate(-45)"/>
    <rect class="cls-17" x="939.12" y="53.7" width="188.24" height="188.24" transform="translate(198.11 773.9) rotate(-45)"/>
    <rect class="cls-17" x="791.74" y="-93.91" width="188.23" height="188.24" transform="translate(259.32 626.46) rotate(-45)"/>
    <g id="Dieren-2" data-name="Dieren">
      <rect class="cls-17" x="1823.81" y="643.2" width="188.93" height="188.93" transform="translate(40.24 1572.48) rotate(-45)"/>
      <line class="cls-27" x1="1870.35" y1="705.91" x2="1870.35" y2="793.33"/>
      <line class="cls-27" x1="1885.23" y1="705.91" x2="1885.23" y2="793.33"/>
      <line class="cls-27" x1="1921.65" y1="705.91" x2="1921.65" y2="793.33"/>
      <line class="cls-27" x1="1936.81" y1="705.91" x2="1936.81" y2="793.33"/>
      <circle class="cls-21" cx="1903.94" cy="712.11" r="30.11"/>
      <circle class="cls-21" cx="1903.94" cy="742.22" r="30.11"/>
      <circle class="cls-21" cx="1935.68" cy="713.08" r="24.56"/>
      <circle class="cls-21" cx="1935.68" cy="737.67" r="24.56"/>
      <circle class="cls-21" cx="1867.2" cy="713.08" r="24.56"/>
      <circle class="cls-21" cx="1867.2" cy="737.64" r="24.56"/>
      <path class="cls-6" d="M1978.86,705.91h-48.27c.03,8.91,7.26,16.12,16.17,16.12v15.97c0,8.86,7.18,16.05,16.05,16.05s16.05-7.18,16.05-16.05v-15.97c8.92,0,16.14-7.21,16.17-16.12h-16.17Z"/>
    </g>
    <g>
      <rect class="cls-13" x="2120.22" y="643.53" width="188.24" height="188.24" transform="translate(126.97 1781.82) rotate(-45)"/>
      <g id="Boerderijen-2" data-name="Boerderijen">
        <rect class="cls-15" x="2147.79" y="755.39" width="133.1" height="26.62"/>
        <polygon class="cls-4" points="2280.89 749.48 2214.34 658.31 2147.79 749.48 2194.34 749.48 2194.34 727.31 2194.34 727.23 2214.3 716.56 2234.27 726.71 2234.27 749.48 2280.89 749.48"/>
      </g>
    </g>
    <g>
      <rect class="cls-10" x="1971.88" y="496.89" width="189.66" height="189.66" transform="translate(186.92 1634.69) rotate(-45)"/>
      <polygon id="Kerken-2" data-name="Kerken" class="cls-6" points="2111.41 619.1 2102.41 583.33 2039.89 583.33 2039.89 547.57 2030.94 511.81 2022 547.57 2022 654.86 2111.41 654.86 2111.41 619.1 2111.41 619.1"/>
    </g>
    <g>
      <rect class="cls-7" x="1382.18" y="496.53" width="188.21" height="188.21" transform="translate(14.76 1216.88) rotate(-45)"/>
      <g id="Dorpen-2" data-name="Dorpen">
        <circle class="cls-10" cx="1476.28" cy="581.36" r="44.36"/>
        <polygon class="cls-6" points="1556.54 602.66 1544.41 585.8 1514.54 585.8 1505.15 598.86 1500.14 578.98 1459.29 578.98 1459.29 555.62 1453.45 532.25 1447.61 555.62 1447.61 607.19 1423.83 571.52 1396.03 613.23 1396.03 625.72 1447.61 625.72 1451.64 625.72 1502.42 625.72 1506.03 625.72 1556.54 625.72 1556.54 602.66 1556.54 602.66"/>
      </g>
    </g>
    <g>
      <rect class="cls-15" x="1233.55" y="347.69" width="189.87" height="189.87" transform="translate(76.12 1069.02) rotate(-45)"/>
      <g id="Streekproducten-2" data-name="Streekproducten">
        <path class="cls-32" d="M1363.82,511.77c-11.3-20.74-4.1-46.81,16.42-58.75v-.07c-22.95-6.06-46.48,7.28-53.15,29.94-.08.31-.14.63-.23.94"/>
        <path class="cls-20" d="M1383.52,454.91c.15.15.28.3.43.45,9.66,9.19,24.93,9.07,34.44-.37-9.62-9.62-25.2-9.65-34.86-.08Z"/>
        <path class="cls-20" d="M1383.52,454.91c.15-.15.3-.28.45-.43,9.19-9.66,9.07-24.93-.37-34.44-9.62,9.62-9.65,25.2-.08,34.86Z"/>
        <path class="cls-32" d="M1328.52,421.2c-13.74-25.22-4.98-56.92,19.96-71.44"/>
        <path class="cls-21" d="M1368.83,397.09c4,6.92,1.62,15.77-5.3,19.76-6.81,3.93-15.78,1.59-19.57-4.96-6.6-11.43-7.25-41.47-7.25-41.47,0,0,25.93,15.99,32.11,26.67Z"/>
        <path class="cls-21" d="M1288.32,397.09c-4,6.92-1.62,15.77,5.3,19.76,6.81,3.93,15.78,1.59,19.57-4.96,6.6-11.43,7.25-41.47,7.25-41.47,0,0-25.93,15.99-32.11,26.67Z"/>
        <path class="cls-21" d="M1343.04,409.57c0,7.99-6.48,14.47-14.47,14.47s-14.46-6.52-14.46-14.08c0-13.2,14.46-39.54,14.46-39.54,0,0,14.47,26.81,14.47,39.15Z"/>
        <circle class="cls-17" cx="1326.92" cy="498.45" r="15.66"/>
        <circle class="cls-17" cx="1362.34" cy="498.45" r="15.66"/>
        <path class="cls-10" d="M1250.38,437.51c0,22.98,9.32,43.79,24.38,58.85l58.85-58.85h-83.22Z"/>
      </g>
    </g>
    <g>
      <rect class="cls-12" x="1528.81" y="347.54" width="191.01" height="191.01" transform="translate(162.47 1278.33) rotate(-45)"/>
      <g id="Bijzondere_gebouwen-2" data-name="Bijzondere gebouwen">
        <rect class="cls-13" x="1589.66" y="488.07" width="69.27" height="20.78"/>
        <polygon class="cls-9" points="1624.7 392.78 1605.81 399.8 1589.68 483.74 1658.95 483.74 1643.7 399.26 1624.7 392.78"/>
        <line class="cls-49" x1="1579.29" y1="465.55" x2="1669.34" y2="375.51"/>
        <line class="cls-49" x1="1669.34" y1="465.55" x2="1579.29" y2="375.51"/>
      </g>
    </g>
    <g>
      <rect class="cls-11" x="2267.35" y="496.64" width="188.47" height="188.47" transform="translate(273.88 1842.96) rotate(-45)"/>
      <g id="Hollandse_Waterlinies-2" data-name="Hollandse Waterlinies">
        <path class="cls-21" d="M2446.58,575.42v45.97h-69.99v-32.04h-.06c-9.61-3.69-20.3-3.69-29.91,0-.02,0-.04.01-.06.02v32.02h-69.99v-45.97h170ZM2319.06,590.13c-3.99-1.53-8.42-1.53-12.41,0,0,0-.02,0-.02,0v16.05h12.46v-16.05h0s-.02,0-.02,0ZM2416.52,590.13c-3.99-1.53-8.42-1.53-12.41,0,0,0-.02,0-.02,0v16.05h12.46v-16.05h0s-.02,0-.02,0Z"/>
        <path class="cls-21" d="M2361.58,549.47c-14.82,0-27.72,8.2-34.43,20.31h68.85c-6.71-12.11-19.6-20.31-34.43-20.31Z"/>
        <line class="cls-33" x1="2295.83" y1="562.23" x2="2346.74" y2="562.23"/>
      </g>
    </g>
    <g>
      <rect class="cls-20" x="1677.49" y="496.49" width="188.24" height="188.23" transform="translate(101.27 1425.7) rotate(-45)"/>
      <path id="Werelderfgoed-2" data-name="Werelderfgoed" class="cls-35" d="M1836.76,590.34c0-35.9-29.1-65-65-65s-65,29.1-65,65c0,32.51,23.88,59.44,55.05,64.23v-29.37l-35.51-35.51,45.37-45.37,45.18,45.18-35.59,35.59v29.55c31.39-4.6,55.5-31.62,55.5-64.29Z"/>
    </g>
    <g>
      <rect class="cls-4" x="1086.24" y="496.61" width="188.32" height="188.32" transform="translate(-72.01 1007.7) rotate(-45)"/>
      <path class="cls-38" d="M1131.38,587.68c18.99,0,18.99,6.98,37.98,6.98s18.99-6.98,37.98-6.98,18.99,6.98,37.98,6.98"/>
      <path class="cls-31" d="M1131.38,573.83c18.99,0,18.99,6.98,37.98,6.98s18.99-6.98,37.98-6.98,18.99,6.98,37.98,6.98"/>
      <path class="cls-24" d="M1131.38,559.97c18.99,0,18.99,6.98,37.98,6.98s18.99-6.98,37.98-6.98,18.99,6.98,37.98,6.98"/>
      <path class="cls-43" d="M1131.38,546.43c18.99,0,18.99,6.98,37.98,6.98s18.99-6.98,37.98-6.98,18.99,6.98,37.98,6.98"/>
      <line class="cls-34" x1="1128.16" y1="539.5" x2="1128.16" y2="644.92"/>
    </g>
    <g>
      <rect class="cls-16" x="1529.59" y="643.4" width="188.54" height="188.54" transform="translate(-45.99 1364.3) rotate(-45)"/>
      <g id="Waterbeheer-2" data-name="Waterbeheer">
        <polygon class="cls-21" points="1636.49 695.18 1596.96 716.31 1596.96 716.48 1596.96 760.37 1676.02 760.37 1676.02 715.29 1636.49 695.18"/>
        <circle class="cls-15" cx="1700.35" cy="731.78" r="15.98"/>
        <line class="cls-36" x1="1700.35" y1="726.8" x2="1700.35" y2="760.37"/>
        <path class="cls-26" d="M1534.98,739.42c9.14,0,9.14,3.36,18.27,3.36s9.14-3.36,18.27-3.36,9.14,3.36,18.27,3.36"/>
        <path class="cls-26" d="M1534.98,753.67c9.14,0,9.14,3.36,18.27,3.36s9.14-3.36,18.27-3.36,9.14,3.36,18.27,3.36"/>
      </g>
    </g>
    <g>
      <rect class="cls-9" x="2120.21" y="348.94" width="188.26" height="188.26" transform="translate(335.27 1695.54) rotate(-45)"/>
      <g id="Bijzondere_tuinen-2" data-name="Bijzondere tuinen">
        <path class="cls-15" d="M2214.5,485.78c0,.29.02.58.02.88,21.72-.1,39.3-17.71,39.37-39.44-21.45.08-38.86,17.22-39.39,38.56Z"/>
        <path class="cls-15" d="M2214.34,486.65s.09,0,.14,0c0-.29.01-.59.02-.88-.53-21.39-18.02-38.56-39.53-38.56-.06,0-.12,0-.19,0,.06,21.79,17.74,39.44,39.55,39.44Z"/>
        <path class="cls-15" d="M2214.29,519.84c0,.29.02.58.02.88,21.72-.1,39.3-17.71,39.37-39.44-21.45.08-38.86,17.22-39.39,38.56Z"/>
        <path class="cls-15" d="M2214.34,520.72s.09,0,.14,0c0-.29.01-.59.02-.88-.53-21.39-18.02-38.56-39.53-38.56-.06,0-.12,0-.19,0,.06,21.79,17.74,39.44,39.55,39.44Z"/>
        <path class="cls-19" d="M2226.09,377.17c0-6.49-5.26-11.76-11.76-11.76s-11.75,5.3-11.75,11.44c0,10.72,11.75,32.13,11.75,32.13,0,0,11.76-21.79,11.76-31.82Z"/>
        <path class="cls-19" d="M2202.58,440.81c0,6.49,5.26,11.76,11.76,11.76,6.39,0,11.75-5.3,11.75-11.44,0-10.72-11.75-32.13-11.75-32.13,0,0-11.76,21.79-11.76,31.82Z"/>
        <path class="cls-19" d="M2192.66,382.9c-5.62-3.25-12.81-1.32-16.06,4.3-3.19,5.53-1.29,12.83,4.03,15.9,9.29,5.36,33.71,5.89,33.71,5.89,0,0-12.99-21.08-21.68-26.09Z"/>
        <path class="cls-19" d="M2236.02,435.08c5.62,3.25,12.81,1.32,16.06-4.3,3.19-5.53,1.29-12.83-4.03-15.9-9.29-5.36-33.71-5.89-33.71-5.89,0,0,12.99,21.08,21.68,26.09Z"/>
        <path class="cls-19" d="M2180.9,414.72c-5.62,3.25-7.55,10.44-4.3,16.06,3.19,5.53,10.46,7.53,15.79,4.46,9.29-5.36,21.95-26.25,21.95-26.25,0,0-24.75.71-33.44,5.73Z"/>
        <path class="cls-19" d="M2247.77,403.26c5.62-3.25,7.55-10.44,4.3-16.06-3.19-5.53-10.46-7.53-15.79-4.46-9.29,5.36-21.95,26.25-21.95,26.25,0,0,24.75-.71,33.44-5.73Z"/>
      </g>
    </g>
    <g>
      <rect class="cls-21" x="1529.82" y="939.31" width="188.08" height="188.08" transform="translate(-255.07 1450.9) rotate(-45)"/>
      <g id="Visit_Beemster_logo-2" data-name="Visit Beemster logo">
        <path class="cls-15" d="M1628.37,1099.85h-37.85c-7.42,0-13.45-5.99-13.45-13.36v-106.27c0-7.49,5.87-13.37,13.36-13.37h37.59c20.8,0,38.37,17.33,38.37,37.85,0,8.64-3.17,17.57-8.76,24.81,8.3,7.59,13.02,18.21,13.02,29.45,0,22.93-18.57,40.88-42.27,40.88ZM1631.11,990.82l-26.73,1.89,1.88,26.73,26.74-1.89-1.89-26.73Z"/>
        <path class="cls-10" d="M1616.99,1045.21l-.3-4.17,1.01-.07.06.79c.04.59.33,1.15.82,1.58.58.5,1.35.75,2.15.7.64-.05,1.22-.29,1.62-.69.41-.41.6-.94.56-1.54-.1-1.37-1.37-1.63-2.85-1.92-1.63-.33-3.47-.7-3.63-2.85-.05-.75.21-1.46.75-2.01.55-.55,1.35-.89,2.25-.96,1-.09,1.96.23,2.64.82l-.06-.83.99-.07.3,4.12-.99.07-.1-1.37c-.07-.92-1.23-1.68-2.51-1.68-.08,0-.15,0-.23,0-1.19.09-2.01.86-1.94,1.83.09,1.3,1.34,1.54,2.79,1.82,1.69.33,3.6.69,3.76,2.99.06.78-.19,1.53-.71,2.12-.61.7-1.51,1.13-2.55,1.2-1.12.07-2.22-.31-2.9-1.03l.08,1.08-1.01.07Z"/>
        <path class="cls-10" d="M1625.92,1044.59l-.07-1,1.8-.13-.63-8.75-1.8.13-.07-1,4.72-.34.07,1-1.76.13.63,8.76,1.76-.13.07,1-4.72.34Z"/>
        <path class="cls-10" d="M1634.23,1043.99l-.07-.99,1.81-.13-.63-8.76-2.71.19.24,3.36-1.01.07-.31-4.35,8.61-.62.32,4.35-1.01.07-.25-3.35-2.71.19.63,8.76,1.76-.13.07,1-4.73.34Z"/>
        <polygon class="cls-10" points="1615.07 1044.35 1613.31 1044.47 1612.68 1035.71 1614.44 1035.59 1614.37 1034.59 1609.97 1034.91 1609.97 1034.91 1605.24 1035.25 1605.31 1036.25 1607.09 1036.12 1604.71 1044.36 1601.06 1036.55 1602.75 1036.43 1602.68 1035.44 1598.28 1035.76 1598.35 1036.75 1599.86 1036.64 1604.27 1046.14 1604.31 1046.23 1605.25 1046.17 1608.15 1036.04 1609.72 1035.93 1609.72 1035.93 1611.52 1035.8 1612.15 1044.56 1610.35 1044.69 1610.42 1045.69 1615.14 1045.34 1615.07 1044.35"/>
        <path class="cls-10" d="M1600.76,1062.92l-.07-1,1.79-.13-.63-8.76-1.79.13-.07-1,4.77-.34c1.14-.08,2.03.16,2.64.72.61.57.79,1.31.83,1.84.07,1.04-.31,1.83-1.15,2.34,1.24.36,1.94,1.2,2.04,2.44.11,1.52-.75,3.21-3.5,3.41l-4.85.35ZM1603.34,1057.6l.29,4.11,1.85-.13c.85-.06,1.53-.33,1.95-.76.37-.39.55-.91.51-1.5-.1-1.31-1.09-1.97-2.83-1.84l-1.77.13ZM1603.01,1052.95l.26,3.65,1.6-.12c1.4-.1,2.25-.89,2.18-2-.03-.4-.27-1.67-2.03-1.67-.09,0-.19,0-.29.01l-1.73.12Z"/>
        <polygon class="cls-10" points="1630.83 1056.64 1629.82 1056.71 1630.05 1059.81 1624.89 1060.18 1624.6 1056.17 1627.26 1055.98 1627.43 1058.24 1628.4 1058.17 1628 1052.72 1627.04 1052.78 1627.19 1054.99 1624.53 1055.18 1624.25 1051.42 1629.41 1051.05 1629.63 1054.13 1630.65 1054.06 1630.35 1049.98 1621.19 1050.64 1621.26 1051.64 1623.09 1051.51 1623.72 1060.26 1621.89 1060.39 1621.96 1061.39 1631.13 1060.73 1630.83 1056.64"/>
        <polygon class="cls-10" points="1619.63 1057.44 1618.62 1057.52 1618.84 1060.61 1613.68 1060.98 1613.4 1056.98 1616.06 1056.79 1616.22 1059.05 1617.19 1058.98 1616.8 1053.52 1615.83 1053.59 1615.99 1055.79 1613.32 1055.99 1613.05 1052.23 1618.21 1051.86 1618.43 1054.94 1619.45 1054.86 1619.15 1050.79 1609.99 1051.45 1610.06 1052.45 1611.89 1052.31 1612.52 1061.07 1610.69 1061.2 1610.76 1062.2 1619.93 1061.54 1619.63 1057.44"/>
        <path class="cls-10" d="M1633.29,1060.57l-.07-1,1.8-.13-.63-8.76-1.8.13-.07-.99,3.38-.25.04.09,3.79,7.58c.09.16.19.4.3.64.04-.18.09-.37.15-.56l2.7-8.27,3.42-.25.07,1-1.77.12.63,8.76,1.77-.13.07,1-4.71.34-.08-1,1.78-.13-.61-8.42-3.17,9.69-.37.03-.05-.09-4.44-9.05.61,8.42,1.77-.13.07,1-4.59.33Z"/>
        <path class="cls-10" d="M1613.96,1078.54l-.07-1,1.81-.13-.63-8.76-2.71.2.24,3.35-1.01.07-.31-4.35,8.61-.62.32,4.35-1.01.07-.24-3.36-2.71.2.63,8.76,1.76-.13.08.99-4.73.35Z"/>
        <path class="cls-10" d="M1603.28,1079.32l-.3-4.17,1.01-.07.06.79c.1,1.34,1.46,2.37,2.98,2.28,1.35-.1,2.26-1.03,2.18-2.23-.1-1.37-1.37-1.62-2.85-1.92-1.63-.32-3.48-.69-3.63-2.85-.05-.75.21-1.46.76-2.01.55-.55,1.35-.89,2.25-.96,1-.07,1.97.24,2.65.82l-.06-.84,1-.07.31,4.28-1,.07-.11-1.53c-.03-.46-.35-.91-.86-1.23-.53-.33-1.21-.51-1.88-.45-.65.05-1.21.3-1.57.71-.28.32-.41.7-.38,1.12.09,1.3,1.34,1.55,2.79,1.82,1.69.32,3.6.69,3.76,2.99.13,1.75-1.27,3.18-3.25,3.33-1.14.07-2.22-.32-2.9-1.04l.07,1.09-1.01.07Z"/>
        <polygon class="cls-10" points="1631.29 1073.18 1630.28 1073.25 1630.51 1076.34 1625.35 1076.71 1625.06 1072.71 1627.73 1072.52 1627.89 1074.78 1628.86 1074.71 1628.47 1069.25 1627.5 1069.32 1627.65 1071.52 1624.99 1071.71 1624.72 1067.96 1629.88 1067.59 1630.1 1070.67 1631.11 1070.59 1630.82 1066.52 1621.65 1067.18 1621.73 1068.17 1623.56 1068.04 1624.18 1076.8 1622.36 1076.93 1622.43 1077.93 1631.59 1077.27 1631.29 1073.18"/>
        <path class="cls-10" d="M1633.57,1077.12l-.07-.99,1.82-.13-.63-8.76-1.79.13-.07-1,4.84-.35c3.23-.23,3.86,1.7,3.95,2.87.09,1.25-.49,2.18-1.69,2.72.13.08.23.16.31.25.49.52.78,1.33.83,2.41l.03.37c.02.41.12.7.27.83.09.08.21.11.37.1.26-.02.41-.11.49-.3.08-.18.15-.56.1-1.4l-.02-.24h0s-.15-2.02-.15-2.02l1.05-.07.14,2.01h0s.06.89.06.89c.03.6-.09,1.1-.37,1.48-.29.41-.71.64-1.23.68h-.15c-.48,0-.87-.17-1.16-.51-.29-.35-.46-.85-.51-1.54l-.03-.41c-.06-.87-.26-1.47-.59-1.72-.26-.2-.74-.29-1.42-.29,0,0-.11,0-.14.01l-1.61.12.26,3.65,1.77-.13.07,1-4.75.34ZM1635.86,1067.15l.3,4.11,1.77-.13c1.73-.12,2.63-.92,2.53-2.23-.1-1.36-1.06-2.02-2.75-1.89l-1.85.13Z"/>
      </g>
    </g>
    <g>
      <rect class="cls-21" x="1826.08" y="939.33" width="188.24" height="188.24" transform="translate(-168.35 1660.48) rotate(-45)"/>
      <g id="Beemster_Vanzelf_logo-2" data-name="Beemster Vanzelf logo">
        <g>
          <path class="cls-11" d="M1883.49,1054.75h4.36c2.17,0,3.5,1.17,3.5,3.28,0,1.08-.51,1.92-1.31,2.33,1.22.48,1.94,1.5,1.94,3.07,0,2.31-1.5,3.67-3.99,3.67h-4.5v-12.36ZM1887.76,1059.67c1.11,0,1.68-.48,1.68-1.55s-.57-1.55-1.71-1.55h-2.28v3.11h2.31ZM1887.78,1065.29c1.54,0,2.24-.62,2.24-1.89s-.71-1.91-2.24-1.91h-2.33v3.8h2.33Z"/>
          <path class="cls-11" d="M1901.89,1063.15h-6.34c.16,1.55,1.02,2.47,2.35,2.47,1.08,0,1.75-.48,2.33-1.54l1.54.6c-.78,1.71-2,2.56-3.96,2.56-2.74,0-4.17-2.22-4.17-4.59s1.43-4.59,4.17-4.59,4.08,2.12,4.08,4.31v.78ZM1899.98,1061.63c-.21-1.15-.92-1.94-2.17-1.94-1.06,0-1.89.69-2.17,1.94h4.34Z"/>
          <path class="cls-11" d="M1911.69,1063.15h-6.34c.16,1.55,1.02,2.47,2.35,2.47,1.08,0,1.75-.48,2.33-1.54l1.54.6c-.78,1.71-2,2.56-3.96,2.56-2.74,0-4.17-2.22-4.17-4.59s1.43-4.59,4.17-4.59,4.08,2.12,4.08,4.31v.78ZM1909.78,1061.63c-.21-1.15-.92-1.94-2.17-1.94-1.06,0-1.89.69-2.17,1.94h4.34Z"/>
          <path class="cls-11" d="M1913.74,1058.21h1.87v1.55c.67-1.13,1.55-1.7,2.63-1.7,1.22,0,2.12.62,2.47,1.87.64-1.15,1.66-1.87,2.77-1.87,1.7,0,2.61,1.01,2.61,2.79v6.25h-1.85v-5.95c0-1.01-.41-1.47-1.25-1.47-1.2,0-2.14,1.36-2.14,3.81v3.6h-1.85v-5.95c0-1.01-.41-1.47-1.25-1.47-1.25,0-2.14,1.43-2.14,3.96v3.46h-1.87v-8.9Z"/>
          <path class="cls-11" d="M1929.4,1064.04c.37,1.06,1.02,1.59,1.92,1.59.69,0,1.18-.39,1.18-1.08,0-.62-.65-.99-1.87-1.47-1.4-.51-2.15-1.25-2.15-2.58s1.17-2.44,2.72-2.44c1.2,0,2.14.49,2.68,1.43l-1.15,1.04c-.37-.57-.88-.85-1.52-.85-.57,0-.99.34-.99.85s.44.85,1.87,1.4c1.45.51,2.17,1.36,2.17,2.51,0,1.71-1.18,2.81-2.95,2.81s-3.05-1.08-3.43-2.42l1.5-.79Z"/>
          <path class="cls-11" d="M1936.43,1059.83h-1.43v-1.62h1.43v-2.42l1.87-1.18v3.6h2.37v1.62h-2.37v4.34c0,1.04.41,1.45,1.18,1.45.35,0,.67-.07.94-.23l.44,1.54c-.42.21-.92.32-1.47.32-1.85,0-2.97-1.04-2.97-3.11v-4.31Z"/>
          <path class="cls-11" d="M1949.82,1063.15h-6.34c.16,1.55,1.02,2.47,2.35,2.47,1.08,0,1.75-.48,2.33-1.54l1.54.6c-.78,1.71-2,2.56-3.96,2.56-2.74,0-4.17-2.22-4.17-4.59s1.43-4.59,4.17-4.59,4.08,2.12,4.08,4.31v.78ZM1947.91,1061.63c-.21-1.15-.92-1.94-2.17-1.94-1.06,0-1.89.69-2.17,1.94h4.34Z"/>
          <path class="cls-11" d="M1951.86,1058.21h1.87v1.48c.58-1.06,1.55-1.62,2.63-1.62.34,0,.72.07,1.15.21l-.35,1.73c-.3-.18-.64-.26-1.02-.26-1.4,0-2.4,1.34-2.4,4.11v3.25h-1.87v-8.9Z"/>
          <path class="cls-11" d="M1900.12,1071.18h2.14l3.06,9.61,3.07-9.61h2.14l-4.2,12.36h-2l-4.2-12.36Z"/>
          <path class="cls-11" d="M1911.6,1075.77c.69-.85,1.64-1.27,2.88-1.27,1.06,0,1.98.44,2.47,1.08v-.94h1.87v8.9h-1.87v-1.02c-.35.62-1.32,1.17-2.47,1.17-1.24,0-2.19-.42-2.88-1.25-.69-.85-1.02-1.96-1.02-3.34s.34-2.49,1.02-3.32ZM1914.83,1076.12c-1.36,0-2.31,1.15-2.31,2.97s.95,2.97,2.31,2.97,2.3-1.15,2.3-2.97-.9-2.97-2.3-2.97Z"/>
          <path class="cls-11" d="M1921.37,1074.64h1.87v1.55c.65-1.04,1.7-1.7,2.84-1.7,1.64,0,2.74.99,2.74,2.75v6.29h-1.85v-5.79c0-1.08-.53-1.62-1.45-1.62-1.24,0-2.28,1.41-2.28,3.76v3.66h-1.87v-8.9Z"/>
          <path class="cls-11" d="M1930.66,1082.78l4.06-6.52h-3.8v-1.62h6.13v.78l-4.01,6.5h4.24v1.62h-6.62v-.76Z"/>
          <path class="cls-11" d="M1946.67,1079.58h-6.34c.16,1.55,1.02,2.47,2.35,2.47,1.08,0,1.75-.48,2.33-1.54l1.54.6c-.78,1.71-2,2.56-3.96,2.56-2.74,0-4.17-2.22-4.17-4.59s1.43-4.59,4.17-4.59,4.08,2.12,4.08,4.31v.78ZM1944.77,1078.06c-.21-1.15-.92-1.94-2.17-1.94-1.06,0-1.89.69-2.17,1.94h4.34Z"/>
          <path class="cls-11" d="M1948.72,1071.03h1.87v12.5h-1.87v-12.5Z"/>
          <path class="cls-11" d="M1953.26,1076.26h-1.22v-1.62h1.22v-.49c0-2.07,1.11-3.11,2.97-3.11.62,0,1.11.11,1.48.32l-.41,1.54c-.34-.16-.67-.23-1.01-.23-.79,0-1.18.44-1.18,1.32v.65h1.96v1.62h-1.96v7.28h-1.85v-7.28Z"/>
          <path class="cls-11" d="M1887,1096.89c.37,1.06,1.02,1.59,1.92,1.59.69,0,1.18-.39,1.18-1.08,0-.62-.65-.99-1.87-1.47-1.4-.51-2.15-1.25-2.15-2.58s1.17-2.44,2.72-2.44c1.2,0,2.14.49,2.68,1.43l-1.15,1.04c-.37-.57-.88-.85-1.52-.85-.57,0-.99.34-.99.85s.44.85,1.87,1.4c1.45.51,2.17,1.36,2.17,2.51,0,1.71-1.18,2.81-2.95,2.81s-3.06-1.08-3.43-2.42l1.5-.79Z"/>
          <path class="cls-11" d="M1893.66,1091.06h1.87v1.02c.35-.62,1.29-1.17,2.35-1.17,2.6,0,4.03,1.82,4.03,4.59s-1.43,4.59-4.03,4.59c-.92,0-1.91-.46-2.35-1.09v4.56h-1.87v-12.5ZM1897.65,1092.55c-1.36,0-2.3,1.15-2.3,2.97s.94,2.97,2.3,2.97,2.31-1.15,2.31-2.97-.92-2.97-2.31-2.97Z"/>
          <path class="cls-11" d="M1903.95,1091.06h1.87v1.48c.58-1.06,1.55-1.62,2.63-1.62.34,0,.72.07,1.15.21l-.35,1.73c-.3-.18-.64-.26-1.02-.26-1.4,0-2.4,1.34-2.4,4.11v3.25h-1.87v-8.9Z"/>
          <path class="cls-11" d="M1918.43,1096.01h-6.34c.16,1.55,1.02,2.47,2.35,2.47,1.08,0,1.75-.48,2.33-1.54l1.54.6c-.78,1.71-2,2.56-3.96,2.56-2.74,0-4.17-2.22-4.17-4.59s1.43-4.59,4.17-4.59,4.08,2.12,4.08,4.31v.78ZM1916.53,1094.49c-.21-1.15-.92-1.94-2.17-1.94-1.06,0-1.89.69-2.17,1.94h4.34Z"/>
          <path class="cls-11" d="M1920.48,1087.46h1.87v7.22l3.14-3.62h2.3l-3.64,4.1,3.9,4.8h-2.3l-3.41-4.34v4.34h-1.87v-12.5Z"/>
          <path class="cls-11" d="M1936.69,1096.01h-6.34c.16,1.55,1.02,2.47,2.35,2.47,1.08,0,1.75-.48,2.33-1.54l1.54.6c-.78,1.71-2,2.56-3.96,2.56-2.74,0-4.17-2.22-4.17-4.59s1.43-4.59,4.17-4.59,4.08,2.12,4.08,4.31v.78ZM1934.79,1094.49c-.21-1.15-.92-1.94-2.17-1.94-1.06,0-1.89.69-2.17,1.94h4.34Z"/>
          <path class="cls-11" d="M1938.74,1091.06h1.87v1.55c.65-1.04,1.7-1.7,2.84-1.7,1.64,0,2.74.99,2.74,2.75v6.29h-1.85v-5.79c0-1.08-.53-1.62-1.45-1.62-1.24,0-2.28,1.41-2.28,3.76v3.66h-1.87v-8.9Z"/>
          <path class="cls-11" d="M1949.27,1092.19c.69-.85,1.64-1.27,2.88-1.27,1.06,0,1.98.44,2.47,1.08v-4.54h1.87v12.5h-1.87v-1.02c-.35.62-1.32,1.17-2.47,1.17-1.24,0-2.19-.42-2.88-1.25-.69-.85-1.02-1.96-1.02-3.34s.34-2.49,1.02-3.32ZM1952.5,1092.55c-1.36,0-2.31,1.15-2.31,2.97s.95,2.97,2.31,2.97,2.3-1.15,2.3-2.97-.9-2.97-2.3-2.97Z"/>
        </g>
        <g>
          <polygon class="cls-20" points="1882.68 996.47 1882.68 1026.04 1897.47 1026.04 1897.47 1040.83 1904.86 1026.04 1912.25 1026.04 1912.25 996.47 1882.68 996.47"/>
          <polygon class="cls-17" points="1897.47 966.9 1897.47 996.47 1912.25 996.47 1912.25 1011.26 1919.65 996.47 1927.04 996.47 1927.04 966.9 1897.47 966.9"/>
          <polygon class="cls-10" points="1927.04 981.75 1927.04 1011.32 1941.83 1011.32 1941.83 1026.1 1949.22 1011.32 1956.61 1011.32 1956.61 981.75 1927.04 981.75"/>
          <polygon class="cls-11" points="1912.25 1011.26 1912.25 1040.83 1927.04 1040.83 1927.04 1055.61 1934.43 1040.83 1941.83 1040.83 1941.83 1011.26 1912.25 1011.26"/>
        </g>
      </g>
    </g>
    <g>
      <rect class="cls-21" x="1676.15" y="200.68" width="190.92" height="190.92" transform="translate(309.49 1339.45) rotate(-45)"/>
      <g id="BK_logo-2" data-name="BK logo">
        <path class="cls-11" d="M1783.16,395.04l-18.86-11.27c-1.21-.72-1.64-2.35-.96-3.64l17.47-32.95c.68-1.28,2.21-1.74,3.42-1.02l18.86,11.27c1.21.72,1.64,2.35.96,3.64l-17.47,32.95c-.68,1.28-2.21,1.74-3.42,1.02Z"/>
        <path class="cls-10" d="M1781.51,397.63l-22.8-6.2c-1.46-.4-2.34-1.98-1.97-3.53l9.61-39.82c.37-1.55,1.86-2.49,3.33-2.09l22.8,6.2c1.46.4,2.34,1.98,1.97,3.53l-9.61,39.82c-.37,1.55-1.86,2.49-3.33,2.09Z"/>
        <path class="cls-20" d="M1779.86,393.26l-21.65.25c-1.39.02-2.53-1.17-2.54-2.64l-.39-37.81c-.02-1.47,1.1-2.68,2.49-2.7l21.65-.25c1.39-.02,2.53,1.17,2.54,2.64l.39,37.81c.02,1.47-1.1,2.68-2.49,2.7Z"/>
        <path class="cls-17" d="M1777.32,392.93l-20.85,6.19c-1.34.4-2.72-.43-3.1-1.85l-9.59-36.41c-.37-1.42.41-2.89,1.74-3.29l20.85-6.19c1.34-.4,2.72.43,3.1,1.85l9.59,36.41c.37,1.42-.41,2.89-1.74,3.29Z"/>
      </g>
      <g>
        <path class="cls-18" d="M1655.17,291.91l7.56-7.47c5.19-5.13,9.81-4.92,14.67,0l1.26,1.27c3.24,3.28,4.26,6.32,2.93,9.43l.09.09c3.59-1.74,6.97-.41,10.31,2.96l2.7,2.73c4.86,4.92,4.88,10.12-.13,15.08l-7.88,7.79-31.51-31.87ZM1674.96,298c1.87-1.85,2.2-3.79-.33-6.34l-1.76-1.78c-2.25-2.28-4.01-2.51-5.79-.76l-2.41,2.39,8.33,8.42,1.96-1.94ZM1690.05,311.44c1.68-1.67,1.83-3.34-.51-5.71l-2.75-2.78c-2.93-2.96-4.78-2.93-7.06-.67l-2.23,2.21,9.68,9.79,2.87-2.84Z"/>
        <path class="cls-20" d="M1681.32,268.48l16.24-10.25,3.42,5.41-10.29,6.49,6.32,10.02,8.18-5.16,3.42,5.41-8.18,5.16,7.35,11.64,10.29-6.49,3.42,5.41-16.24,10.25-23.92-37.9Z"/>
        <path class="cls-14" d="M1709.04,252.7l18-6.71,2.24,6-11.4,4.25,4.14,11.1,9.06-3.38,2.24,6-9.06,3.38,4.81,12.9,11.4-4.25,2.24,6-18,6.71-15.66-42Z"/>
        <path class="cls-8" d="M1740.94,242.19l9.87-1.02,8,31.87,1.3-32.83,9.87-1.02,4.61,44.58-6.62.69-3.49-33.75-1.73,34.29-5.86.61-8.72-33.21,3.49,33.75-6.11.63-4.61-44.58Z"/>
        <path class="cls-18" d="M1779.5,273.85l.38-2.53,6.58,1-.46,3.04c-.48,3.16.74,4.52,2.95,4.85s3.84-.58,4.34-3.87c.56-3.67-.62-6.18-4.57-10.86-5.04-6.01-6.45-9.98-5.68-15.04,1.06-6.96,5.28-10.47,12.05-9.44s9.51,5.59,8.44,12.68l-.28,1.84-6.58-1,.35-2.28c.48-3.16-.6-4.56-2.82-4.9s-3.73.66-4.19,3.7c-.49,3.23.75,5.75,4.7,10.43,5.04,6.01,6.4,9.91,5.56,15.42-1.1,7.22-5.38,10.71-12.22,9.67s-9.64-5.61-8.56-12.7Z"/>
        <path class="cls-20" d="M1820.82,254.57l-6.89-2.6,2.26-5.99,20.37,7.69-2.26,5.99-6.89-2.6-13.58,35.94-6.59-2.49,13.57-35.94Z"/>
        <path class="cls-14" d="M1847.54,259.42l16.19,10.34-3.45,5.4-10.25-6.55-6.38,9.98,8.15,5.21-3.45,5.4-8.15-5.21-7.41,11.6,10.25,6.55-3.45,5.4-16.19-10.34,24.13-37.77Z"/>
        <path class="cls-8" d="M1873.93,277.97l7.38,7.38c5.16,5.16,4.99,9.78.1,14.67l-1.95,1.95c-3.26,3.26-6.38,4.3-9.51,2.99l-.09.09c1.72,3.26.18,6.43-3.39,10.01l-5.57,5.57c-1.54,1.54-2.62,2.72-3.3,4.39l-5.07-5.07c.54-1.09.86-1.77,3.44-4.35l5.79-5.8c2.94-2.94,3.03-4.76.77-7.02l-1.72-1.72-13.57,13.59-4.98-4.98,31.68-31.71ZM1867.15,298.35c1.86,1.86,3.8,2.17,6.34-.37l2.44-2.45c2.26-2.27,2.49-4.03.72-5.8l-2.26-2.26-9.05,9.06,1.81,1.81Z"/>
      </g>
      <g>
        <path class="cls-20" d="M1711.39,339.56l1.15,4.07,6.4,6.91-3.45,3.2-20.37-21.98,3.45-3.2,8.76,9.45-4.43-13.47,3.52-3.26,3.37,11.88,17.07,10.04-3.61,3.35-11.85-6.99Z"/>
        <path class="cls-8" d="M1715.35,314.63l4.07-2,12.25,20.13-8.29-22.07,4.61-2.26,12.36,20.07-8.4-22.01,3.65-1.79,10.46,28.25-5.27,2.58-11.02-17.53,7.1,19.45-5.61,2.75-15.92-25.57Z"/>
        <path class="cls-14" d="M1760.12,323.87l-5.36.93.21,5.92-4.3.75-.34-30.36,6.28-1.1,9.96,28.69-4.64.81-1.81-5.64ZM1758.83,319.97l-4.71-14.52.53,15.25,4.18-.73Z"/>
        <path class="cls-18" d="M1772.47,298.78l6.96.51c4.87.36,6.79,2.78,6.45,7.39l-.14,1.84c-.23,3.07-1.35,4.97-3.51,5.67v.09c2.29.9,2.89,3.18,2.65,6.55l-.39,5.25c-.11,1.45-.14,2.52.25,3.67l-4.78-.35c-.2-.79-.34-1.27-.16-3.7l.4-5.47c.2-2.78-.54-3.73-2.68-3.89l-1.62-.12-.94,12.81-4.7-.35,2.2-29.89ZM1777.93,312.07c1.75.13,2.87-.56,3.05-2.95l.17-2.31c.16-2.13-.5-3.13-2.16-3.25l-2.14-.16-.63,8.54,1.71.13Z"/>
        <path class="cls-8" d="M1800.16,307.39l-4.69-1.51,1.31-4.08,13.86,4.46-1.31,4.08-4.69-1.51-7.87,24.45-4.48-1.44,7.87-24.45Z"/>
        <path class="cls-20" d="M1820.3,310.82l11.02,6.6-2.2,3.67-6.98-4.18-4.07,6.79,5.55,3.32-2.2,3.67-5.55-3.32-4.73,7.9,6.98,4.18-2.2,3.67-11.02-6.6,15.41-25.71Z"/>
        <path class="cls-18" d="M1839.6,329.78l-3.55-3.42,2.97-3.08,10.48,10.1-2.97,3.08-3.55-3.42-17.82,18.5-3.39-3.27,17.82-18.5Z"/>
      </g>
    </g>
    <g>
      <rect class="cls-5" x="1234.49" y="644.2" width="188.23" height="188.23" transform="translate(-132.93 1155.72) rotate(-45)"/>
      <g id="Wegen_dijken_bruggen-2" data-name="Wegen, dijken, bruggen">
        <circle class="cls-15" cx="1374.9" cy="703.44" r="16.64"/>
        <line class="cls-37" x1="1374.9" y1="695.23" x2="1374.9" y2="733.37"/>
        <circle class="cls-15" cx="1328.61" cy="703.44" r="16.64"/>
        <line class="cls-37" x1="1328.61" y1="696.26" x2="1328.61" y2="734.4"/>
        <circle class="cls-15" cx="1280.79" cy="703.44" r="16.64"/>
        <line class="cls-37" x1="1280.79" y1="696.26" x2="1280.79" y2="734.4"/>
        <polygon class="cls-15" points="1378.41 733.23 1255.25 733.23 1246.34 775.89 1378.41 733.23"/>
        <polygon class="cls-15" points="1270.89 775.89 1409.78 775.89 1402.97 733.23 1270.89 775.89"/>
      </g>
    </g>
    <g>
      <rect class="cls-19" x="1825.11" y="349.63" width="187.43" height="187.43" transform="translate(248.52 1486.66) rotate(-45)"/>
      <g id="Historische_figuren-2" data-name="Historische figuren">
        <path class="cls-9" d="M1891.21,428.47c0-5.31,4.3-9.62,9.62-9.62s9.62,4.3,9.62,9.62h-19.23Z"/>
        <path class="cls-9" d="M1927.09,428.47c0-5.31,4.3-9.62,9.62-9.62s9.62,4.3,9.62,9.62h-19.23Z"/>
        <path class="cls-21" d="M1904.77,445.13c5.31-1.49,10.82,1.61,12.31,6.92,1.46,5.23-1.64,10.83-6.67,12.24-8.77,2.46-28.98-2.25-28.98-2.25,0,0,15.13-14.61,23.33-16.91Z"/>
        <path class="cls-21" d="M1933.13,445.13c-5.31-1.49-10.82,1.61-12.31,6.92s1.64,10.83,6.67,12.24c8.77,2.46,28.98-2.25,28.98-2.25,0,0-15.13-14.61-23.33-16.91Z"/>
        <path class="cls-21" d="M1938.31,484.28c0-10.8-8.76-19.56-19.56-19.56s-19.56,8.81-19.56,19.04c0,17.84,19.56,53.46,19.56,53.46,0,0,19.56-36.25,19.56-52.94Z"/>
        <rect class="cls-9" x="1898.51" y="354.99" width="38.12" height="49.15"/>
        <path class="cls-25" d="M1952.51,391.92c-19.3,19.3-50.59,19.3-69.89,0"/>
      </g>
    </g>
    <g id="Menu">
      <line class="cls-39" x1="2327.41" y1="269.85" x2="2395.76" y2="269.85"/>
      <line class="cls-39" x1="2327.41" y1="291.77" x2="2395.76" y2="291.77"/>
      <line class="cls-39" x1="2327.41" y1="313.69" x2="2395.76" y2="313.69"/>
    </g>
  </g>
  <g id="Mobile_staand_" data-name="Mobile [staand]">
    <rect class="cls-11" x="4274.07" y="1527.25" width="188.23" height="188.24" transform="translate(132.86 3563.51) rotate(-45)"/>
    <polygon class="cls-11" points="3777.69 1487.76 3910.79 1620.86 3777.69 1753.96 3644.58 1620.86 3777.69 1487.76"/>
    <polygon class="cls-11" points="4072.94 1487.76 4206.04 1620.86 4072.94 1753.96 3939.83 1620.86 4072.94 1487.76"/>
    <rect class="cls-11" x="3831.2" y="1379.5" width="188.24" height="188.24" transform="translate(107.67 3207.18) rotate(-45)"/>
    <rect class="cls-11" x="3683.57" y="1231.78" width="188.24" height="188.23" transform="translate(168.91 3059.58) rotate(-45)"/>
    <rect class="cls-11" x="4126.47" y="1379.28" width="188.24" height="188.24" transform="translate(194.31 3415.9) rotate(-45)"/>
    <rect class="cls-10" x="3831.32" y="1084.03" width="188.24" height="188.23" transform="translate(316.66 3120.78) rotate(-45)"/>
    <rect class="cls-10" x="3684.09" y="936.4" width="188.24" height="188.24" transform="translate(377.92 2973.43) rotate(-45)"/>
    <rect class="cls-20" x="3831.71" y="789.07" width="188.24" height="188.23" transform="translate(525.34 3034.66) rotate(-45)"/>
    <polygon class="cls-20" points="4958.45 602.26 5091.55 735.35 4958.45 868.45 4825.34 735.35 4958.45 602.26"/>
    <polygon class="cls-10" points="4811.17 1045.32 4944.27 1178.42 4811.17 1311.52 4678.06 1178.42 4811.17 1045.32"/>
    <rect class="cls-11" x="4569.32" y="1527.25" width="188.23" height="188.24" transform="translate(219.37 3772.35) rotate(-45)"/>
    <polygon class="cls-11" points="4958.42 1488.27 5091.52 1621.36 4958.41 1754.47 4825.31 1621.36 4958.42 1488.27"/>
    <polygon class="cls-11" points="4811.16 1340.43 4944.27 1473.53 4811.16 1606.62 4678.06 1473.53 4811.16 1340.43"/>
    <rect class="cls-11" x="4864.29" y="1231.78" width="188.24" height="188.23" transform="translate(514.73 3894.47) rotate(-45)"/>
    <polygon class="cls-11" points="4518.27 1337.97 4651.37 1471.06 4518.27 1604.17 4385.16 1471.06 4518.27 1337.97"/>
    <rect class="cls-11" x="4274.07" y="1826.64" width="188.23" height="188.24" transform="translate(-78.83 3651.19) rotate(-45)"/>
    <polygon class="cls-11" points="3777.69 1787.15 3910.79 1920.25 3777.69 2053.35 3644.58 1920.25 3777.69 1787.15"/>
    <polygon class="cls-11" points="4072.94 1787.16 4206.04 1920.25 4072.94 2053.35 3939.83 1920.25 4072.94 1787.16"/>
    <rect class="cls-11" x="3831.2" y="1678.9" width="188.24" height="188.24" transform="translate(-104.03 3294.87) rotate(-45)"/>
    <rect class="cls-11" x="4126.47" y="1678.67" width="188.24" height="188.24" transform="translate(-17.39 3503.59) rotate(-45)"/>
    <rect class="cls-11" x="4569.32" y="1826.64" width="188.23" height="188.24" transform="translate(7.67 3860.04) rotate(-45)"/>
    <polygon class="cls-11" points="4958.42 1787.66 5091.52 1920.75 4958.41 2053.86 4825.31 1920.75 4958.42 1787.66"/>
    <polygon class="cls-11" points="4811.16 1639.82 4944.27 1772.92 4811.16 1906.01 4678.06 1772.92 4811.16 1639.82"/>
    <polygon class="cls-11" points="4518.27 1637.36 4651.37 1770.45 4518.27 1903.56 4385.16 1770.45 4518.27 1637.36"/>
    <rect class="cls-11" x="3831.2" y="1978.29" width="188.24" height="188.24" transform="translate(-315.73 3382.56) rotate(-45)"/>
    <rect class="cls-11" x="4126.47" y="1978.06" width="188.24" height="188.24" transform="translate(-229.09 3591.28) rotate(-45)"/>
    <polygon class="cls-11" points="4811.16 1939.21 4944.27 2072.31 4811.16 2205.4 4678.06 2072.32 4811.16 1939.21"/>
    <polygon class="cls-11" points="4518.27 1936.75 4651.37 2069.84 4518.27 2202.95 4385.16 2069.84 4518.27 1936.75"/>
    <polygon class="cls-10" points="4958.41 897.55 5091.52 1030.66 4958.42 1163.75 4825.31 1030.66 4958.41 897.55"/>
    <rect class="cls-20" x="4719.31" y="788.65" width="188.24" height="188.23" transform="translate(785.64 3662.21) rotate(-45)"/>
    <polygon class="cls-20" points="4958.41 307.06 5091.52 440.15 4958.42 573.25 4825.31 440.15 4958.41 307.06"/>
    <polygon class="cls-20" points="4663.51 307.06 4796.61 440.15 4663.5 573.25 4530.4 440.15 4663.51 307.06"/>
    <polygon class="cls-20" points="4812.03 455.58 4945.13 588.67 4812.03 721.77 4678.92 588.67 4812.03 455.58"/>
    <polygon class="cls-20" points="4072.99 307.48 4206.1 440.58 4072.99 573.68 3939.89 440.58 4072.99 307.48"/>
    <rect class="cls-20" x="3683.57" y="346.03" width="188.24" height="188.24" transform="translate(795.26 2800.18) rotate(-45)"/>
    <rect class="cls-20" x="3830.29" y="492.74" width="188.24" height="188.24" transform="translate(734.49 2946.9) rotate(-45)"/>
    <rect class="cls-20" x="3682.66" y="640.86" width="188.23" height="188.24" transform="translate(586.51 2885.89) rotate(-45)"/>
    <polygon class="cls-17" points="3925.31 159.42 4058.42 292.51 3925.31 425.61 3792.21 292.51 3925.31 159.42"/>
    <rect class="cls-17" x="4717.05" y="198.4" width="188.24" height="188.24" transform="translate(1202.28 3487.64) rotate(-45)"/>
    <rect class="cls-17" x="4864.29" y="50.8" width="188.24" height="188.23" transform="translate(1349.85 3548.61) rotate(-45)"/>
    <polygon class="cls-17" points="4515.81 159.42 4648.92 292.52 4515.81 425.61 4382.71 292.52 4515.81 159.42"/>
    <rect class="cls-17" x="4569.38" y="50.8" width="188.24" height="188.23" transform="translate(1263.43 3340.04) rotate(-45)"/>
    <polygon class="cls-17" points="4368.19 11.8 4501.29 144.9 4368.19 278 4235.08 144.89 4368.19 11.8"/>
    <polygon class="cls-17" points="4220.56 159.41 4353.66 292.52 4220.57 425.61 4087.46 292.51 4220.56 159.41"/>
    <polygon class="cls-17" points="3925.31 -133.86 4058.42 -.77 3925.31 132.33 3792.21 -.77 3925.31 -133.86"/>
    <rect class="cls-17" x="4717.05" y="-94.87" width="188.24" height="188.24" transform="translate(1409.65 3401.75) rotate(-45)"/>
    <polygon class="cls-17" points="4515.81 -133.85 4648.92 -.75 4515.81 132.34 4382.71 -.75 4515.81 -133.85"/>
    <polygon class="cls-17" points="4220.56 -133.87 4353.66 -.76 4220.57 132.34 4087.46 -.76 4220.56 -133.87"/>
    <rect class="cls-17" x="3978.82" y="50.79" width="188.23" height="188.24" transform="translate(1090.51 2922.48) rotate(-45)"/>
    <rect class="cls-17" x="3683.57" y="50.79" width="188.23" height="188.24" transform="translate(1004.03 2713.7) rotate(-45)"/>
    <g id="Dieren-3" data-name="Dieren">
      <rect class="cls-17" x="4420.64" y="787.9" width="188.93" height="188.93" transform="translate(698.52 3451.1) rotate(-45)"/>
      <line class="cls-27" x1="4467.18" y1="850.6" x2="4467.18" y2="938.03"/>
      <line class="cls-27" x1="4482.06" y1="850.6" x2="4482.06" y2="938.03"/>
      <line class="cls-27" x1="4518.48" y1="850.6" x2="4518.48" y2="938.03"/>
      <line class="cls-27" x1="4533.64" y1="850.6" x2="4533.64" y2="938.03"/>
      <circle class="cls-21" cx="4500.77" cy="856.8" r="30.11"/>
      <circle class="cls-21" cx="4500.77" cy="886.91" r="30.11"/>
      <circle class="cls-21" cx="4532.51" cy="857.78" r="24.56"/>
      <circle class="cls-21" cx="4532.51" cy="882.36" r="24.56"/>
      <circle class="cls-21" cx="4464.03" cy="857.78" r="24.56"/>
      <circle class="cls-21" cx="4464.03" cy="882.34" r="24.56"/>
      <path class="cls-6" d="M4575.68,850.6h-48.27c.03,8.91,7.26,16.12,16.17,16.12v15.97c0,8.86,7.18,16.05,16.05,16.05s16.05-7.18,16.05-16.05v-15.97c8.92,0,16.15-7.21,16.17-16.12h-16.17Z"/>
    </g>
    <g>
      <rect class="cls-13" x="4274.32" y="1229.8" width="188.24" height="188.24" transform="translate(343.33 3476.72) rotate(-45)"/>
      <g id="Boerderijen-3" data-name="Boerderijen">
        <rect class="cls-15" x="4301.89" y="1341.67" width="133.1" height="26.62"/>
        <polygon class="cls-4" points="4434.99 1335.76 4368.44 1244.58 4301.89 1335.76 4348.44 1335.76 4348.44 1313.59 4348.44 1313.5 4368.41 1302.83 4388.37 1312.98 4388.37 1335.76 4434.99 1335.76"/>
      </g>
    </g>
    <g>
      <rect class="cls-10" x="4568.7" y="641.58" width="189.66" height="189.66" transform="translate(845.2 3513.31) rotate(-45)"/>
      <polygon id="Kerken-3" data-name="Kerken" class="cls-6" points="4708.24 763.79 4699.23 728.03 4636.71 728.03 4636.71 692.27 4627.77 656.5 4618.83 692.27 4618.83 799.56 4708.24 799.56 4708.24 763.79 4708.24 763.79"/>
    </g>
    <g>
      <rect class="cls-7" x="3979.01" y="641.22" width="188.21" height="188.21" transform="translate(673.03 3095.5) rotate(-45)"/>
      <g id="Dorpen-3" data-name="Dorpen">
        <circle class="cls-10" cx="4073.11" cy="726.05" r="44.36"/>
        <polygon class="cls-6" points="4153.37 747.36 4141.24 730.5 4111.37 730.5 4101.98 743.56 4096.97 723.68 4056.12 723.68 4056.12 700.31 4050.28 676.95 4044.44 700.31 4044.44 751.89 4020.66 716.22 3992.86 757.93 3992.86 770.41 4044.44 770.41 4048.47 770.41 4099.24 770.41 4102.86 770.41 4153.37 770.41 4153.37 747.36 4153.37 747.36"/>
      </g>
    </g>
    <g>
      <rect class="cls-15" x="3977.1" y="936.83" width="189.87" height="189.87" transform="translate(463.11 3181.56) rotate(-45)"/>
      <g id="Streekproducten-3" data-name="Streekproducten">
        <path class="cls-32" d="M4107.37,1100.91c-11.3-20.74-4.1-46.81,16.42-58.75v-.07c-22.95-6.06-46.48,7.28-53.15,29.94-.08.31-.14.63-.23.94"/>
        <path class="cls-20" d="M4127.07,1044.05c.15.15.28.3.43.45,9.66,9.19,24.93,9.07,34.44-.37-9.62-9.62-25.2-9.65-34.86-.08Z"/>
        <path class="cls-20" d="M4127.06,1044.05c.15-.15.3-.28.45-.43,9.19-9.66,9.07-24.93-.37-34.44-9.62,9.62-9.65,25.2-.08,34.86Z"/>
        <path class="cls-32" d="M4072.07,1010.34c-13.74-25.22-4.98-56.92,19.96-71.44"/>
        <path class="cls-21" d="M4112.38,986.23c4,6.92,1.62,15.77-5.3,19.76-6.81,3.93-15.78,1.59-19.57-4.96-6.6-11.43-7.25-41.47-7.25-41.47,0,0,25.93,15.99,32.11,26.67Z"/>
        <path class="cls-21" d="M4031.86,986.23c-4,6.92-1.62,15.77,5.3,19.76,6.81,3.93,15.78,1.59,19.57-4.96,6.6-11.43,7.25-41.47,7.25-41.47,0,0-25.93,15.99-32.11,26.67Z"/>
        <path class="cls-21" d="M4086.58,998.71c0,7.99-6.48,14.47-14.47,14.47s-14.46-6.52-14.46-14.08c0-13.2,14.46-39.54,14.46-39.54,0,0,14.47,26.81,14.47,39.15Z"/>
        <circle class="cls-17" cx="4070.47" cy="1087.59" r="15.66"/>
        <circle class="cls-17" cx="4105.88" cy="1087.59" r="15.66"/>
        <path class="cls-10" d="M3993.93,1026.65c0,22.98,9.32,43.79,24.38,58.85l58.85-58.85h-83.22Z"/>
      </g>
    </g>
    <g>
      <rect class="cls-12" x="4125.63" y="492.23" width="191.01" height="191.01" transform="translate(820.75 3156.94) rotate(-45)"/>
      <g id="Bijzondere_gebouwen-3" data-name="Bijzondere gebouwen">
        <rect class="cls-13" x="4186.49" y="632.76" width="69.27" height="20.78"/>
        <polygon class="cls-9" points="4221.53 537.48 4202.64 544.5 4186.51 628.43 4255.77 628.43 4240.53 543.96 4221.53 537.48"/>
        <line class="cls-49" x1="4176.12" y1="610.25" x2="4266.16" y2="520.2"/>
        <line class="cls-49" x1="4266.16" y1="610.25" x2="4176.12" y2="520.2"/>
      </g>
    </g>
    <g>
      <rect class="cls-11" x="4420.87" y="1081.73" width="188.47" height="188.47" transform="translate(490.91 3537.09) rotate(-45)"/>
      <g id="Hollandse_Waterlinies-3" data-name="Hollandse Waterlinies">
        <path class="cls-21" d="M4600.11,1160.51v45.97h-69.99v-32.04h-.06c-9.61-3.69-20.3-3.69-29.91,0-.02,0-.04.01-.06.02v32.02h-69.99v-45.97h170ZM4472.58,1175.21c-3.99-1.53-8.42-1.53-12.41,0,0,0-.02,0-.02,0v16.05h12.46v-16.05h0s-.02,0-.02,0ZM4570.04,1175.21c-3.99-1.53-8.42-1.53-12.41,0,0,0-.02,0-.02,0v16.05h12.46v-16.05h0s-.02,0-.02,0Z"/>
        <path class="cls-21" d="M4515.11,1134.56c-14.82,0-27.72,8.2-34.43,20.31h68.85c-6.71-12.11-19.6-20.31-34.43-20.31Z"/>
        <line class="cls-33" x1="4449.35" y1="1147.32" x2="4500.26" y2="1147.32"/>
      </g>
    </g>
    <g>
      <rect class="cls-20" x="4274.32" y="641.19" width="188.24" height="188.23" transform="translate(759.55 3304.32) rotate(-45)"/>
      <path id="Werelderfgoed-3" data-name="Werelderfgoed" class="cls-35" d="M4433.59,735.03c0-35.9-29.1-65-65-65s-65,29.1-65,65c0,32.51,23.88,59.44,55.05,64.23v-29.37l-35.51-35.51,45.37-45.37,45.18,45.18-35.59,35.59v29.55c31.39-4.6,55.5-31.62,55.5-64.29Z"/>
    </g>
    <g>
      <rect class="cls-4" x="4274.02" y="937.6" width="188.32" height="188.32" transform="translate(549.85 3390.97) rotate(-45)"/>
      <path class="cls-38" d="M4319.17,1028.67c18.99,0,18.99,6.98,37.98,6.98s18.99-6.98,37.98-6.98,18.99,6.98,37.98,6.98"/>
      <path class="cls-31" d="M4319.17,1014.82c18.99,0,18.99,6.98,37.98,6.98s18.99-6.98,37.98-6.98,18.99,6.98,37.98,6.98"/>
      <path class="cls-24" d="M4319.17,1000.96c18.99,0,18.99,6.98,37.98,6.98s18.99-6.98,37.98-6.98,18.99,6.98,37.98,6.98"/>
      <path class="cls-43" d="M4319.17,987.42c18.99,0,18.99,6.98,37.98,6.98s18.99-6.98,37.98-6.98,18.99,6.98,37.98,6.98"/>
      <line class="cls-34" x1="4315.95" y1="980.49" x2="4315.95" y2="1085.91"/>
    </g>
    <g>
      <rect class="cls-16" x="4124.31" y="785.41" width="193.67" height="193.67" transform="translate(612.5 3243.2) rotate(-45)"/>
      <g id="Waterbeheer-3" data-name="Waterbeheer">
        <polygon class="cls-21" points="4234.12 838.6 4193.51 860.3 4193.51 860.48 4193.51 905.56 4274.72 905.56 4274.72 859.25 4234.12 838.6"/>
        <circle class="cls-15" cx="4299.71" cy="876.2" r="16.41"/>
        <line class="cls-28" x1="4299.71" y1="871.08" x2="4299.71" y2="905.56"/>
        <path class="cls-41" d="M4129.84,884.05c9.38,0,9.38,3.45,18.77,3.45s9.38-3.45,18.77-3.45,9.38,3.45,18.77,3.45"/>
        <path class="cls-41" d="M4129.84,898.68c9.38,0,9.38,3.45,18.77,3.45s9.38-3.45,18.77-3.45,9.38,3.45,18.77,3.45"/>
      </g>
    </g>
    <g>
      <rect class="cls-9" x="4568.62" y="935.48" width="188.26" height="188.26" transform="translate(637.64 3598.63) rotate(-45)"/>
      <g id="Bijzondere_tuinen-3" data-name="Bijzondere tuinen">
        <path class="cls-15" d="M4662.91,1072.32c0,.29.02.58.02.88,21.72-.1,39.3-17.71,39.37-39.44-21.45.08-38.86,17.22-39.39,38.56Z"/>
        <path class="cls-15" d="M4662.75,1073.2s.09,0,.14,0c0-.29.01-.59.02-.88-.53-21.39-18.02-38.56-39.53-38.56-.06,0-.12,0-.19,0,.06,21.79,17.74,39.44,39.55,39.44Z"/>
        <path class="cls-15" d="M4662.7,1106.38c0,.29.02.58.02.88,21.72-.1,39.3-17.71,39.37-39.44-21.45.08-38.86,17.22-39.39,38.56Z"/>
        <path class="cls-15" d="M4662.75,1107.26s.09,0,.14,0c0-.29.01-.59.02-.88-.53-21.39-18.02-38.56-39.53-38.56-.06,0-.12,0-.19,0,.06,21.79,17.74,39.44,39.55,39.44Z"/>
        <path class="cls-19" d="M4674.5,963.72c0-6.49-5.26-11.76-11.76-11.76s-11.75,5.3-11.75,11.44c0,10.72,11.75,32.13,11.75,32.13,0,0,11.76-21.79,11.76-31.82Z"/>
        <path class="cls-19" d="M4650.99,1027.36c0,6.49,5.26,11.76,11.76,11.76,6.39,0,11.75-5.3,11.75-11.44,0-10.72-11.75-32.13-11.75-32.13,0,0-11.76,21.79-11.76,31.82Z"/>
        <path class="cls-19" d="M4641.07,969.45c-5.62-3.25-12.81-1.32-16.06,4.3-3.19,5.53-1.29,12.83,4.03,15.9,9.29,5.36,33.71,5.89,33.71,5.89,0,0-12.99-21.08-21.68-26.09Z"/>
        <path class="cls-19" d="M4684.43,1021.63c5.62,3.25,12.81,1.32,16.06-4.3,3.19-5.53,1.29-12.83-4.03-15.9-9.29-5.36-33.71-5.89-33.71-5.89,0,0,12.99,21.08,21.68,26.09Z"/>
        <path class="cls-19" d="M4629.31,1001.27c-5.62,3.25-7.55,10.44-4.3,16.06s10.46,7.53,15.79,4.46c9.29-5.36,21.95-26.25,21.95-26.25,0,0-24.75.71-33.44,5.73Z"/>
        <path class="cls-19" d="M4696.18,989.81c5.62-3.25,7.55-10.44,4.3-16.06-3.19-5.53-10.46-7.53-15.79-4.46-9.29,5.36-21.95,26.25-21.95,26.25,0,0,24.75-.71,33.44-5.73Z"/>
      </g>
    </g>
    <line class="cls-39" x1="4626.77" y1="414.54" x2="4695.12" y2="414.54"/>
    <line class="cls-39" x1="4626.77" y1="436.46" x2="4695.12" y2="436.46"/>
    <line class="cls-39" x1="4626.77" y1="458.39" x2="4695.12" y2="458.39"/>
    <g>
      <rect class="cls-21" x="3979.36" y="1228.45" width="188.08" height="188.08" transform="translate(257.93 3267.68) rotate(-45)"/>
      <g id="Visit_Beemster_logo-3" data-name="Visit Beemster logo">
        <path class="cls-15" d="M4077.92,1388.99h-37.85c-7.42,0-13.45-5.99-13.45-13.36v-106.27c0-7.49,5.87-13.37,13.36-13.37h37.59c20.8,0,38.37,17.33,38.37,37.85,0,8.64-3.17,17.57-8.76,24.81,8.3,7.59,13.02,18.21,13.02,29.45,0,22.93-18.57,40.88-42.27,40.88ZM4080.65,1279.95l-26.73,1.89,1.88,26.73,26.74-1.89-1.89-26.73Z"/>
        <path class="cls-10" d="M4066.53,1334.35l-.3-4.17,1.01-.07.06.79c.04.59.33,1.15.82,1.58.58.5,1.35.75,2.15.7.64-.05,1.22-.29,1.62-.69.41-.41.6-.94.56-1.54-.1-1.37-1.37-1.63-2.85-1.92-1.63-.33-3.47-.7-3.63-2.85-.05-.75.21-1.46.75-2.01.55-.55,1.35-.89,2.25-.96,1-.09,1.96.23,2.64.82l-.06-.83.99-.07.3,4.12-.99.07-.1-1.37c-.07-.92-1.23-1.68-2.51-1.68-.08,0-.15,0-.23,0-1.19.09-2.01.86-1.94,1.83.09,1.3,1.34,1.54,2.79,1.82,1.69.33,3.6.69,3.76,2.99.06.78-.19,1.53-.71,2.12-.61.7-1.51,1.13-2.55,1.2-1.12.07-2.22-.31-2.9-1.03l.08,1.08-1.01.07Z"/>
        <path class="cls-10" d="M4075.46,1333.72l-.07-1,1.8-.13-.63-8.75-1.8.13-.07-1,4.72-.34.07,1-1.76.13.63,8.76,1.76-.13.07,1-4.72.34Z"/>
        <path class="cls-10" d="M4083.77,1333.12l-.07-.99,1.81-.13-.63-8.76-2.71.19.24,3.36-1.01.07-.31-4.35,8.61-.62.32,4.35-1.01.07-.25-3.35-2.71.19.63,8.76,1.76-.13.07,1-4.73.34Z"/>
        <polygon class="cls-10" points="4064.61 1333.48 4062.85 1333.61 4062.22 1324.85 4063.98 1324.73 4063.91 1323.73 4059.51 1324.05 4059.51 1324.05 4054.78 1324.39 4054.86 1325.39 4056.63 1325.26 4054.25 1333.5 4050.6 1325.69 4052.29 1325.57 4052.22 1324.57 4047.83 1324.89 4047.89 1325.89 4049.4 1325.78 4053.81 1335.27 4053.85 1335.37 4054.79 1335.3 4057.69 1325.18 4059.26 1325.07 4059.26 1325.07 4061.06 1324.94 4061.69 1333.7 4059.89 1333.83 4059.96 1334.82 4064.68 1334.48 4064.61 1333.48"/>
        <path class="cls-10" d="M4050.3,1352.05l-.07-1,1.79-.13-.63-8.76-1.79.13-.07-1,4.77-.34c1.14-.08,2.03.16,2.64.72.61.57.79,1.31.83,1.84.07,1.04-.31,1.83-1.15,2.34,1.24.36,1.94,1.2,2.04,2.44.11,1.52-.75,3.21-3.5,3.41l-4.85.35ZM4052.89,1346.74l.29,4.11,1.85-.13c.85-.06,1.53-.33,1.95-.76.37-.39.55-.91.51-1.5-.1-1.31-1.09-1.97-2.83-1.84l-1.77.13ZM4052.55,1342.09l.26,3.65,1.6-.12c1.4-.1,2.25-.89,2.18-2-.03-.4-.27-1.67-2.03-1.67-.09,0-.19,0-.29.01l-1.73.12Z"/>
        <polygon class="cls-10" points="4080.37 1345.78 4079.36 1345.85 4079.59 1348.94 4074.43 1349.31 4074.14 1345.31 4076.81 1345.12 4076.97 1347.38 4077.94 1347.31 4077.54 1341.85 4076.58 1341.92 4076.73 1344.12 4074.07 1344.32 4073.8 1340.56 4078.95 1340.19 4079.18 1343.27 4080.19 1343.19 4079.89 1339.12 4070.73 1339.78 4070.8 1340.77 4072.63 1340.64 4073.26 1349.4 4071.44 1349.53 4071.5 1350.53 4080.67 1349.87 4080.37 1345.78"/>
        <polygon class="cls-10" points="4069.17 1346.58 4068.16 1346.65 4068.38 1349.75 4063.23 1350.12 4062.94 1346.12 4065.6 1345.93 4065.76 1348.19 4066.74 1348.12 4066.34 1342.66 4065.37 1342.73 4065.53 1344.93 4062.87 1345.12 4062.59 1341.37 4067.75 1341 4067.98 1344.07 4068.99 1344 4068.69 1339.92 4059.53 1340.59 4059.6 1341.58 4061.43 1341.45 4062.06 1350.21 4060.23 1350.34 4060.3 1351.33 4069.47 1350.67 4069.17 1346.58"/>
        <path class="cls-10" d="M4082.84,1349.71l-.07-1,1.8-.13-.63-8.76-1.8.13-.07-.99,3.38-.25.04.09,3.79,7.58c.09.16.19.4.3.64.04-.18.09-.37.15-.56l2.7-8.27,3.42-.25.07,1-1.77.12.63,8.76,1.77-.13.07,1-4.71.34-.08-1,1.78-.13-.61-8.42-3.17,9.69-.37.03-.05-.09-4.44-9.05.61,8.42,1.77-.13.07,1-4.59.33Z"/>
        <path class="cls-10" d="M4063.5,1367.67l-.07-1,1.81-.13-.63-8.76-2.71.2.24,3.35-1.01.07-.31-4.35,8.61-.62.32,4.35-1.01.07-.24-3.36-2.71.2.63,8.76,1.76-.13.08.99-4.73.35Z"/>
        <path class="cls-10" d="M4052.82,1368.45l-.3-4.17,1.01-.07.06.79c.1,1.34,1.46,2.37,2.98,2.28,1.35-.1,2.26-1.03,2.18-2.23-.1-1.37-1.37-1.62-2.85-1.92-1.63-.32-3.48-.69-3.63-2.85-.05-.75.21-1.46.76-2.01.55-.55,1.35-.89,2.25-.96,1-.07,1.97.24,2.65.82l-.06-.84,1-.07.31,4.28-1,.07-.11-1.53c-.03-.46-.35-.91-.86-1.23-.53-.33-1.21-.51-1.88-.45-.65.05-1.21.3-1.57.71-.28.32-.41.7-.38,1.12.09,1.3,1.34,1.55,2.79,1.82,1.69.32,3.6.69,3.76,2.99.13,1.75-1.27,3.18-3.25,3.33-1.14.07-2.22-.32-2.9-1.04l.07,1.09-1.01.07Z"/>
        <polygon class="cls-10" points="4080.84 1362.31 4079.83 1362.38 4080.05 1365.48 4074.89 1365.85 4074.6 1361.85 4077.27 1361.66 4077.43 1363.92 4078.4 1363.84 4078.01 1358.39 4077.04 1358.46 4077.2 1360.66 4074.53 1360.85 4074.26 1357.09 4079.42 1356.72 4079.64 1359.8 4080.65 1359.73 4080.36 1355.65 4071.19 1356.31 4071.27 1357.31 4073.1 1357.18 4073.73 1365.94 4071.9 1366.07 4071.97 1367.06 4081.13 1366.4 4080.84 1362.31"/>
        <path class="cls-10" d="M4083.12,1366.25l-.07-.99,1.82-.13-.63-8.76-1.79.13-.07-1,4.84-.35c3.23-.23,3.86,1.7,3.95,2.87.09,1.25-.49,2.18-1.69,2.72.13.08.23.16.31.25.49.52.78,1.33.83,2.41l.03.37c.02.41.12.7.27.83.09.08.21.11.37.1.26-.02.41-.11.49-.3.08-.18.15-.56.1-1.4l-.02-.24h0s-.15-2.02-.15-2.02l1.05-.07.14,2.01h0s.06.89.06.89c.03.6-.09,1.1-.37,1.48-.29.41-.71.64-1.23.68h-.15c-.48,0-.87-.17-1.16-.51-.29-.35-.46-.85-.51-1.54l-.03-.41c-.06-.87-.26-1.47-.59-1.72-.26-.2-.74-.29-1.42-.29,0,0-.11,0-.14.01l-1.61.12.26,3.65,1.77-.13.07,1-4.75.34ZM4085.4,1356.29l.3,4.11,1.77-.13c1.73-.12,2.63-.92,2.53-2.23-.1-1.36-1.06-2.02-2.75-1.89l-1.85.13Z"/>
      </g>
    </g>
    <g>
      <rect class="cls-21" x="4571.93" y="1231.38" width="188.24" height="188.24" transform="translate(429.39 3687.62) rotate(-45)"/>
      <g id="Beemster_Vanzelf_logo-3" data-name="Beemster Vanzelf logo">
        <g>
          <path class="cls-11" d="M4629.34,1346.79h4.36c2.17,0,3.5,1.17,3.5,3.28,0,1.08-.51,1.92-1.31,2.33,1.22.48,1.94,1.5,1.94,3.07,0,2.31-1.5,3.67-3.99,3.67h-4.5v-12.36ZM4633.61,1351.72c1.11,0,1.68-.48,1.68-1.55s-.57-1.55-1.71-1.55h-2.28v3.11h2.31ZM4633.63,1357.33c1.54,0,2.24-.62,2.24-1.89s-.71-1.91-2.24-1.91h-2.33v3.8h2.33Z"/>
          <path class="cls-11" d="M4647.74,1355.2h-6.34c.16,1.55,1.02,2.47,2.35,2.47,1.08,0,1.75-.48,2.33-1.54l1.54.6c-.78,1.71-2,2.56-3.96,2.56-2.74,0-4.17-2.22-4.17-4.59s1.43-4.59,4.17-4.59,4.08,2.12,4.08,4.31v.78ZM4645.83,1353.68c-.21-1.15-.92-1.94-2.17-1.94-1.06,0-1.89.69-2.17,1.94h4.34Z"/>
          <path class="cls-11" d="M4657.54,1355.2h-6.34c.16,1.55,1.02,2.47,2.35,2.47,1.08,0,1.75-.48,2.33-1.54l1.54.6c-.78,1.71-2,2.56-3.96,2.56-2.74,0-4.17-2.22-4.17-4.59s1.43-4.59,4.17-4.59,4.08,2.12,4.08,4.31v.78ZM4655.63,1353.68c-.21-1.15-.92-1.94-2.17-1.94-1.06,0-1.89.69-2.17,1.94h4.34Z"/>
          <path class="cls-11" d="M4659.59,1350.25h1.87v1.55c.67-1.13,1.55-1.7,2.63-1.7,1.22,0,2.12.62,2.47,1.87.64-1.15,1.66-1.87,2.77-1.87,1.7,0,2.61,1.01,2.61,2.79v6.25h-1.85v-5.95c0-1.01-.41-1.47-1.25-1.47-1.2,0-2.14,1.36-2.14,3.81v3.6h-1.85v-5.95c0-1.01-.41-1.47-1.25-1.47-1.25,0-2.14,1.43-2.14,3.96v3.46h-1.87v-8.9Z"/>
          <path class="cls-11" d="M4675.25,1356.08c.37,1.06,1.02,1.59,1.92,1.59.69,0,1.18-.39,1.18-1.08,0-.62-.65-.99-1.87-1.47-1.4-.51-2.15-1.25-2.15-2.58s1.17-2.44,2.72-2.44c1.2,0,2.14.49,2.68,1.43l-1.15,1.04c-.37-.57-.88-.85-1.52-.85-.57,0-.99.34-.99.85s.44.85,1.87,1.4c1.45.51,2.17,1.36,2.17,2.51,0,1.71-1.18,2.81-2.95,2.81s-3.05-1.08-3.43-2.42l1.5-.79Z"/>
          <path class="cls-11" d="M4682.28,1351.88h-1.43v-1.62h1.43v-2.42l1.87-1.18v3.6h2.37v1.62h-2.37v4.34c0,1.04.41,1.45,1.18,1.45.35,0,.67-.07.94-.23l.44,1.54c-.42.21-.92.32-1.47.32-1.85,0-2.97-1.04-2.97-3.11v-4.31Z"/>
          <path class="cls-11" d="M4695.67,1355.2h-6.34c.16,1.55,1.02,2.47,2.35,2.47,1.08,0,1.75-.48,2.33-1.54l1.54.6c-.78,1.71-2,2.56-3.96,2.56-2.74,0-4.17-2.22-4.17-4.59s1.43-4.59,4.17-4.59,4.08,2.12,4.08,4.31v.78ZM4693.76,1353.68c-.21-1.15-.92-1.94-2.17-1.94-1.06,0-1.89.69-2.17,1.94h4.34Z"/>
          <path class="cls-11" d="M4697.72,1350.25h1.87v1.48c.58-1.06,1.55-1.62,2.63-1.62.34,0,.72.07,1.15.21l-.35,1.73c-.3-.18-.64-.26-1.02-.26-1.4,0-2.4,1.34-2.4,4.11v3.25h-1.87v-8.9Z"/>
          <path class="cls-11" d="M4645.97,1363.22h2.14l3.06,9.61,3.07-9.61h2.14l-4.2,12.36h-2l-4.2-12.36Z"/>
          <path class="cls-11" d="M4657.45,1367.81c.69-.85,1.64-1.27,2.88-1.27,1.06,0,1.98.44,2.47,1.08v-.94h1.87v8.9h-1.87v-1.02c-.35.62-1.32,1.17-2.47,1.17-1.24,0-2.19-.42-2.88-1.25-.69-.85-1.02-1.96-1.02-3.34s.34-2.49,1.02-3.32ZM4660.68,1368.16c-1.36,0-2.31,1.15-2.31,2.97s.95,2.97,2.31,2.97,2.3-1.15,2.3-2.97-.9-2.97-2.3-2.97Z"/>
          <path class="cls-11" d="M4667.22,1366.68h1.87v1.55c.65-1.04,1.7-1.7,2.84-1.7,1.64,0,2.74.99,2.74,2.75v6.29h-1.85v-5.79c0-1.08-.53-1.62-1.45-1.62-1.24,0-2.28,1.41-2.28,3.76v3.66h-1.87v-8.9Z"/>
          <path class="cls-11" d="M4676.51,1374.82l4.06-6.52h-3.8v-1.62h6.13v.78l-4.01,6.5h4.24v1.62h-6.62v-.76Z"/>
          <path class="cls-11" d="M4692.53,1371.63h-6.34c.16,1.55,1.02,2.47,2.35,2.47,1.08,0,1.75-.48,2.33-1.54l1.54.6c-.78,1.71-2,2.56-3.96,2.56-2.74,0-4.17-2.22-4.17-4.59s1.43-4.59,4.17-4.59,4.08,2.12,4.08,4.31v.78ZM4690.62,1370.11c-.21-1.15-.92-1.94-2.17-1.94-1.06,0-1.89.69-2.17,1.94h4.34Z"/>
          <path class="cls-11" d="M4694.57,1363.08h1.87v12.5h-1.87v-12.5Z"/>
          <path class="cls-11" d="M4699.11,1368.31h-1.22v-1.62h1.22v-.49c0-2.07,1.11-3.11,2.97-3.11.62,0,1.11.11,1.48.32l-.41,1.54c-.34-.16-.67-.23-1.01-.23-.79,0-1.18.44-1.18,1.32v.65h1.96v1.62h-1.96v7.28h-1.85v-7.28Z"/>
          <path class="cls-11" d="M4632.85,1388.94c.37,1.06,1.02,1.59,1.92,1.59.69,0,1.18-.39,1.18-1.08,0-.62-.65-.99-1.87-1.47-1.4-.51-2.15-1.25-2.15-2.58s1.17-2.44,2.72-2.44c1.2,0,2.14.49,2.68,1.43l-1.15,1.04c-.37-.57-.88-.85-1.52-.85-.57,0-.99.34-.99.85s.44.85,1.87,1.4c1.45.51,2.17,1.36,2.17,2.51,0,1.71-1.18,2.81-2.95,2.81s-3.06-1.08-3.43-2.42l1.5-.79Z"/>
          <path class="cls-11" d="M4639.51,1383.11h1.87v1.02c.35-.62,1.29-1.17,2.35-1.17,2.6,0,4.03,1.82,4.03,4.59s-1.43,4.59-4.03,4.59c-.92,0-1.91-.46-2.35-1.09v4.56h-1.87v-12.5ZM4643.5,1384.59c-1.36,0-2.3,1.15-2.3,2.97s.94,2.97,2.3,2.97,2.31-1.15,2.31-2.97-.92-2.97-2.31-2.97Z"/>
          <path class="cls-11" d="M4649.81,1383.11h1.87v1.48c.58-1.06,1.55-1.62,2.63-1.62.34,0,.72.07,1.15.21l-.35,1.73c-.3-.18-.64-.26-1.02-.26-1.4,0-2.4,1.34-2.4,4.11v3.25h-1.87v-8.9Z"/>
          <path class="cls-11" d="M4664.29,1388.05h-6.34c.16,1.55,1.02,2.47,2.35,2.47,1.08,0,1.75-.48,2.33-1.54l1.54.6c-.78,1.71-2,2.56-3.96,2.56-2.74,0-4.17-2.22-4.17-4.59s1.43-4.59,4.17-4.59,4.08,2.12,4.08,4.31v.78ZM4662.38,1386.53c-.21-1.15-.92-1.94-2.17-1.94-1.06,0-1.89.69-2.17,1.94h4.34Z"/>
          <path class="cls-11" d="M4666.34,1379.51h1.87v7.22l3.14-3.62h2.3l-3.64,4.1,3.9,4.8h-2.3l-3.41-4.34v4.34h-1.87v-12.5Z"/>
          <path class="cls-11" d="M4682.55,1388.05h-6.34c.16,1.55,1.02,2.47,2.35,2.47,1.08,0,1.75-.48,2.33-1.54l1.54.6c-.78,1.71-2,2.56-3.96,2.56-2.74,0-4.17-2.22-4.17-4.59s1.43-4.59,4.17-4.59,4.08,2.12,4.08,4.31v.78ZM4680.64,1386.53c-.21-1.15-.92-1.94-2.17-1.94-1.06,0-1.89.69-2.17,1.94h4.34Z"/>
          <path class="cls-11" d="M4684.6,1383.11h1.87v1.55c.65-1.04,1.7-1.7,2.84-1.7,1.64,0,2.74.99,2.74,2.75v6.29h-1.85v-5.79c0-1.08-.53-1.62-1.45-1.62-1.24,0-2.28,1.41-2.28,3.76v3.66h-1.87v-8.9Z"/>
          <path class="cls-11" d="M4695.12,1384.24c.69-.85,1.64-1.27,2.88-1.27,1.06,0,1.98.44,2.47,1.08v-4.54h1.87v12.5h-1.87v-1.02c-.35.62-1.32,1.17-2.47,1.17-1.24,0-2.19-.42-2.88-1.25-.69-.85-1.02-1.96-1.02-3.34s.34-2.49,1.02-3.32ZM4698.35,1384.59c-1.36,0-2.31,1.15-2.31,2.97s.95,2.97,2.31,2.97,2.3-1.15,2.3-2.97-.9-2.97-2.3-2.97Z"/>
        </g>
        <g>
          <polygon class="cls-20" points="4628.54 1288.51 4628.54 1318.08 4643.32 1318.08 4643.32 1332.87 4650.72 1318.08 4658.11 1318.08 4658.11 1288.51 4628.54 1288.51"/>
          <polygon class="cls-17" points="4643.32 1258.94 4643.32 1288.51 4658.11 1288.51 4658.11 1303.3 4665.5 1288.51 4672.89 1288.51 4672.89 1258.94 4643.32 1258.94"/>
          <polygon class="cls-10" points="4672.89 1273.79 4672.89 1303.36 4687.68 1303.36 4687.68 1318.15 4695.07 1303.36 4702.46 1303.36 4702.46 1273.79 4672.89 1273.79"/>
          <polygon class="cls-11" points="4658.11 1303.3 4658.11 1332.87 4672.89 1332.87 4672.89 1347.66 4680.29 1332.87 4687.68 1332.87 4687.68 1303.3 4658.11 1303.3"/>
        </g>
      </g>
    </g>
    <g>
      <rect class="cls-5" x="4127.71" y="1081.85" width="188.23" height="188.23" transform="translate(405.01 3329.71) rotate(-45)"/>
      <g id="Wegen_dijken_bruggen-3" data-name="Wegen, dijken, bruggen">
        <circle class="cls-15" cx="4268.12" cy="1141.08" r="16.64"/>
        <line class="cls-37" x1="4268.12" y1="1132.88" x2="4268.12" y2="1171.01"/>
        <circle class="cls-15" cx="4221.82" cy="1141.08" r="16.64"/>
        <line class="cls-37" x1="4221.82" y1="1133.91" x2="4221.82" y2="1172.04"/>
        <circle class="cls-15" cx="4174" cy="1141.08" r="16.64"/>
        <line class="cls-37" x1="4174" y1="1133.91" x2="4174" y2="1172.04"/>
        <polygon class="cls-15" points="4271.62 1170.87 4148.46 1170.87 4139.55 1213.53 4271.62 1170.87"/>
        <polygon class="cls-15" points="4164.1 1213.53 4302.99 1213.53 4296.18 1170.87 4164.1 1213.53"/>
      </g>
    </g>
    <g>
      <rect class="cls-19" x="4421.54" y="494.42" width="187.43" height="187.43" transform="translate(906.62 3365.03) rotate(-45)"/>
      <g id="Historische_figuren-3" data-name="Historische figuren">
        <path class="cls-9" d="M4487.64,573.25c0-5.31,4.3-9.62,9.62-9.62s9.62,4.3,9.62,9.62h-19.23Z"/>
        <path class="cls-9" d="M4523.52,573.25c0-5.31,4.3-9.62,9.62-9.62s9.62,4.3,9.62,9.62h-19.23Z"/>
        <path class="cls-21" d="M4501.21,589.91c5.31-1.49,10.82,1.61,12.31,6.92,1.46,5.23-1.64,10.83-6.67,12.24-8.77,2.46-28.98-2.25-28.98-2.25,0,0,15.13-14.61,23.33-16.91Z"/>
        <path class="cls-21" d="M4529.57,589.91c-5.31-1.49-10.82,1.61-12.31,6.92s1.64,10.83,6.67,12.24c8.77,2.46,28.98-2.25,28.98-2.25,0,0-15.13-14.61-23.33-16.91Z"/>
        <path class="cls-21" d="M4534.75,629.07c0-10.8-8.76-19.56-19.56-19.56s-19.56,8.81-19.56,19.04c0,17.84,19.56,53.46,19.56,53.46,0,0,19.56-36.25,19.56-52.94Z"/>
        <rect class="cls-9" x="4494.94" y="499.77" width="38.12" height="49.15"/>
        <path class="cls-25" d="M4548.95,536.71c-19.3,19.3-50.59,19.3-69.89,0"/>
      </g>
    </g>
    <g>
      <rect class="cls-21" x="4273.32" y="344.64" width="190.92" height="190.92" transform="translate(968.39 3218.09) rotate(-45)"/>
      <g id="BK_logo-3" data-name="BK logo">
        <path class="cls-11" d="M4380.33,539.01l-18.86-11.27c-1.21-.72-1.64-2.35-.96-3.64l17.47-32.95c.68-1.28,2.21-1.74,3.42-1.02l18.86,11.27c1.21.72,1.64,2.35.96,3.64l-17.47,32.95c-.68,1.28-2.21,1.74-3.42,1.02Z"/>
        <path class="cls-10" d="M4378.68,541.6l-22.8-6.2c-1.46-.4-2.34-1.98-1.97-3.53l9.61-39.82c.37-1.55,1.86-2.49,3.33-2.09l22.8,6.2c1.46.4,2.34,1.98,1.97,3.53l-9.61,39.82c-.37,1.55-1.86,2.49-3.33,2.09Z"/>
        <path class="cls-20" d="M4377.02,537.22l-21.65.25c-1.39.02-2.53-1.17-2.54-2.64l-.39-37.81c-.02-1.47,1.1-2.68,2.49-2.7l21.65-.25c1.39-.02,2.53,1.17,2.54,2.64l.39,37.81c.02,1.47-1.1,2.68-2.49,2.7Z"/>
        <path class="cls-17" d="M4374.48,536.9l-20.85,6.19c-1.34.4-2.72-.43-3.1-1.85l-9.59-36.41c-.37-1.42.41-2.89,1.74-3.29l20.85-6.19c1.34-.4,2.72.43,3.1,1.85l9.59,36.41c.37,1.42-.41,2.89-1.74,3.29Z"/>
      </g>
      <g>
        <path class="cls-18" d="M4252.33,435.88l7.56-7.47c5.19-5.13,9.81-4.92,14.67,0l1.26,1.27c3.24,3.28,4.26,6.32,2.93,9.43l.09.09c3.59-1.74,6.97-.41,10.31,2.96l2.7,2.73c4.86,4.92,4.88,10.12-.13,15.08l-7.88,7.79-31.51-31.87ZM4272.13,441.97c1.87-1.85,2.2-3.79-.33-6.34l-1.76-1.78c-2.25-2.28-4.01-2.51-5.79-.76l-2.41,2.39,8.33,8.42,1.96-1.94ZM4287.22,455.41c1.68-1.67,1.83-3.34-.51-5.71l-2.75-2.78c-2.93-2.96-4.78-2.93-7.06-.67l-2.23,2.21,9.68,9.79,2.87-2.84Z"/>
        <path class="cls-20" d="M4278.49,412.44l16.24-10.25,3.42,5.41-10.29,6.49,6.32,10.02,8.18-5.16,3.42,5.41-8.18,5.16,7.35,11.64,10.29-6.49,3.42,5.41-16.24,10.25-23.92-37.9Z"/>
        <path class="cls-14" d="M4306.21,396.66l18-6.71,2.24,6-11.4,4.25,4.14,11.1,9.06-3.38,2.24,6-9.06,3.38,4.81,12.9,11.4-4.25,2.24,6-18,6.71-15.66-42Z"/>
        <path class="cls-8" d="M4338.1,386.15l9.87-1.02,8,31.87,1.3-32.83,9.87-1.02,4.61,44.58-6.62.69-3.49-33.75-1.73,34.29-5.86.61-8.72-33.21,3.49,33.75-6.11.63-4.61-44.58Z"/>
        <path class="cls-18" d="M4376.66,417.82l.38-2.53,6.58,1-.46,3.04c-.48,3.16.74,4.52,2.95,4.85s3.84-.58,4.34-3.87c.56-3.67-.62-6.18-4.57-10.86-5.04-6.01-6.45-9.98-5.68-15.04,1.06-6.96,5.28-10.47,12.05-9.44s9.51,5.59,8.44,12.68l-.28,1.84-6.58-1,.35-2.28c.48-3.16-.6-4.56-2.82-4.9s-3.73.66-4.19,3.7c-.49,3.23.75,5.75,4.7,10.43,5.04,6.01,6.4,9.91,5.56,15.42-1.1,7.22-5.38,10.71-12.22,9.67s-9.64-5.61-8.56-12.7Z"/>
        <path class="cls-20" d="M4417.99,398.54l-6.89-2.6,2.26-5.99,20.37,7.69-2.26,5.99-6.89-2.6-13.58,35.94-6.59-2.49,13.57-35.94Z"/>
        <path class="cls-14" d="M4444.71,403.39l16.19,10.34-3.45,5.4-10.25-6.55-6.38,9.98,8.15,5.21-3.45,5.4-8.15-5.21-7.41,11.6,10.25,6.55-3.45,5.4-16.19-10.34,24.13-37.77Z"/>
        <path class="cls-8" d="M4471.09,421.94l7.38,7.38c5.16,5.16,4.99,9.78.1,14.67l-1.95,1.95c-3.26,3.26-6.38,4.3-9.51,2.99l-.09.09c1.72,3.26.18,6.43-3.39,10.01l-5.57,5.57c-1.54,1.54-2.62,2.72-3.3,4.39l-5.07-5.07c.54-1.09.86-1.77,3.44-4.35l5.79-5.8c2.94-2.94,3.03-4.76.77-7.02l-1.72-1.72-13.57,13.59-4.98-4.98,31.68-31.71ZM4464.32,442.31c1.86,1.86,3.8,2.17,6.34-.37l2.44-2.45c2.26-2.27,2.49-4.03.72-5.8l-2.26-2.26-9.05,9.06,1.81,1.81Z"/>
      </g>
      <g>
        <path class="cls-20" d="M4308.56,483.52l1.15,4.07,6.4,6.91-3.45,3.2-20.37-21.98,3.45-3.2,8.76,9.45-4.43-13.47,3.52-3.26,3.37,11.88,17.07,10.04-3.61,3.35-11.85-6.99Z"/>
        <path class="cls-8" d="M4312.51,458.59l4.07-2,12.25,20.13-8.29-22.07,4.61-2.26,12.36,20.07-8.4-22.01,3.65-1.79,10.46,28.25-5.27,2.58-11.02-17.53,7.1,19.45-5.61,2.75-15.92-25.57Z"/>
        <path class="cls-14" d="M4357.28,467.84l-5.36.93.21,5.92-4.3.75-.34-30.36,6.28-1.1,9.96,28.69-4.64.81-1.81-5.64ZM4355.99,463.94l-4.71-14.52.53,15.25,4.18-.73Z"/>
        <path class="cls-18" d="M4369.64,442.75l6.96.51c4.87.36,6.79,2.78,6.45,7.39l-.14,1.84c-.23,3.07-1.35,4.97-3.51,5.67v.09c2.29.9,2.89,3.18,2.65,6.55l-.39,5.25c-.11,1.45-.14,2.52.25,3.67l-4.78-.35c-.2-.79-.34-1.27-.16-3.7l.4-5.47c.2-2.78-.54-3.73-2.68-3.89l-1.62-.12-.94,12.81-4.7-.35,2.2-29.89ZM4375.1,456.03c1.75.13,2.87-.56,3.05-2.95l.17-2.31c.16-2.13-.5-3.13-2.16-3.25l-2.14-.16-.63,8.54,1.71.13Z"/>
        <path class="cls-8" d="M4397.32,451.36l-4.69-1.51,1.31-4.08,13.86,4.46-1.31,4.08-4.69-1.51-7.87,24.45-4.48-1.44,7.87-24.45Z"/>
        <path class="cls-20" d="M4417.46,454.78l11.02,6.6-2.2,3.67-6.98-4.18-4.07,6.79,5.55,3.32-2.2,3.67-5.55-3.32-4.73,7.9,6.98,4.18-2.2,3.67-11.02-6.6,15.41-25.71Z"/>
        <path class="cls-18" d="M4436.77,473.75l-3.55-3.42,2.97-3.08,10.48,10.1-2.97,3.08-3.55-3.42-17.82,18.5-3.39-3.27,17.82-18.5Z"/>
      </g>
    </g>
  </g>
</svg>